<svg xmlns="http://www.w3.org/2000/svg" width="16" height="16" viewBox="0 0 16 16" style="background:#fff">
  <path fill-rule="evenodd" d="M13.38874,2.52432572 L13.6582092,10.2109888 C13.6582092,10.5285774 13.9282444,10.7889887 14.2747047,10.7889887 C14.621165,10.7889887 14.8906341,10.5285774 14.9098819,10.2109888 L15.1408554,2.52432572 C15.1601032,2.0397342 14.7558995,1.66666667 14.2747047,1.66666667 C13.774262,1.66666667 13.38874,2.07709756 13.38874,2.52432572 Z M1.32886498,1.66666667 C0.80860843,1.66666667 0.511399848,1.96330914 0.511399848,2.48130124 L0.511399848,13.2028885 C0.511399848,13.7220128 0.80860843,14.0186553 1.32886498,14.0186553 L4.74648061,14.0186553 C8.59094437,14.0186553 11.0982526,11.3698192 11.0982526,7.85200183 C11.0982526,4.35173391 8.59094437,1.66666667 4.74648061,1.66666667 L1.32886498,1.66666667 Z M2.05292169,3.0366567 L4.74648061,3.0366567 C7.81140872,3.0366567 9.50068569,5.18448405 9.50068569,7.85200183 C9.50068569,10.4991396 7.75536367,12.6475331 4.74648061,12.6475331 L2.05292169,12.6475331 L2.05292169,3.0366567 Z M13.2155099,13.3449825 C13.2155099,13.8861852 13.6972709,14.3707767 14.2747047,14.3707767 C14.8521385,14.3707767 15.3333333,13.8861852 15.3333333,13.3449825 C15.3333333,12.7856643 14.8521385,12.3186222 14.2747047,12.3186222 C13.6972709,12.3186222 13.2155099,12.7856643 13.2155099,13.3449825 Z"/>
</svg>
