<?xml version="1.0" encoding="UTF-8"?>
<svg width="16px" height="16px" viewBox="0 0 16 16" version="1.1" xmlns="http://www.w3.org/2000/svg" xmlns:xlink="http://www.w3.org/1999/xlink">
    <!-- Generator: Sketch 49.3 (51167) - http://www.bohemiancoding.com/sketch -->
    <title>Combined Shape</title>
    <desc>Created with Sketch.</desc>
    <defs></defs>
    <g id="Favicons" stroke="none" stroke-width="1" fill="none" fill-rule="evenodd">
        <path d="M0,16 L0,0 L16,0 L16,16 L0,16 Z M13.309177,13 C13.7944873,13 14.1991102,12.6135983 14.1991102,12.1822009 C14.1991102,11.7367422 13.7944873,11.3644017 13.309177,11.3644017 C12.8238667,11.3644017 12.4192437,11.7367422 12.4192437,12.1822009 C12.4192437,12.6135983 12.8238667,13 13.309177,13 Z M13.309177,2.87593917 C12.8885352,2.87593917 12.5645995,3.2032838 12.5645995,3.55987572 L12.7906425,9.68493253 C12.7906425,9.93803405 13.0178722,10.1455773 13.309177,10.1455773 C13.6004818,10.1455773 13.8271181,9.93803405 13.8431369,9.68493253 L14.0377357,3.55987572 C14.0531612,3.17347407 13.7138,2.87593917 13.309177,2.87593917 Z M5.89306641,12.7193385 C9.12471075,12.7193385 11.232666,10.6084719 11.232666,7.8052319 C11.232666,5.01605314 9.12471075,2.87593917 5.89306641,2.87593917 L3.02036182,2.87593917 C2.58310794,2.87593917 2.33333333,3.1127297 2.33333333,3.52556641 L2.33333333,12.0691489 C2.33333333,12.4831104 2.58310794,12.7193385 3.02036182,12.7193385 L5.89306641,12.7193385 Z M5.78390126,4.00083482 C8.35996143,4.00083482 9.78029492,5.71236355 9.78029492,7.83841632 C9.78029492,9.94759566 8.31309161,11.6596868 5.78390126,11.6596868 L3.51991102,11.6596868 L3.51991102,4.00083482 L5.78390126,4.00083482 Z" id="Combined-Shape" fill="#000000"></path>
    </g>
</svg>