<?xml version="1.0" encoding="UTF-8"?>
<svg width="16px" height="16px" viewBox="0 0 16 16" version="1.1" xmlns="http://www.w3.org/2000/svg" xmlns:xlink="http://www.w3.org/1999/xlink" style="background: #FFFFFF;">
    <title>diogo russo</title>
    <defs></defs>
    <g id="favicon" stroke="none" stroke-width="1" fill="none" fill-rule="evenodd">
        <path d="M13.957,10.847 C14.331,10.847 14.622,10.566 14.643,10.223 L14.892,1.926 C14.913,1.403 14.476,1 13.957,1 C13.416,1 13,1.443 13,1.926 L13.291,10.223 C13.291,10.566 13.583,10.847 13.957,10.847" id="Fill-1" fill="#000000"></path>
        <path d="M4.572,12.854 L1.664,12.854 L1.664,2.479 L4.572,2.479 C7.881,2.479 9.704,4.798 9.704,7.677 C9.704,10.535 7.82,12.854 4.572,12.854 M4.572,1 L0.883,1 C0.321,1 0,1.321 0,1.88 L0,13.454 C0,14.014 0.321,14.334 0.883,14.334 L4.572,14.334 C8.722,14.334 11.428,11.475 11.428,7.677 C11.428,3.899 8.722,1 4.572,1" id="Fill-3" fill="#000000"></path>
        <path d="M14.144,12 C13.52,12 13,12.504 13,13.108 C13,13.692 13.52,14.215 14.144,14.215 C14.767,14.215 15.287,13.692 15.287,13.108 C15.287,12.504 14.767,12 14.144,12" id="Fill-6" fill="#000000"></path>
    </g>
</svg>