<svg xmlns="http://www.w3.org/2000/svg" width="16" height="16" viewBox="0 0 16 16" style="background:#fff">
  <g fill="none" fill-rule="evenodd">
    <path fill="#000" d="M13.957 10.847C14.331 10.847 14.622 10.566 14.643 10.223L14.892 1.926C14.913 1.403 14.476 1 13.957 1 13.416 1 13 1.443 13 1.926L13.291 10.223C13.291 10.566 13.583 10.847 13.957 10.847M4.572 12.854L1.664 12.854 1.664 2.479 4.572 2.479C7.881 2.479 9.704 4.798 9.704 7.677 9.704 10.535 7.82 12.854 4.572 12.854M4.572 1L.883 1C.321 1 0 1.321 0 1.88L0 13.454C0 14.014.321 14.334.883 14.334L4.572 14.334C8.722 14.334 11.428 11.475 11.428 7.677 11.428 3.899 8.722 1 4.572 1M14.144 12C13.52 12 13 12.504 13 13.108 13 13.692 13.52 14.215 14.144 14.215 14.767 14.215 15.287 13.692 15.287 13.108 15.287 12.504 14.767 12 14.144 12"/>
  </g>
</svg>
