<?xml version="1.0" encoding="UTF-8"?>
<svg width="16px" height="16px" viewBox="0 0 16 16" version="1.1" xmlns="http://www.w3.org/2000/svg" xmlns:xlink="http://www.w3.org/1999/xlink">
    <!-- Generator: Sketch 49.3 (51167) - http://www.bohemiancoding.com/sketch -->
    <title>Combined Shape</title>
    <desc>Created with Sketch.</desc>
    <defs></defs>
    <g id="Favicons" stroke="none" stroke-width="1" fill="none" fill-rule="evenodd">
        <path d="M0,16 L0,0 L16,0 L16,16 L0,16 Z M13.6666667,14 C14.212,14 14.6666667,13.542 14.6666667,13.0306667 C14.6666667,12.5026667 14.212,12.0613333 13.6666667,12.0613333 C13.1213333,12.0613333 12.6666667,12.5026667 12.6666667,13.0306667 C12.6666667,13.542 13.1213333,14 13.6666667,14 Z M13.6666667,2 C13.194,2 12.83,2.388 12.83,2.81066667 L13.084,10.0706667 C13.084,10.3706667 13.3393333,10.6166667 13.6666667,10.6166667 C13.994,10.6166667 14.2486667,10.3706667 14.2666667,10.0706667 L14.4853333,2.81066667 C14.5026667,2.35266667 14.1213333,2 13.6666667,2 Z M5.33333333,13.6673333 C8.96466667,13.6673333 11.3333333,11.1653333 11.3333333,7.84266667 C11.3333333,4.53666667 8.96466667,2 5.33333333,2 L2.10533333,2 C1.614,2 1.33333333,2.28066667 1.33333333,2.77 L1.33333333,12.8966667 C1.33333333,13.3873333 1.614,13.6673333 2.10533333,13.6673333 L5.33333333,13.6673333 Z M5.21066667,3.33333333 C8.10533333,3.33333333 9.70133333,5.362 9.70133333,7.882 C9.70133333,10.382 8.05266667,12.4113333 5.21066667,12.4113333 L2.66666667,12.4113333 L2.66666667,3.33333333 L5.21066667,3.33333333 Z" id="Combined-Shape" fill="#000000"></path>
    </g>
</svg>