<svg xmlns="http://www.w3.org/2000/svg" width="1920" height="1080" viewBox="0 0 1920 1080">
  <g fill="none" fill-rule="evenodd">
    <rect width="1920" height="1080" fill="#F3F3F3"/>
    <g opacity=".116" transform="translate(862 471)">
      <polygon fill="#231F20" points="0 188 196 188 88.506 13"/>
      <g transform="translate(8)">
        <path fill="#FEFEFE" d="M103.322842 106.420534C104.227056 106.64434 104.896843 107.312313 105.164758 108.11457 105.215874 108.33321 105.244075 108.555294 105.245838 108.775657 105.15947 109.231876 104.986736 109.68293 104.715296 110.101274 104.503784 110.426652 104.246444 110.684889 103.967954 110.891479 102.83989 111.232352 101.271177 110.588481 100.548512 109.522823 100.07966 108.522584 100.301748 107.3192 100.966248 106.577198 101.718877 106.303467 102.543774 106.227717 103.322842 106.420534M107.041926 102.063214C101.799957 99.3637758 93.736067 101.937539 93.8911757 108.40896 93.8947009 108.581118 93.9722553 108.696464 94.0938746 108.775657 93.8382978 109.858531 94.1062128 111.089461 95.0509658 112.411635 97.4886401 115.823807 100.955672 115.925381 104.762886 115.099022 105.189435 115.006057 105.501415 114.864887 105.72174 114.70478 108.140025 113.938677 110.387339 112.304897 110.99191 109.812048 111.746303 106.701152 109.83212 103.500734 107.041926 102.063214M67.282454 111.825609C66.9933877 111.787734 66.7131345 111.7292 66.4593203 111.66378 66.3941041 111.646564 66.3236002 111.636235 66.2513336 111.627627 66.0926997 111.546713 65.9358284 111.445139 65.7842449 111.314299 64.9364348 110.570577 64.6332678 109.508361 64.6861458 108.447868 65.1655727 107.57847 66.1050379 106.882951 67.0163015 106.89328 67.7724565 106.900167 68.530374 107.332284 69.0309521 107.919342 69.3817092 108.566657 69.5139042 109.31038 69.3041549 110.024836 69.0098009 111.019909 68.1849046 111.741251 67.282454 111.825609M71.4756767 101.840442C70.1466772 101.249939 68.6995835 101.091554 67.282454 101.296422 62.5287247 101.389387 57.0963949 104.70343 57.9512554 109.138222 57.979457 110.579184 58.6087048 111.897915 59.5798968 112.944636 59.7314803 113.268293 59.9236036 113.56957 60.1650796 113.84158 62.0563482 117.274411 65.8759 117.090202 69.3270687 115.298037 70.8446663 115.065623 72.2988104 114.525047 73.5114785 113.579899 74.9515218 112.457429 75.4662006 111.073278 75.3674951 109.647809 77.1600582 106.44567 76.7335093 103.081701 71.4756767 101.840442M120.304954 136.883558C120.304954 136.66836 120.278515 136.478987 120.2274 136.298221 120.102255 135.866104 119.661605 135.191244 118.13872 135.43743 117.380802 135.396112 116.633461 135.635412 116.007738 136.157051 115.764499 136.287891 115.600578 136.410123 115.478958 136.546128 115.253346 136.800922 115.048884 137.050551 114.839135 137.317396L114.518342 137.756399 114.728091 138.221226C114.75453 138.27976 114.784494 138.329686 114.817984 138.37789 114.380859 139.109562 113.619416 139.96863 113.214019 140.426571L112.984881 140.686529C112.325669 141.450911 111.58714 142.177418 110.790445 142.845391L110.714653 142.883266C110.323356 143.10535 109.967312 143.341207 109.62008 143.590836 107.829279 144.356939 105.916859 144.914731 104.376348 145.365785L103.567315 145.603363C100.202514 146.607045 95.7554766 147.862077 91.3102022 148.641953 91.1815324 148.648839 91.0528627 148.657447 90.9118548 148.681549 90.665091 148.722867 90.4200897 148.771072 90.2262038 148.814111 88.2009777 149.134325 86.3925512 149.330585 84.6986937 149.414943 82.6399782 149.519959 80.4437799 149.365017 77.6059957 148.926014 74.5602248 148.313131 71.5197417 147.450619 68.5779642 146.615653L66.1297143 145.908083C65.867087 145.770357 65.5586322 145.687721 65.2149255 145.661897 64.2789854 145.388166 63.3148438 145.088611 62.4899476 144.806272 61.5857343 144.288076 60.6674203 143.697574 59.7596819 143.050259L59.5234936 142.881545C59.1092829 142.590597 58.4377327 142.120606 57.8578376 141.654058 57.1968631 140.97059 56.6152054 140.249248 56.1216777 139.505525 56.3208514 138.718763 55.9965332 138.198845 55.7709205 137.949216 55.1416727 137.24509 54.0347606 137.164176 53.2133895 137.329447 52.1893196 137.527429 51.4243517 138.092107 51.163487 138.839273 51.0982709 139.028647 51.0489181 139.224907 51.0171913 139.426332 50.5712538 139.660467 50.1394171 139.992732 49.9754954 140.438622 49.8609264 140.751949 49.8856028 141.080771 50.0477619 141.366554 51.2992071 143.571898 53.4566282 145.353734 56.5341259 146.755101 57.7203549 147.510875 59.0599301 148.258041 60.6339309 149.039638 62.2079317 149.819514 63.9088397 150.430675 65.8388855 150.910996 69.8664239 152.761695 73.3634202 153.712008 77.1776842 153.996069 79.1835217 154.145846 81.3955833 154.152732 84.0059923 154.016728L84.6757799 154.076983C86.2198165 154.219874 87.8132059 154.366208 89.4083579 154.366208 89.5687544 154.366208 89.7256257 154.364487 89.8860222 154.361044 91.8742338 154.32489 94.0263671 153.971966 96.3265586 153.312601 97.5832916 153.167988 99.0497739 152.928689 100.440464 152.250386 101.506837 151.990427 102.416338 151.647833 103.21127 151.200222 103.264148 151.170955 103.313501 151.141688 103.366379 151.107256 104.015015 150.866235 104.630162 150.554629 105.22592 150.255074 105.594304 150.067422 105.964449 149.879769 106.33812 149.712776 106.863375 149.478641 107.40978 149.297875 107.956186 149.117109 108.599535 148.903633 109.242883 148.688436 109.85803 148.404375 110.624761 148.048008 111.225807 147.579738 111.807465 147.126962 112.110632 146.891106 112.412036 146.655249 112.625311 146.502028 116.654612 144.618619 118.963616 142.344411 119.686282 139.550286 119.747973 139.316151 119.758548 139.083738 119.719771 138.863376 120.012363 138.565542 120.331393 138.13859 120.382508 137.563582L120.382508 137.561861C120.401897 137.341498 120.375458 137.109085 120.304954 136.883558"/>
        <path fill="#FEFEFE" d="M169.551439,173.518792 C151.12523,172.212112 132.408192,173.370736 114.290438,174.491485 L111.722331,174.64987 C89.3708146,176.027135 66.3142584,175.762011 43.1960112,173.868273 C39.0204144,173.525678 35.2854674,173.355242 31.8096223,173.355242 C29.460078,173.355242 27.2303904,173.432713 25.0641563,173.587655 L24.5829668,173.622087 C19.2176158,174.004278 13.6795301,174.400241 8.59795743,172.685547 C18.1741572,159.961345 25.0800197,145.315859 31.7655574,131.143808 C33.0540172,128.41166 34.3389518,125.686398 35.6397497,122.981795 C38.1355898,117.792951 41.1231949,112.736669 44.0156197,107.845659 C47.0825418,102.660258 50.2534572,97.2958133 52.8656288,91.7282218 C57.2791764,82.3266704 62.1915396,72.4723433 67.8829714,61.6074485 C72.5926357,52.6207981 77.43802,43.0367591 80.7182166,32.9620698 C86.8485356,43.4447737 92.256189,51.9665974 97.656792,59.6655057 C98.8112943,61.3096151 100.004574,62.9261792 101.197853,64.5427433 C103.399339,67.5262424 105.676617,70.6130364 107.634864,73.8134546 C110.98204,79.2794728 113.83745,85.0674266 116.188757,90.0066412 C118.718086,95.3211604 121.235077,100.508283 124.210344,105.547349 C125.4283,107.611524 126.683271,109.656762 127.936479,111.700278 C129.787207,114.714765 131.699627,117.830826 133.453413,120.957216 C138.06966,129.181207 143.568968,137.553253 151.282101,148.097934 C152.792648,150.165552 154.319059,152.224562 155.843707,154.285294 C160.456428,160.517416 165.215445,166.945797 169.551439,173.518792 Z M177.421443,174.222918 L176.117119,174.092078 C171.151878,166.272659 165.5239,158.721807 160.075707,151.417141 C153.198046,142.191191 146.085959,132.651913 140.295822,122.54107 C138.46977,119.352703 136.585551,116.193603 134.69957,113.036224 C130.381203,105.800421 125.91654,98.3184321 122.285586,90.5971433 C119.999496,85.7336783 117.487792,80.5310619 114.628857,75.436905 C111.812224,70.4202193 108.570804,65.9596041 105.137262,61.2390303 L104.768879,60.731164 C95.8219266,48.4253063 88.2251253,35.6046959 82.60596,25.8106242 C82.0930437,24.9136807 80.8592245,24.6158473 79.6606572,25.0376345 C78.6771271,25.22873 77.5279126,25.8157889 77.2547098,26.8900552 C74.4222133,38.0080224 69.15028,48.6732139 64.4335654,57.7958692 C63.3337036,59.9220212 62.2285541,62.0395652 61.1234046,64.1571093 C57.1945717,71.6804163 53.1317812,79.4619604 49.5202161,87.3485209 C46.5132224,93.9129075 42.8470166,100.241438 39.3006677,106.361656 C37.2772041,109.854743 35.1849992,113.466619 33.2267518,117.100876 C30.5000114,122.15888 28.0235599,127.44241 25.628188,132.552061 C23.6805162,136.7114 21.6641031,141.01363 19.5295958,145.157474 C14.7159382,154.502213 9.4404797,164.349654 2.566344,173.021255 C0.861910862,173.794245 0.0070503956,174.565513 0.0282015824,175.3144 C0.0387771758,175.768898 0.33665639,176.151089 0.823133686,176.333576 C7.44521775,178.82126 14.39162,178.414967 21.1124096,178.024168 C24.1458423,177.845124 27.2815058,177.662636 30.3167011,177.757323 C34.2296706,177.876112 38.2078563,178.223872 42.0538471,178.561301 C43.6172724,178.699028 45.178935,178.835033 46.7423602,178.957265 C51.8873864,179.363558 57.1170173,179.447915 62.1739136,179.52883 L64.3665866,179.564983 C69.5451022,179.654505 75.192469,179.730255 81.0707364,179.730255 C86.8961257,179.730255 92.9471278,179.656227 98.9875542,179.444472 C104.703662,179.244769 110.497325,178.8643 116.102389,178.497603 C121.980657,178.111969 128.05986,177.712562 134.042121,177.521467 C144.506671,177.190923 158.226741,177.001549 171.537887,178.490717 C172.267603,178.571631 173.043147,178.552693 173.848655,178.432183 C174.518442,178.473501 175.28341,178.280684 175.903845,177.912266 C176.224638,177.798641 176.538381,177.671244 176.839785,177.530075 C176.927915,177.487035 179.009544,176.486797 178.792745,175.245537 C178.734579,174.914994 178.479002,174.341707 177.421443,174.222918 Z"/>
        <path fill="#231F20" d="M65.3709155 12.0925539C65.434369 12.1063266 65.4978226 12.1200992 65.5612761 12.1338719 65.8908821 12.0805029 66.2187255 12.0254123 66.5465689 11.9720433 64.854474 11.1525709 63.2787106 9.73054541 62.5525198 8.01240802 62.4291379 7.71973933 61.3962549 8.0055217 61.4033053 8.31368462 61.4685215 10.7273405 64.6958401 12.2543825 66.7668938 12.7553624 67.003082 12.5952554 67.2410329 12.4317053 67.4772211 12.2715983 64.3503707 12.5177843 61.1107139 8.57536486 61.8527681 5.65039951 61.9267972 5.3594524 60.7934461 5.52300255 60.7141292 5.83288705 59.8627939 9.18136122 63.5642516 13.0463095 66.9925064 12.7742998 67.1017876 12.7674135 68.1452461 12.3972737 67.7028338 12.2905357 65.7163848 11.8084931 62.6159734 10.331377 62.5525198 8.01240802 62.1700359 8.11398128 61.7857893 8.21383295 61.4033053 8.31368462 62.1471221 10.0765831 63.7352237 11.5313187 65.469621 12.37145 65.7445864 12.5040117 66.2222507 12.3938305 66.4549138 12.2096214L66.4989787 12.1734682C66.5289429 12.1493661 66.664663 12.0529576 66.6276485 11.9858159 66.5923965 11.9203959 66.5553819 11.8566974 66.5201299 11.7912773 66.352683 11.484836 65.2545839 11.8790779 65.3709155 12.0925539M62.7261358 28.186061C63.0451662 27.9743066 63.2020375 27.7040185 62.9693745 27.4561109 59.5516952 23.8098033 55.1980759 19.9861729 50.3949939 17.2213145 50.3544541 17.1713887 50.289238 17.1386787 50.2152088 17.1197413 48.5372147 16.1642641 46.8045799 15.339627 45.0402185 14.699199 44.9520885 14.6268926 44.8604334 14.5563078 44.7723034 14.4822799 44.5960435 14.3411103 44.2981643 14.3049571 43.9738461 14.3376671 43.1859644 14.0880379 42.3910323 13.8745619 41.5943376 13.7041255 41.5590856 13.6800233 41.5238336 13.6593644 41.4885817 13.6369838 41.3440486 13.5371322 41.1025725 13.5199164 40.8328949 13.5577911 40.2353739 13.4510531 39.6343276 13.3701388 39.035044 13.3150483 38.5203651 13.2685656 37.0785592 13.7161765 37.5297845 14.4271893 37.6126267 14.5580294 37.707807 14.6785401 37.7924118 14.8076586 37.6760803 14.9574361 37.6655047 15.1140999 37.8364768 15.2449401 38.0162618 15.3843881 38.2013347 15.5169498 38.3811198 15.6546762 43.4133397 22.5478847 51.8174112 25.9979322 59.1321967 30.3741899 59.4512271 30.718506 59.7684949 31.0628221 60.0857627 31.4088598 60.2761233 31.6154495 60.6779959 31.6550458 61.0886814 31.5896258 61.5769213 31.904675 62.0598734 32.224889 62.5322499 32.5554325 62.9781874 32.865317 64.8958951 32.4349218 64.592728 31.6946422 64.0850996 30.4499395 63.4576143 29.2792647 62.7261358 28.186061"/>
        <path fill="#231F20" d="M65.3469441 3.47277228C65.220037 3.31955161 64.9485968 3.25757471 64.640142 3.26446103 63.6654248 2.14887684 62.6748442 1.19856438 61.9927184.597732766 61.735379.370484134 61.3035422.339495684 60.8840437.430739453 60.1525652.141513921 58.5961903.718243404 58.8852565 1.27087076 59.0421278 1.56870419 59.2166251 1.96294614 59.4157988 2.37268231 58.9575231 4.41619842 59.3823094 6.28067015 60.3764152 7.86280267 60.5491499 8.33795891 60.7395106 8.81311514 60.9386843 9.29343611 61.0373898 9.57405374 61.4181112 9.66874067 61.8411349 9.6394738 62.1795539 9.96313094 62.5426493 10.2661291 62.9286584 10.5501899 63.0679037 10.9771419 63.3076172 11.3180148 63.7059645 11.4746787 63.8998504 11.5504282 64.1994922 11.5728088 64.5097096 11.5400987L64.6524801 11.6141267C63.8258213 12.2304525 64.9750357 12.774472 65.896875 12.3285826 65.9550407 12.2993157 66.0043935 12.2683273 66.0590341 12.2390604 66.4996838 12.4060537 66.9509091 12.5541097 67.4074222 12.6763419 67.8709857 12.8002957 69.4467491 12.4835249 69.2616763 11.7673474 68.4685068 8.67711027 67.4268108 5.97078565 65.3469441 3.47277228M113.344098 16.5705571C108.089791 18.717368 103.085773 22.723486 102.311992 28.1447431 102.193898 28.3306738 102.075804 28.5148829 101.959472 28.7008136 101.730334 29.0675103 101.896019 29.2482762 102.216812 29.3102531 102.190373 30.2158045 102.280265 31.1557875 102.505878 32.1302021 102.668037 32.8343285 104.0129 32.4039334 104.377758 32.1956221 109.209041 29.4410933 112.501576 25.1113182 113.849964 19.9414118 114.285326 18.9721619 114.662522 17.9736452 114.960402 16.9389753 115.182489 16.1745936 113.640215 16.4500464 113.344098 16.5705571M91.5680704 19.3824146C91.7566685 19.3169945 91.9276405 19.2274723 92.0545477 19.1172912 92.0651233 19.1465581 92.0809867 19.1741033 92.0950874 19.2016486 91.9223528 19.2687903 91.7460929 19.3290456 91.5680704 19.3824146M105.970266 3.13069422C105.836308 1.83434407 104.84749 1.2386772 103.68065 1.10955866 103.248813.9115769 102.727084.822054711 102.106649.873702128 101.482689.925349544 100.911607 1.09406444 100.388115 1.3454152 99.7659179 1.15431976 98.6537179 1.57782857 98.4721703 2.19071125 98.3523135 2.59356109 98.2113056 2.98435988 98.0632473 3.3717155 97.5785326 4.0448535 97.1925235 4.79374103 96.899932 5.55295805 93.9246651 8.52957082 92.140915 12.5546261 90.7026343 16.7346237 90.5334248 16.9704802 90.3871291 17.2201094 90.269035 17.4731818 89.5728084 17.7968389 89.6397872 18.1583708 90.0187459 18.3529094 90.00112 18.5336754 90.0099329 18.7144413 90.0434223 18.8952073 90.0469475 18.9933374 90.0716239 19.0794164 90.1139263 19.1517228 90.2002936 19.4065167 90.3395389 19.6561459 90.5616264 19.8920024 91.266666 20.6477763 93.1755606 20.4308571 93.6779013 19.5046468 93.771319 19.4633289 93.8594489 19.4151246 93.9387659 19.3497046 94.5733015 18.834952 95.1690599 18.2892109 95.7348542 17.7228109 97.0550407 16.6726468 98.2465576 15.4348304 99.3217429 14.2882578 101.643086 11.8160681 104.334574 8.79469422 105.074866 5.38252158 105.608933 4.71454833 106.056633 3.95533131 105.970266 3.13069422"/>
        <path fill="#231F20" d="M90.8390595,19.4168462 C91.2955726,19.5012036 91.7838125,19.4925957 92.1839224,19.2291939 C92.4536001,19.0518711 92.9700415,18.4544827 92.5646438,18.1755866 C91.8455034,17.681493 90.7650303,19.0880243 91.5000341,19.3875793 C91.7503231,19.4908742 92.1451453,19.3789714 92.3125921,19.1741033 C92.4183481,19.0449848 92.5100032,18.7695319 92.5822698,18.6989471 C92.4571253,18.7712535 92.3319807,18.8435599 92.2068362,18.9158663 C92.2156492,18.9141447 92.2244622,18.9107015 92.2350378,18.9072584 C92.4253985,18.8435599 92.6897883,18.7144413 92.7109395,18.4837495 C92.7320907,18.2771599 92.524104,18.1394334 92.3302181,18.1256608 C92.480039,18.1377119 92.5117658,18.3029836 92.4077725,18.0895076 C92.2843906,17.8364353 91.988274,17.7933957 91.7291719,17.8605374 C91.5493868,17.9070201 91.1351761,18.1394334 91.2567954,18.3890626 C91.4083789,18.6989471 91.5423364,18.9055368 91.9301082,18.9313605 C91.961835,18.6714018 91.9935617,18.4114432 92.0270511,18.1514845 C91.7943881,18.2289556 91.623416,18.3356936 91.5000341,18.5405617 C91.4683073,18.5939307 91.4453935,18.6490213 91.4189545,18.7041119 C91.4066163,18.7299356 91.3131986,18.9020936 91.3537383,18.8521678 C91.623416,18.781583 91.8948562,18.7109982 92.1645338,18.6404134 C92.1610086,18.6386918 92.159246,18.6369702 92.1557208,18.6352486 C92.2350378,18.7092766 92.3161173,18.7850261 92.3971969,18.8590541 C92.4236359,18.9330821 92.3531319,18.9916158 92.3971969,18.9451331 C92.4183481,18.921031 92.4412619,18.8521678 92.4571253,18.8229009 C92.4782764,18.7833046 92.515291,18.7419866 92.5293918,18.6989471 C92.524104,18.7092766 92.5170536,18.7196061 92.5100032,18.7299356 C92.5787446,18.6507429 92.5293918,18.6800097 92.3619449,18.8194578 C92.2103614,18.8452815 92.0587779,18.8728267 91.9071944,18.8986505 C91.9107196,18.8986505 91.9160074,18.8986505 91.9195326,18.8986505 C91.8102515,18.847003 91.7027329,18.7953556 91.5934518,18.7419866 C91.5811136,18.7213277 91.5687754,18.7006687 91.5546746,18.6800097 C91.5634876,18.6094249 91.5723006,18.5388401 91.5811136,18.4682553 C91.5758258,18.4837495 91.4876959,18.7161629 91.4647821,18.7023903 C91.4630195,18.7006687 91.5388112,18.6627939 91.535286,18.6645155 C91.596977,18.6490213 91.614603,18.6714018 91.5247104,18.654186 C91.4312927,18.6352486 91.3343498,18.6283623 91.240932,18.6111465 C90.9800674,18.5629422 90.6028712,18.7092766 90.4900649,18.9520195 C90.366683,19.2188644 90.6028712,19.3720851 90.8390595,19.4168462"/>
      </g>
    </g>
  </g>
</svg>
