<svg xmlns="http://www.w3.org/2000/svg" width="600" height="600" viewBox="0 0 600 600">
  <g fill="none" fill-rule="evenodd" font-family="BerinjelaMundo-Bold, Berinjela Mundo" font-weight="bold">
    <text fill="#000" font-size="105" letter-spacing="-2.05" transform="translate(128 170)">
      <tspan x="0" y="84">j</tspan>
    </text>
    <text fill="#000" font-size="85" letter-spacing="-2.05" transform="translate(270 263)">
      <tspan x="0" y="68">7</tspan>
    </text>
    <text fill="#000" font-size="85" letter-spacing="-2.05" transform="translate(112 46)">
      <tspan x="0" y="68">a</tspan>
    </text>
    <text fill="#000" font-size="95" letter-spacing="-2.291" transform="translate(-203 235)">
      <tspan x="600" y="76">h</tspan>
    </text>
    <g fill="#000" font-size="95" letter-spacing="-2.291" transform="translate(207 -63)">
      <text>
        <tspan x="0" y="76">i</tspan>
      </text>
      <text>
        <tspan x="0" y="676">i</tspan>
      </text>
    </g>
    <g fill="#000" font-size="85" letter-spacing="-2.05" transform="translate(-57 14)">
      <text>
        <tspan x="0" y="68">t</tspan>
      </text>
      <text>
        <tspan x="600" y="68">t</tspan>
      </text>
    </g>
    <g fill="#000" font-size="85" letter-spacing="-2.05" transform="translate(-55 -110)">
      <text>
        <tspan x="0" y="668">g</tspan>
      </text>
      <text>
        <tspan x="601" y="668">g</tspan>
      </text>
    </g>
    <text fill="#000" font-size="95" letter-spacing="-2.291" transform="translate(277 90)">
      <tspan x="0" y="76">U</tspan>
    </text>
    <g fill="#000" font-size="85" letter-spacing="-2.05" transform="translate(-37 -256)">
      <text>
        <tspan x="0" y="668">f</tspan>
      </text>
      <text>
        <tspan x="600" y="668">f</tspan>
      </text>
    </g>
    <text fill="#000" font-size="95" letter-spacing="-2.291" transform="translate(164 -218)">
      <tspan x="0" y="676">c</tspan>
    </text>
    <g fill="#000" font-size="95" letter-spacing="-2.291" transform="translate(386 -39)">
      <text>
        <tspan x="0" y="76">8</tspan>
      </text>
      <text>
        <tspan x="0" y="676">8</tspan>
      </text>
    </g>
    <g fill="#000" font-size="85" letter-spacing="-2.05" transform="translate(-53 174)">
      <text>
        <tspan x="0" y="68">4</tspan>
      </text>
      <text>
        <tspan x="600" y="68">4</tspan>
      </text>
    </g>
    <text fill="#000" font-size="95" letter-spacing="-2.291" transform="translate(388 399)">
      <tspan x="0" y="77">E</tspan>
    </text>
    <text fill="#000" font-size="95" letter-spacing="-2.532" transform="translate(432 90)">
      <tspan x="0" y="84">v</tspan>
    </text>
  </g>
</svg>
