<?xml version="1.0" encoding="UTF-8"?>
<svg width="74px" height="60px" viewBox="0 0 74 60" version="1.1" xmlns="http://www.w3.org/2000/svg" xmlns:xlink="http://www.w3.org/1999/xlink">
    <!-- Generator: Sketch 48.2 (47327) - http://www.bohemiancoding.com/sketch -->
    <title>_COMPUTER</title>
    <desc>Created with Sketch.</desc>
    <defs>
        <polygon id="path-1" points="0.164415796 0.782 70.4211847 0.782 70.4211847 32.3806967 0.164415796 32.3806967"></polygon>
    </defs>
    <g id="Page-1-Copy" stroke="none" stroke-width="1" fill="none" fill-rule="evenodd">
        <g id="_COMPUTER">
            <path d="M53.8549909,44.7125629 L6.04957554,44.7125629 C5.33791139,44.7125629 4.67529785,44.5860655 4.06259547,44.3296518 C3.44903254,44.0749476 2.91549956,43.7219514 2.46113599,43.2698086 C2.00591189,42.8185205 1.64964955,42.2877442 1.3932095,41.6783344 C1.13590892,41.0697792 1.0076889,40.4321639 1.0076889,39.7646336 L1.0076889,6.00862725 C1.0076889,4.63339521 1.50163717,3.4556017 2.49125479,2.47353731 C3.4782908,1.49232762 4.66497141,1.00086807 6.04957554,1.00086807 L60.6162306,1.00086807 C61.9999742,1.00086807 63.1866548,1.49232762 64.1745513,2.47353731 C65.1633084,3.4556017 65.6581172,4.63339521 65.6581172,6.00862725 L65.6150904,25.9738511 L66.6554797,25.9738511 L66.6666667,6.00862725 C66.6666667,5.18382991 66.5074673,4.40860588 66.1916502,3.68124574 C65.8749726,2.95559503 65.4404014,2.31712496 64.887076,1.76669026 C64.3328902,1.21711027 63.6909295,0.784625863 62.959473,0.470091748 C62.227156,0.156412345 61.4466489,0 60.6162306,0 L6.04957554,0 C5.21915728,0 4.43778962,0.156412345 3.70633312,0.470091748 C2.97487662,0.784625863 2.33205544,1.21711027 1.77873011,1.76669026 C1.22454424,2.31712496 0.789973022,2.95559503 0.474155921,3.68124574 C0.157478282,4.40860588 0,5.18382991 0,6.00862725 L0,39.7646336 C0,40.5894309 0.157478282,41.364655 0.474155921,42.0911604 C0.789973022,42.8185205 1.22454424,43.4467341 1.77873011,43.9766557 C2.33205544,44.5065773 2.97487662,44.9288051 3.70633312,45.2424845 C4.43778962,45.5578734 5.21915728,45.7142857 6.04957554,45.7142857 L53.8188483,45.7142857 L53.8549909,44.7125629 Z" id="Fill-1" fill="#000000"></path>
            <path d="M50.4283315,26.8158664 C50.4283315,27.6592504 50.270309,28.4633056 49.9559723,29.2254101 C49.6424897,29.9883886 49.2205269,30.6613479 48.691792,31.24254 C48.1613488,31.8254801 47.5326754,32.2878118 46.8066259,32.6286613 C46.0805764,32.9703848 45.3058389,33.1617849 44.4815592,33.2011137 L44.3047448,33.2011137 L25.2882278,33.2011137 C23.8361289,33.2011137 22.6095324,32.6889655 21.6092924,31.664669 C20.6081983,30.6412465 20.1076513,29.3862212 20.1076513,27.899593 C20.1076513,26.4147127 20.6081983,25.1588134 21.6092924,24.1353909 C22.6095324,23.1110945 23.8361289,22.5989462 25.2882278,22.5989462 C25.9160471,22.5989462 26.5635124,22.7195545 27.2314779,22.9607711 L27.8797974,23.2622918 L27.9378813,22.5386421 C27.9763192,21.535321 28.1932799,20.5914301 28.5853466,19.7069693 C28.9774133,18.8242565 29.4976064,18.061278 30.1459259,17.4180338 C30.7933912,16.7765376 31.5578786,16.2643893 32.4419506,15.8824631 C33.3251684,15.5014108 34.2562201,15.3100107 35.2385223,15.3100107 C36.7692055,15.3100107 38.1615121,15.7618548 39.4180048,16.665543 C40.6736433,17.5692312 41.5765071,18.7639524 42.1265964,20.2497066 L42.3034108,20.6718356 L42.7159777,20.5512273 C42.9508761,20.5110245 43.1857745,20.4813095 43.421527,20.4612081 C43.6564253,20.4402327 43.8930321,20.429745 44.1287846,20.429745 C44.9915022,20.429745 45.806386,20.6019177 46.5708734,20.9418933 C47.3370691,21.2844907 48.0041804,21.7363348 48.5730616,22.2974255 C49.1419427,22.8611382 49.5929475,23.5323495 49.9277845,24.3163033 C50.2600589,25.0985093 50.4283315,25.9322796 50.4283315,26.8158664 M46.9834403,19.9490599 C46.1010766,19.5479062 45.1478164,19.3460184 44.1287846,19.3460184 C43.9323241,19.3460184 43.7350095,19.3565061 43.5402574,19.3757335 C43.3429428,19.3967089 43.1464824,19.4272979 42.9508761,19.4666267 C42.2829106,17.900467 41.2527745,16.6454416 39.8596137,15.7015507 C38.4664529,14.7585337 36.9246655,14.2857143 35.2385223,14.2857143 C34.1793443,14.2857143 33.1680001,14.4771144 32.2061981,14.8581667 C31.244396,15.2409669 30.4004703,15.7723425 29.6744208,16.4549155 C28.9483714,17.1383624 28.3401981,17.930182 27.849047,18.8338702 C27.3587501,19.7375584 27.0555177,20.7312658 26.9367872,21.8158664 C26.4661363,21.6559293 25.9160471,21.5746498 25.2882278,21.5746498 C24.424656,21.5746498 23.6200224,21.7459485 22.875181,22.086798 C22.1286313,22.4285215 21.4709159,22.8803656 20.902889,23.4423303 C20.3331537,24.0051689 19.8812947,24.6676405 19.5481661,25.429745 C19.2150375,26.1935975 19.047619,27.0168802 19.047619,27.899593 C19.047619,28.7840537 19.2150375,29.6073364 19.5481661,30.3694409 C19.8812947,31.1324194 20.3331537,31.8062527 20.902889,32.3874448 C21.4709159,32.9703848 22.1286313,33.4318426 22.875181,33.7735661 C23.6200224,34.1152895 24.424656,34.2857143 25.2882278,34.2857143 L44.5404974,34.2857143 L45.0111483,34.2254101 C46.8553139,33.9841936 48.385997,33.1705246 49.6031976,31.7861513 C50.819544,30.40003 51.4285714,28.742977 51.4285714,26.8158664 C51.4285714,25.8125453 51.2423611,24.848553 50.8690862,23.9238894 C50.4958114,23.0009739 49.9764725,22.2074063 49.308507,21.5449347 C48.6413956,20.8824631 47.8666581,20.3510875 46.9834403,19.9490599" id="Fill-3" fill="#000000"></path>
            <path d="M65.7142857,6.2189176 C65.7142857,5.88249634 65.5358588,5.71428571 65.1790049,5.71428571 L3.39242371,5.71428571 C3.03556981,5.71428571 2.85714286,5.88249634 2.85714286,6.2189176 C2.85714286,6.51795872 3.03556981,6.66666667 3.39242371,6.66666667 L65.1790049,6.66666667 C65.5358588,6.66666667 65.7142857,6.51795872 65.7142857,6.2189176" id="Fill-5" fill="#000000"></path>
            <path d="M58.0952381,32.8571429 C58.0952381,33.1743472 58.2519699,33.3333333 58.5680027,33.3333333 L71.9081877,33.3333333 C72.2225077,33.3333333 72.3809524,33.1743472 72.3809524,32.8571429 C72.3809524,32.5391705 72.2225077,32.3809524 71.9081877,32.3809524 L58.5680027,32.3809524 C58.2519699,32.3809524 58.0952381,32.5391705 58.0952381,32.8571429" id="Fill-7" fill="#000000"></path>
            <path d="M52.7918256,58.9641258 L20.5406412,58.9641258 C20.2217601,58.9641258 20.0623195,58.8004736 20.0623195,58.475823 C20.0623195,58.1502878 20.2217601,57.9875202 20.5406412,57.9875202 L52.7918256,57.9875202 C53.1098402,57.9875202 53.2701473,58.1502878 53.2701473,58.475823 C53.2701473,58.8004736 53.1098402,58.9641258 52.7918256,58.9641258 Z M30.6815803,48.5770764 L42.1630331,48.5929994 L43.7132459,56.8065706 L29.1408993,56.8065706 L30.6815803,48.5770764 Z M52.7918256,56.951646 L44.7860035,56.951646 L42.8172593,47.6942392 L29.761331,47.6190476 L28.0438789,56.951646 L20.5406412,56.951646 C20.1021797,56.951646 19.7434384,57.0940677 19.4661505,57.3780264 C19.186263,57.6619851 19.047619,58.0282121 19.047619,58.475823 C19.047619,58.9225493 19.186263,59.2887764 19.4661505,59.5727351 C19.7434384,59.8575784 20.1021797,60 20.5406412,60 L52.7918256,60 C53.2302871,60 53.5881619,59.8575784 53.8671828,59.5727351 C54.1453373,59.2887764 54.2857143,58.9225493 54.2857143,58.475823 C54.2857143,58.0282121 54.1453373,57.6619851 53.8671828,57.3780264 C53.5881619,57.0940677 53.2302871,56.951646 52.7918256,56.951646 Z" id="Fill-9" fill="#000000"></path>
            <g id="Group-13" transform="translate(2.857143, 26.666667)">
                <mask id="mask-2" fill="white">
                    <use xlink:href="#path-1"></use>
                </mask>
                <g id="Clip-12"></g>
                <path d="M69.4141487,29.2678647 C69.4141487,29.8549825 69.2070174,30.3543308 68.7918955,30.7659098 C68.377633,31.1766366 67.8739861,31.382 67.2826736,31.382 L56.5591196,31.382 C55.9669477,31.382 55.4641603,31.1766366 55.0481789,30.7659098 C54.6339164,30.3543308 54.4276446,29.8549825 54.4276446,29.2678647 L54.4276446,27.458792 C54.5144506,27.5252581 54.6287596,27.5644561 54.7826039,27.5644561 L68.1111986,27.5644561 C68.466158,27.5644561 68.6440674,27.3889173 68.6440674,27.0361353 C68.6440674,26.6842055 68.466158,26.5078145 68.1111986,26.5078145 L54.7826039,26.5078145 C54.6287596,26.5078145 54.5144506,26.5470125 54.4276446,26.6134787 L54.4276446,3.83603509 C54.4276446,3.28896742 54.6339164,2.80836591 55.0481789,2.3976391 C55.4641603,1.98606015 55.9669477,1.78069674 56.5591196,1.78069674 L67.2826736,1.78069674 C67.8739861,1.78069674 68.377633,1.98606015 68.7918955,2.3976391 C69.2070174,2.80836591 69.4141487,3.28896742 69.4141487,3.83603509 L69.4141487,29.2678647 Z M69.5035331,1.66310276 C68.890734,1.07598496 68.1498746,0.782 67.2826736,0.782 L56.5591196,0.782 C55.6901998,0.782 54.9493403,1.07598496 54.3382602,1.66310276 C53.7254611,2.25107268 53.4203508,2.97623559 53.4203508,3.83603509 L53.4203508,13.9976892 L0.637981417,13.9976892 C0.321698026,13.9976892 0.164415796,14.1544812 0.164415796,14.467213 C0.164415796,14.819995 0.321698026,14.9955338 0.637981417,14.9955338 L53.4203508,14.9955338 L53.4203508,29.2678647 C53.4203508,30.1293684 53.7254611,30.8630526 54.3382602,31.4706216 C54.9493403,32.0773383 55.6901998,32.3806967 56.5591196,32.3806967 L67.2826736,32.3806967 C68.1498746,32.3806967 68.890734,32.0773383 69.5035331,31.4706216 C70.1146132,30.8630526 70.4214425,30.1293684 70.4214425,29.2678647 L70.4214425,3.83603509 C70.4214425,2.97623559 70.1146132,2.25107268 69.5035331,1.66310276 Z" id="Fill-11" fill="#000000" mask="url(#mask-2)"></path>
            </g>
            <path d="M68.182495,44.4674509 L67.8215292,44.8213084 L64.6966465,47.8846544 L62.0530516,45.3512399 L62.1132126,45.3512399 L61.1515091,44.4674509 C60.7513078,44.0751306 60.5498994,43.6426381 60.5498994,43.1708281 C60.5498994,42.7007276 60.7303823,42.2878938 61.0913481,41.9340363 C61.4523139,41.5810336 61.8734406,41.4041048 62.3529846,41.4041048 C62.8735077,41.4041048 63.3042254,41.5810336 63.6460094,41.9340363 C63.9851777,42.2878938 64.1569416,42.7007276 64.1569416,43.1708281 L65.1779343,43.1708281 C65.1779343,42.7007276 65.3584172,42.2878938 65.7185111,41.9340363 C66.0794769,41.5810336 66.4997317,41.4041048 66.9801476,41.4041048 C67.4614353,41.4041048 67.882562,41.5810336 68.241784,41.9340363 C68.6027498,42.2878938 68.7832327,42.7007276 68.7832327,43.1708281 C68.7832327,43.6426381 68.5826962,44.0751306 68.182495,44.4674509 M68.7527163,39.4305373 C68.652448,39.5296858 68.6236754,39.6570403 68.6637827,39.8134556 C68.6637827,39.9305533 68.712609,40.0399585 68.8137492,40.1382523 C68.9131455,40.236546 69.0439302,40.2656068 69.2043595,40.2254346 L69.4598256,40.2109042 L68.6977867,40.9587914 C68.2130114,40.5946772 67.6445339,40.4023633 66.9801476,40.4023633 C65.9792086,40.4023633 65.2180416,40.7955383 64.6966465,41.5810336 C64.0959088,40.7955383 63.3146881,40.4023633 62.3529846,40.4023633 C61.5517103,40.4023633 60.8812207,40.6681838 60.3406439,41.1981153 C59.7991952,41.7280468 59.5289068,42.3861876 59.5289068,43.1708281 C59.5289068,43.7221278 59.6684105,44.1930831 59.9500335,44.5854034 L59.8297116,44.6443796 L62.127163,46.8692373 L61.4217975,47.5598577 L59.5289068,47.6487494 C59.2080483,47.6487494 59.047619,47.8256782 59.047619,48.1795357 C59.047619,48.5710012 59.2281019,48.7282712 59.5899396,48.6504909 L60.3406439,48.6197207 L60.1898055,48.7675887 C59.9892689,48.9641762 59.9892689,49.2000812 60.1898055,49.474449 C60.2700201,49.553084 60.3894702,49.5924015 60.5498994,49.5924015 C60.7513078,49.5924015 60.869886,49.553084 60.9108652,49.474449 L60.9954393,49.3923951 L60.9710262,49.946259 C60.9710262,50.2992617 61.1515091,50.4761905 61.5124748,50.4761905 C61.8734406,50.4761905 62.0530516,50.2992617 62.0530516,49.946259 L62.0530516,48.3556097 L62.8534541,47.5718239 L64.6966465,49.3573512 L69.3246814,44.8213084 L69.2636486,44.8213084 C69.6246144,44.3494984 69.8050973,43.8007628 69.8050973,43.1708281 C69.8050973,42.627221 69.6664655,42.1485731 69.4057679,41.7263374 L70.1102616,41.0152035 L70.1050302,41.0502473 C70.0248156,41.4434223 70.166063,41.6391551 70.5261569,41.6391551 L70.5871898,41.6391551 C70.8661972,41.6391551 71.0466801,41.5023986 71.1268947,41.2271761 L71.4285714,39.047619 L69.0840376,39.2245478 C68.9637156,39.2638653 68.8538565,39.3330983 68.7527163,39.4305373" id="Fill-14" fill="#000000"></path>
        </g>
    </g>
</svg>