<?xml version="1.0" encoding="UTF-8"?>
<svg width="80px" height="60px" viewBox="0 0 80 60" version="1.1" xmlns="http://www.w3.org/2000/svg" xmlns:xlink="http://www.w3.org/1999/xlink">
    <!-- Generator: Sketch 48.2 (47327) - http://www.bohemiancoding.com/sketch -->
    <title>_ROCKET</title>
    <desc>Created with Sketch.</desc>
    <defs></defs>
    <g id="Page-1-Copy" stroke="none" stroke-width="1" fill="none" fill-rule="evenodd">
        <g id="_ROCKET" fill="#000000">
            <path d="M49.3563478,30.4466957 C47.618087,31.8049565 45.7598261,33.244087 43.7824348,34.7623478 C41.8041739,36.2806087 39.925913,37.7093043 38.1485217,39.0475652 C36.3702609,40.3866957 34.8224348,41.5545217 33.5041739,42.5536522 C32.1850435,43.5527826 31.305913,44.211913 30.8667826,44.5310435 C30.692,44.4727826 30.432,44.358 30.1311304,44.2145217 C30.0433043,44.1406087 29.9528696,44.0927826 29.8563478,44.084087 C29.8302609,44.0710435 29.8137391,44.0649565 29.7876522,44.051913 C29.3076522,43.811913 28.7476522,43.4727826 28.1093913,43.0336522 C27.3502609,42.4736522 26.5111304,41.664087 25.592,40.6058261 C24.6728696,39.5475652 23.8137391,38.158 23.0154783,36.4406087 L23.8015652,35.4501739 L23.8537391,35.4814783 L25.5372174,33.2658261 L42.2546087,12.2266957 C43.2128696,11.3075652 44.1215652,10.4988696 44.9806957,9.79886957 C45.8398261,9.1006087 46.9085217,8.3606087 48.1876522,7.58147826 C49.465913,6.80234783 50.9146087,6.08234783 52.5328696,5.42408696 C54.1511304,4.76495652 55.9285217,4.22495652 57.8667826,3.80495652 C59.8050435,3.38582609 61.892,3.19713043 64.1302609,3.23626087 C64.3702609,4.31452174 64.4493913,5.41452174 64.3702609,6.53278261 C64.2893913,7.65191304 64.1302609,8.7606087 63.8902609,9.85886957 C63.6502609,10.9588696 63.3511304,12.0075652 62.9911304,13.0049565 C62.632,14.0049565 62.252,14.9232174 61.8528696,15.7623478 C60.8937391,17.9206087 59.8746087,19.778 58.7954783,21.3362609 C57.7172174,22.8945217 56.9172174,23.9736522 56.3989565,24.5727826 C56.0389565,24.9727826 55.2093913,25.711913 53.9111304,26.7910435 C52.6128696,27.8693043 51.0946087,29.0884348 49.3563478,30.4466957 Z M38.838087,50.1649565 L33.3241739,54.0006087 L36.1406957,49.5058261 L33.3833043,44.231913 L39.6172174,39.6162609 L38.838087,50.1649565 Z M25.3528696,46.9284348 C25.1128696,46.8084348 24.7728696,46.5988696 24.3337391,46.2988696 C23.8937391,45.9997391 23.4346087,45.6206087 22.9554783,45.1606087 C22.4754783,44.7023478 21.9963478,44.1823478 21.5163478,43.6023478 C21.0372174,43.0232174 20.6372174,42.3736522 20.318087,41.6545217 C20.6372174,41.2553913 20.9772174,40.8353913 21.3363478,40.3953913 C21.812,39.831913 22.2867826,39.238 22.7624348,38.6293043 C23.2893913,39.6136522 23.8589565,40.4832174 24.4833043,41.2049565 C25.5024348,42.384087 26.4702609,43.3127826 27.3902609,43.991913 C27.8163478,44.3066957 28.2085217,44.571913 28.5746087,44.7962609 L25.3528696,46.9284348 Z M18.3998261,30.8658261 L13.7850435,33.6232174 L17.7406957,28.1093043 L28.3493913,27.5693043 L23.8528696,33.4710435 L23.5450435,33.858 L18.3998261,30.8658261 Z M57.2972174,25.411913 C57.6572174,24.9727826 58.1563478,24.3136522 58.7954783,23.4345217 C59.4346087,22.5562609 60.1146087,21.5162609 60.8337391,20.318 C61.5528696,19.1188696 62.252,17.8006087 62.9311304,16.3623478 C63.6102609,14.9232174 64.1798261,13.4249565 64.6398261,11.8666957 C65.0989565,10.3084348 65.3885217,8.7406087 65.5085217,7.16234783 C65.6285217,5.58408696 65.5085217,4.03626087 65.1493913,2.51713043 L65.0893913,2.09713043 L64.6102609,2.03713043 L63.4111304,2.03713043 C60.0546087,2.03713043 57.0276522,2.50756522 54.3311304,3.44582609 C51.6337391,4.38495652 49.3354783,5.43365217 47.438087,6.59191304 C45.5398261,7.75191304 44.072,8.8206087 43.0337391,9.79886957 C41.9937391,10.7788696 41.4346087,11.3275652 41.3546087,11.4466957 L29.5354783,26.3206087 L17.0815652,26.9701739 L9.35026087,37.6388696 L18.3998261,32.244087 L22.7676522,34.8362609 L21.6363478,36.2606087 L21.8163478,36.6206087 C21.9311304,36.9049565 22.0554783,37.1666957 22.1763478,37.4353913 C21.9476522,37.7093043 21.7102609,38.0093043 21.4572174,38.358 C21.1363478,38.718 20.7876522,39.1275652 20.4076522,39.5866957 C20.0276522,40.0466957 19.618087,40.5562609 19.1789565,41.1153913 L18.9398261,41.4145217 L19.0589565,41.7145217 C19.458087,42.7536522 19.9885217,43.6727826 20.6476522,44.4710435 C21.3067826,45.2710435 21.9554783,45.9397391 22.5954783,46.4788696 C23.2337391,47.0188696 23.8033043,47.438 24.3033043,47.738 C24.8024348,48.0371304 25.0728696,48.1866957 25.1128696,48.1866957 L25.412,48.3666957 L29.7598261,45.4127826 C30.3763478,45.664087 30.7276522,45.7901739 30.805913,45.7901739 L31.105913,45.9093043 L31.345913,45.7301739 C31.452,45.6493043 31.8050435,45.3875652 32.3937391,44.9510435 L34.7624348,49.4458261 L29.1885217,58.3762609 L40.0363478,50.8249565 L40.8928696,38.5171304 C41.8128696,37.8110435 42.7641739,37.0806087 43.7528696,36.3206087 C45.8293913,34.7223478 47.8076522,33.1936522 49.685913,31.7345217 C51.5633043,30.2771304 53.2015652,28.9693043 54.6006957,27.8093043 C55.9989565,26.6510435 56.898087,25.8527826 57.2972174,25.411913 Z" id="Fill-1"></path>
            <path d="M76.5667826,49.1974783 C75.5876522,50.2809565 74.358087,50.8244348 72.8806957,50.8244348 L55.8598261,50.8244348 C54.6206957,50.8635652 53.5606957,50.4418261 52.6824348,49.5574783 C51.8033043,48.6713913 51.3641739,47.6070435 51.3641739,46.3592174 C51.3641739,45.1131304 51.8033043,44.0574783 52.6824348,43.1922609 C53.5606957,42.3270435 54.6206957,41.8948696 55.8598261,41.8948696 C56.138087,41.8948696 56.418087,41.9148696 56.698087,41.954 C56.9772174,41.9948696 57.2572174,42.074 57.5372174,42.1931304 L58.3163478,42.4931304 L58.3763478,41.654 C58.4563478,39.9374783 59.0954783,38.4887826 60.2946087,37.3087826 C61.4928696,36.1313913 62.9711304,35.5409565 64.7293913,35.5409565 C66.0485217,35.5409565 67.2563478,35.9209565 68.3554783,36.6792174 C69.4537391,37.4392174 70.2233043,38.4574783 70.6633043,39.7366087 L70.9024348,40.2157391 L71.3824348,40.0957391 C71.5815652,40.0566087 71.7911304,40.0270435 72.012,40.0061739 C72.2311304,39.9861739 72.4406957,39.9766087 72.6406957,39.9766087 C74.1589565,39.9766087 75.4372174,40.4983478 76.4763478,41.5426957 C77.5154783,42.587913 78.0346087,43.874 78.0346087,45.400087 C78.0346087,46.8470435 77.5450435,48.1122609 76.5667826,49.1974783 M78.7241739,42.7931304 C78.3841739,41.9948696 77.9154783,41.2948696 77.3154783,40.6957391 C76.7163478,40.0957391 76.0172174,39.6270435 75.218087,39.2870435 C74.418087,38.947913 73.5598261,38.7774783 72.6406957,38.7774783 L72.1311304,38.7774783 C71.9911304,38.7774783 71.8215652,38.7983478 71.6215652,38.8374783 C71.0233043,37.4792174 70.1033043,36.3896522 68.8650435,35.5705217 C67.625913,34.7531304 66.2476522,34.3426957 64.7293913,34.3426957 C63.7702609,34.3426957 62.8615652,34.5131304 62.0024348,34.8566087 C61.1433043,35.1992174 60.3841739,35.6644348 59.7250435,36.247913 C59.065913,36.8331304 58.5163478,37.5183478 58.0763478,38.3061739 C57.6363478,39.0922609 57.358087,39.9487826 57.2372174,40.8757391 C56.758087,40.7548696 56.298087,40.6957391 55.8598261,40.6957391 C55.0598261,40.6957391 54.3206957,40.8453043 53.6415652,41.1426957 C52.9615652,41.4409565 52.3624348,41.847913 51.8433043,42.3653043 C51.3241739,42.8818261 50.9146087,43.487913 50.6146087,44.1826957 C50.3154783,44.8783478 50.165913,45.6044348 50.165913,46.3592174 C50.165913,47.154 50.3154783,47.8896522 50.6146087,48.5653043 C50.9146087,49.2409565 51.3241739,49.8357391 51.8433043,50.354 C52.3624348,50.8705217 52.9615652,51.2783478 53.6415652,51.5757391 C54.3206957,51.8731304 55.0598261,52.0226957 55.8598261,52.0226957 L72.9406957,52.0226957 L73.5398261,51.9635652 C75.178087,51.7226957 76.5363478,50.9835652 77.6154783,49.7453043 C78.6946087,48.5061739 79.2337391,47.047913 79.2337391,45.3705217 C79.2337391,44.4513913 79.0633043,43.5931304 78.7241739,42.7931304" id="Fill-3"></path>
            <path d="M15.4632174,5.54347826 C15.9023478,5.08521739 16.4614783,4.85478261 17.1414783,4.85478261 C17.4606087,4.85478261 17.7406087,4.91391304 17.9806087,5.03391304 L18.8197391,5.39391304 L18.8197391,4.49478261 C18.8588696,3.57565217 19.2093043,2.7973913 19.8684348,2.1573913 C20.5275652,1.51826087 21.3162609,1.19826087 22.2362609,1.19826087 C22.9553913,1.19826087 23.6145217,1.40782609 24.2136522,1.82782609 C24.8127826,2.24695652 25.2327826,2.7973913 25.471913,3.47565217 L25.651913,3.95565217 L26.1910435,3.83565217 C26.3510435,3.79565217 26.5701739,3.77565217 26.8510435,3.77565217 C27.6493043,3.77565217 28.3284348,4.05565217 28.8884348,4.61478261 C29.4475652,5.17478261 29.7275652,5.85304348 29.7275652,6.65217391 C29.7275652,7.45217391 29.4666957,8.13130435 28.9484348,8.69043478 C28.4284348,9.25043478 27.7893043,9.52956522 27.0301739,9.52956522 L17.1414783,9.52956522 C16.4614783,9.52956522 15.9023478,9.31043478 15.4632174,8.86956522 C15.0232174,8.43043478 14.804087,7.87217391 14.804087,7.19217391 C14.804087,6.55304348 15.0232174,6.00347826 15.4632174,5.54347826 M17.1414783,10.7278261 L27.0301739,10.7278261 L27.6301739,10.7278261 L27.6301739,10.6686957 C28.5893043,10.4686957 29.3771304,9.99913043 29.9971304,9.25913043 C30.6162609,8.52086957 30.9266957,7.65217391 30.9266957,6.65217391 C30.9266957,5.49391304 30.5362609,4.52434783 29.7571304,3.74608696 C28.978,2.96608696 28.0093043,2.5773913 26.8510435,2.5773913 L26.4310435,2.5773913 C26.0310435,1.77826087 25.4623478,1.14869565 24.7232174,0.688695652 C23.9832174,0.230434783 23.1545217,0 22.2362609,0 C21.1162609,0 20.138,0.349565217 19.2988696,1.04869565 C18.4597391,1.74869565 17.9406087,2.63652174 17.7406087,3.71565217 C17.6206087,3.71565217 17.5101739,3.70695652 17.4110435,3.68521739 C17.3110435,3.66608696 17.2206087,3.65565217 17.1414783,3.65565217 C16.1423478,3.65565217 15.3032174,4.00521739 14.624087,4.70434783 C13.944087,5.40434783 13.6049565,6.23304348 13.6049565,7.19217391 C13.6049565,8.19130435 13.944087,9.03043478 14.624087,9.70869565 C15.3032174,10.3886957 16.1423478,10.7278261 17.1414783,10.7278261" id="Fill-5"></path>
            <path d="M15.6428696,53.7015652 C14.8437391,55.0989565 14.0550435,56.1676522 13.275913,56.9085217 C12.4967826,57.6467826 11.7567826,58.1363478 11.0585217,58.3763478 C10.3585217,58.6154783 9.74895652,58.7354783 9.22982609,58.7354783 C9.10982609,58.7354783 8.99069565,58.7250435 8.86982609,58.705913 C8.75069565,58.6850435 8.64982609,58.6763478 8.57069565,58.6763478 C8.69069565,58.3972174 8.83069565,58.0398261 8.99069565,57.6033043 C9.14982609,57.165913 9.32026087,56.7285217 9.50026087,56.292 C9.6793913,55.8554783 9.83852174,55.4276522 9.9793913,55.0111304 C10.1185217,54.592 10.228087,54.265913 10.3089565,54.0276522 L11.208087,51.1667826 L9.28982609,53.485913 C7.61156522,55.4667826 5.71330435,56.458087 3.59591304,56.458087 C3.19678261,56.458087 2.82634783,56.4285217 2.48721739,56.3676522 C2.14721739,56.3085217 1.87765217,56.238087 1.67765217,56.158087 C1.95765217,55.6389565 2.43678261,54.8998261 3.11678261,53.9406957 C3.79504348,52.9824348 4.64547826,52.0224348 5.66373913,51.0641739 C6.68286957,50.1050435 7.87069565,49.265913 9.22982609,48.5467826 C10.588087,47.8276522 12.0863478,47.4676522 13.7246087,47.4676522 C14.2846087,47.4676522 14.8437391,47.5189565 15.4037391,47.618087 C15.962,47.718087 16.5211304,47.8676522 17.0811304,48.0676522 L17.2011304,48.0676522 L17.2611304,48.0676522 C17.3811304,48.0676522 17.4906957,48.0763478 17.5906957,48.0972174 C17.6898261,48.1172174 17.7802609,48.1276522 17.8602609,48.1276522 C17.1811304,50.4441739 16.442,52.3024348 15.6428696,53.7015652 M17.3811304,46.8693913 C16.742,46.6693913 16.1228696,46.5189565 15.5228696,46.4189565 C14.9237391,46.3198261 14.3246087,46.2693913 13.7246087,46.2693913 C10.168087,46.2693913 6.85243478,47.9276522 3.77591304,51.2441739 C2.61678261,52.4824348 1.74808696,53.6015652 1.16895652,54.5998261 C0.588956522,55.5989565 0.279391304,56.118087 0.24026087,56.158087 L0.000260869565,56.698087 L0.539391304,56.9972174 C0.578521739,56.9972174 0.868956522,57.1067826 1.40808696,57.3276522 C1.94808696,57.5467826 2.67678261,57.6572174 3.59591304,57.6572174 C4.23504348,57.6572174 4.95417391,57.5572174 5.75330435,57.3572174 C6.55243478,57.1572174 7.41156522,56.718087 8.33069565,56.0389565 C8.05156522,56.718087 7.80113043,57.3572174 7.582,57.9572174 C7.362,58.5563478 7.23156522,58.8554783 7.19243478,58.8554783 L7.01243478,59.3954783 L7.55156522,59.6346087 C7.59156522,59.6346087 7.762,59.6841739 8.06113043,59.7841739 C8.36113043,59.8833043 8.75069565,59.9346087 9.22982609,59.9346087 C9.82895652,59.9346087 10.5489565,59.7937391 11.3872174,59.5154783 C12.2263478,59.2346087 13.095913,58.665913 13.9941739,57.8067826 C14.8941739,56.9467826 15.802,55.718087 16.722,54.1206957 C17.6402609,52.5224348 18.4793913,50.4050435 19.2393913,47.7676522 L19.4185217,47.1676522 L18.7593913,47.0485217 C18.3193913,46.9285217 17.8602609,46.8693913 17.3811304,46.8693913" id="Fill-7"></path>
            <path d="M53.7614783,21.1566087 C53.4414783,21.8366087 53.031913,22.4253043 52.5327826,22.9244348 C52.0327826,23.4244348 51.4432174,23.8235652 50.7649565,24.1235652 C50.0849565,24.4235652 49.3658261,24.5731304 48.6066957,24.5731304 L48.5466957,24.5731304 C46.9484348,24.4931304 45.6301739,23.934 44.591913,22.8948696 C43.5127826,21.8157391 42.9736522,20.4783478 42.9736522,18.8792174 C42.9736522,18.1209565 43.1232174,17.4018261 43.4223478,16.7209565 C43.7223478,16.0426957 44.1214783,15.4531304 44.6214783,14.9531304 C45.1206087,14.454 45.7093043,14.054 46.3893043,13.7548696 C47.0684348,13.4557391 47.8075652,13.3053043 48.6066957,13.3053043 L48.6675652,13.3053043 C49.4258261,13.3053043 50.1449565,13.4557391 50.8249565,13.7548696 C51.5032174,14.054 52.0927826,14.4644348 52.5927826,14.9826957 C53.091913,15.5035652 53.491913,16.1122609 53.791913,16.8113913 C54.0910435,17.5113913 54.2406087,18.240087 54.2406087,18.9992174 C54.2406087,19.7592174 54.0806087,20.4783478 53.7614783,21.1566087 M53.4614783,14.1444348 C52.8623478,13.5053043 52.1527826,13.0053043 51.3336522,12.6461739 C50.5145217,12.2861739 49.6258261,12.1070435 48.6675652,12.1070435 L48.6066957,12.1070435 C47.6484348,12.1070435 46.7588696,12.2766087 45.9397391,12.6166087 C45.1206087,12.9557391 44.4014783,13.4357391 43.7823478,14.054 C43.1623478,14.6748696 42.6736522,15.3931304 42.3136522,16.2113913 C41.9545217,17.0313913 41.7745217,17.920087 41.7745217,18.8792174 C41.7745217,19.8374783 41.944087,20.727913 42.284087,21.5461739 C42.6232174,22.3661739 43.1023478,23.0853043 43.7223478,23.7044348 C44.3414783,24.3244348 45.0606087,24.8235652 45.8806087,25.2018261 C46.698,25.5826957 47.5884348,25.7722609 48.5466957,25.7722609 L48.6066957,25.7722609 C49.5258261,25.7722609 50.3945217,25.5922609 51.2145217,25.2322609 C52.0327826,24.8722609 52.751913,24.3835652 53.371913,23.7635652 C53.9910435,23.1444348 54.4901739,22.4253043 54.8701739,21.6061739 C55.2493043,20.787913 55.4397391,19.9183478 55.4397391,18.9992174 C55.4397391,18.040087 55.2597391,17.1513913 54.9006087,16.3313913 C54.5406087,15.514 54.0614783,14.7844348 53.4614783,14.1444348" id="Fill-9"></path>
        </g>
    </g>
</svg>