<?xml version="1.0" encoding="UTF-8"?>
<svg width="76px" height="98px" viewBox="0 0 76 98" version="1.1" xmlns="http://www.w3.org/2000/svg" xmlns:xlink="http://www.w3.org/1999/xlink">
    <!-- Generator: Sketch 48.2 (47327) - http://www.bohemiancoding.com/sketch -->
    <title>ART</title>
    <desc>Created with Sketch.</desc>
    <defs>
        <polygon id="path-1" points="0.0006 0.6793 75.9096 0.6793 75.9096 98 0.0006 98"></polygon>
    </defs>
    <g id="Page-1-Copy" stroke="none" stroke-width="1" fill="none" fill-rule="evenodd">
        <g id="ART" transform="translate(0.000000, -1.000000)">
            <g id="Group-3" transform="translate(0.000000, 0.320800)">
                <mask id="mask-2" fill="white">
                    <use xlink:href="#path-1"></use>
                </mask>
                <g id="Clip-2"></g>
                <path d="M71.3356,70.3613 C69.3236,72.3733 66.7286,73.3783 63.5506,73.3783 L59.4626,73.3783 L59.4626,51.8703 L63.5506,51.8703 C66.7286,51.8703 69.3236,52.8603 71.3356,54.8393 C73.3466,56.8183 74.3536,59.3973 74.3536,62.5753 C74.3536,65.7553 73.3466,68.3503 71.3356,70.3613 Z M57.9056,88.9493 C57.9056,91.0903 57.1906,92.8743 55.7646,94.3013 C54.3366,95.7283 52.5536,96.4433 50.4116,96.4433 L14.1116,96.4433 C12.0346,96.4433 10.2826,95.7133 8.8566,94.2543 C7.4286,92.7943 6.7146,91.0253 6.7146,88.9493 L6.7146,45.2523 L8.7586,45.2523 L23.6486,45.2523 L24.9136,45.2523 L46.2276,45.2523 L57.9056,45.2523 L57.9056,88.9493 Z M3.6006,31.5303 L12.1656,25.8853 L21.1186,43.6953 L9.7326,43.6953 L3.6006,31.5303 Z M1.9466,19.5593 L10.9976,24.7173 L3.2116,29.9733 L1.9466,19.5593 Z M26.4716,2.4313 L44.6696,2.4313 L44.6696,10.7033 L35.6186,10.7033 L35.6186,12.3583 L44.6696,12.3583 L44.6696,17.3213 L38.8306,17.3213 L38.8306,18.8783 L44.6696,18.8783 L44.6696,23.9393 L35.6186,23.9393 L35.6186,25.4963 L44.6696,25.4963 L44.6696,33.7683 L38.8306,33.7683 L38.8306,35.4233 L44.6696,35.4233 L44.6696,43.6953 L26.4716,43.6953 L26.4716,2.4313 Z M58.6846,24.7173 C58.9426,24.9123 59.2026,25.0433 59.4626,25.1073 C59.8526,25.2373 60.2406,25.3673 60.6306,25.4963 C61.0206,25.6273 61.4086,25.7243 61.7986,25.7883 L54.9856,43.6953 L48.2716,43.6953 L58.6846,24.7173 Z M56.7376,20.4353 C56.0886,19.0733 56.1206,17.5493 56.8356,15.8613 C57.0296,15.4083 57.2886,14.9703 57.6136,14.5473 C57.9376,14.1263 58.2946,13.6563 58.6846,13.1363 C59.1376,12.5523 59.6236,11.9043 60.1446,11.1903 C60.6626,10.4773 61.0686,9.7153 61.3606,8.9033 C61.6526,8.0923 61.8146,7.2163 61.8476,6.2753 C61.8796,5.3353 61.6676,4.3133 61.2146,3.2093 C62.8356,3.7933 64.1976,4.6053 65.3026,5.6423 C66.4046,6.6813 67.2796,7.8323 67.9296,9.0973 C68.5776,10.3623 69.0156,11.6763 69.2436,13.0393 C69.4706,14.4013 69.4866,15.7323 69.2926,17.0293 C69.0976,18.8463 68.4806,20.5173 67.4426,22.0413 C66.4046,23.5663 64.9446,24.3283 63.0646,24.3283 C62.0246,24.3283 61.0206,24.1013 60.0466,23.6473 C58.4246,22.9343 57.3216,21.8633 56.7376,20.4353 Z M72.4546,53.7673 C70.1506,51.4653 67.1836,50.3133 63.5506,50.3133 L59.4626,50.3133 L59.4626,43.6953 L56.6406,43.6953 L63.3556,25.8853 C65.3026,25.7563 66.9566,24.8973 68.3186,23.3063 C69.6816,21.7173 70.5236,19.6903 70.8496,17.2243 C71.0436,15.6673 70.9786,14.0463 70.6546,12.3583 C70.3296,10.6713 69.7306,9.0823 68.8546,7.5893 C67.9786,6.0973 66.7936,4.7833 65.3026,3.6473 C63.8096,2.5133 61.9926,1.6863 59.8526,1.1663 L57.9056,0.6793 L58.9766,2.3343 C59.6896,3.4383 60.1106,4.4263 60.2406,5.3023 C60.3706,6.1783 60.3056,7.0223 60.0466,7.8323 C59.7866,8.6443 59.4136,9.4063 58.9276,10.1193 C58.4406,10.8343 57.9376,11.5153 57.4186,12.1633 C57.0296,12.6833 56.6556,13.2013 56.2996,13.7203 C55.9416,14.2403 55.6336,14.7583 55.3756,15.2773 C54.4656,17.2243 54.4346,19.1703 55.2776,21.1163 C55.6676,22.2203 56.3806,23.1283 57.4186,23.8413 L46.5196,43.6953 L46.2276,43.6953 L46.2276,0.8743 L24.9136,0.8743 L24.9136,43.6953 L22.8696,43.6953 L13.1386,24.1333 L0.0006,16.6403 L1.8486,31.4323 L1.8486,31.5303 L7.9806,43.6953 L5.1586,43.6953 L5.1586,88.9493 C5.1586,91.4793 6.0176,93.6213 7.7376,95.3733 C9.4556,97.1243 11.5816,98.0003 14.1116,98.0003 L50.4116,98.0003 C53.0066,98.0003 55.1636,97.1393 56.8836,95.4213 C58.6026,93.7013 59.4626,91.5443 59.4626,88.9493 L59.4626,74.9353 L63.5506,74.9353 C67.1836,74.9353 70.1506,73.7843 72.4546,71.4803 C74.7576,69.1773 75.9096,66.2103 75.9096,62.5753 C75.9096,59.0073 74.7576,56.0713 72.4546,53.7673 Z" id="Fill-1" fill="#000000" mask="url(#mask-2)"></path>
            </g>
            <path d="M36.7868,58.6138 C36.3328,58.3558 35.7798,58.3868 35.1328,58.7118 L35.1328,58.8088 L35.0348,58.7118 C34.7748,58.1928 34.3208,57.8688 33.6728,57.7378 C33.0228,57.6088 32.5368,57.8358 32.2128,58.4198 L33.4778,59.2958 L33.5758,59.2958 L33.5758,59.3928 C33.8338,59.9128 34.1908,60.2048 34.6458,60.2688 C34.7748,60.2688 34.8558,60.2858 34.8898,60.3168 C34.9218,60.3508 35.0018,60.3658 35.1328,60.3658 C35.4568,60.3658 35.7798,60.2688 36.1058,60.0738 C36.1058,60.0098 36.1378,60.0098 36.2028,60.0738 L37.7608,59.9768 C37.7608,59.2628 37.4348,58.8088 36.7868,58.6138" id="Fill-4" fill="#000000"></path>
            <path d="M38.5388,67.0815 C38.5388,67.1455 38.5058,67.1785 38.4408,67.1785 L38.4408,67.2755 L38.1488,68.8325 L38.4408,68.8325 C38.9598,68.8325 39.3818,68.6385 39.7068,68.2485 C40.0968,67.7295 40.1928,67.1785 39.9988,66.5945 L38.5388,67.0815 Z" id="Fill-6" fill="#000000"></path>
            <path d="M46.2272,64.6479 C46.2272,65.2319 46.0472,65.7349 45.6922,66.1569 C45.3342,66.5799 44.8962,66.8549 44.3772,66.9839 L43.8912,67.0819 L43.7942,67.4699 C42.9502,69.3529 41.5222,70.4559 39.5122,70.7789 L39.2202,70.8769 L39.0252,71.0709 C38.4412,71.7199 37.7272,72.1099 36.8842,72.2389 L36.8842,72.1419 L34.7432,71.8499 L34.3542,71.5579 L34.0622,71.7519 L32.8942,71.5579 L32.8942,72.1419 C32.1792,72.2729 31.4982,72.1749 30.8502,71.8499 L30.7532,71.6549 L30.5582,71.6549 L30.4612,71.6549 L30.2662,71.7519 L27.6382,72.0439 L27.6382,72.2389 C26.6652,72.0439 25.9182,71.4939 25.4002,70.5849 L25.2062,70.1959 L24.8162,70.1959 C23.6492,70.0659 22.6422,69.6449 21.7992,68.9299 L21.5072,68.7359 L21.1192,68.7359 C20.4042,68.8669 19.7552,68.6869 19.1712,68.2009 C18.5882,67.7129 18.2962,67.1149 18.2962,66.3999 C18.2962,65.2969 18.8462,64.5189 19.9512,64.0639 L20.2432,63.9669 L20.3392,63.5779 C20.8582,62.1509 21.7992,61.1779 23.1622,60.6579 L23.5512,60.4629 L23.6492,60.0739 C23.7782,59.2319 24.1502,58.5499 24.7682,58.0299 C25.3832,57.5109 26.1142,57.2519 26.9572,57.2519 C27.3472,57.2519 27.6382,57.2849 27.8332,57.3489 L28.3202,57.4469 L28.6122,57.1549 C29.7802,56.1809 31.0442,55.6949 32.4082,55.6949 C33.9642,55.6949 35.2932,56.2469 36.3982,57.3489 L36.7872,57.6409 L37.2742,57.4469 C37.7912,57.3169 38.2472,57.2519 38.6362,57.2519 C39.5432,57.2519 40.3052,57.5439 40.9232,58.1269 C41.5392,58.7109 41.8792,59.4589 41.9452,60.3659 L41.9452,60.6579 L42.2372,60.8529 C42.4962,61.0469 42.8212,61.4049 43.2102,61.9229 L43.4052,62.2149 L43.8912,62.2149 C44.5402,62.2149 45.0912,62.4429 45.5452,62.8959 C45.9982,63.3509 46.2272,63.9349 46.2272,64.6479 Z M31.7262,73.6989 C32.1792,73.7639 32.6342,73.7639 33.0882,73.6989 C33.0882,74.0879 33.0722,74.4289 33.0392,74.7209 C33.0062,75.0129 32.9262,75.1919 32.7962,75.2559 C32.5372,75.1269 32.1792,74.6079 31.7262,73.6989 Z M29.7802,86.8369 C29.9092,86.1229 30.0552,85.1829 30.2172,84.0149 C30.3782,82.8469 30.4612,81.6139 30.4612,80.3169 C30.4612,79.0179 30.3642,77.7709 30.1692,76.5699 C29.9742,75.3699 29.8122,74.4139 29.6822,73.6989 L29.8772,73.6019 C30.5252,74.9639 31.0932,75.8569 31.5812,76.2779 C32.0672,76.7009 32.4712,76.9109 32.7962,76.9109 C33.2492,76.9109 33.6392,76.7159 33.9642,76.3269 C34.2892,76.0019 34.4832,75.5819 34.5482,75.0609 C34.6132,74.5429 34.6462,74.0239 34.6462,73.5039 C34.7752,73.5699 34.8732,73.6019 34.9382,73.6019 C35.0012,73.6019 35.0992,73.6349 35.2302,73.6989 C35.1642,74.1539 35.1162,74.7209 35.0832,75.4019 C35.0502,76.0839 34.9692,76.7819 34.8402,77.4949 C34.7092,78.0139 34.6772,78.6789 34.7432,79.4899 C34.8072,80.2999 34.8892,81.1599 34.9872,82.0689 C35.0832,82.9759 35.1962,83.8519 35.3272,84.6959 C35.4562,85.5389 35.5852,86.2529 35.7162,86.8369 L29.7802,86.8369 Z M43.5022,59.8789 C43.3072,58.6479 42.7552,57.6409 41.8472,56.8629 C40.9382,56.0839 39.8682,55.6949 38.6362,55.6949 C37.9872,55.6949 37.5002,55.7599 37.1762,55.8889 C35.8142,54.7209 34.2232,54.1369 32.4082,54.1369 C30.7852,54.1369 29.2592,54.6579 27.8332,55.6949 L26.9572,55.6949 C25.8532,55.6949 24.8652,56.0359 23.9892,56.7159 C23.1132,57.3979 22.5122,58.2909 22.1892,59.3929 C20.7612,60.0429 19.6902,61.1779 18.9772,62.7989 C18.2632,63.1249 17.7132,63.6109 17.3232,64.2579 C16.9342,64.9079 16.7392,65.6219 16.7392,66.3999 C16.7392,67.5029 17.1602,68.4769 18.0042,69.3199 C18.8462,70.1639 19.8532,70.5209 21.0212,70.3899 C22.1232,71.1689 23.2262,71.5909 24.3302,71.6549 C24.7192,72.3039 25.2542,72.8229 25.9362,73.2119 C26.6172,73.6019 27.3472,73.7959 28.1252,73.7959 C28.2542,74.5109 28.4172,75.4509 28.6122,76.6189 C28.8062,77.7869 28.9042,79.0179 28.9042,80.3169 C28.9042,82.0689 28.7582,83.6739 28.4662,85.1339 C28.1742,86.5939 28.0282,87.3559 28.0282,87.4209 L27.8332,88.3939 L36.5922,88.3939 L37.5652,88.3939 L37.3712,87.4209 C37.2402,86.9009 37.1112,86.1879 36.9822,85.2799 C36.8512,84.3709 36.7212,83.4309 36.5922,82.4579 C36.4612,81.4849 36.3642,80.5599 36.3002,79.6839 C36.2352,78.8079 36.2352,78.1439 36.3002,77.6889 C36.4292,76.9759 36.5272,76.2779 36.5922,75.5969 C36.6562,74.9159 36.7212,74.3159 36.7872,73.7959 C38.0832,73.7959 39.1552,73.2779 39.9982,72.2389 C42.3342,71.8499 44.0212,70.5849 45.0592,68.4439 C45.9022,68.1849 46.5682,67.7129 47.0542,67.0329 C47.5402,66.3509 47.7842,65.5569 47.7842,64.6479 C47.7842,63.6109 47.4442,62.7179 46.7622,61.9719 C46.0812,61.2269 45.2202,60.7889 44.1832,60.6579 C44.0522,60.4629 43.8262,60.2049 43.5022,59.8789 Z" id="Fill-8" fill="#000000"></path>
            <path d="M34.7429,64.4536 L33.7699,65.7186 C34.0289,65.9136 34.3539,66.0106 34.7429,66.0106 C35.0669,66.0106 35.2939,65.9786 35.4249,65.9136 C35.9429,65.7186 36.2669,65.2976 36.3979,64.6476 L34.8409,64.4536 L34.7429,64.4536 Z" id="Fill-10" fill="#000000"></path>
            <path d="M28.1257,68.1519 L28.0277,68.0539 C28.0277,67.5359 27.8337,67.1149 27.4437,66.7899 C27.0557,66.4649 26.6007,66.3679 26.0817,66.4979 C26.0167,66.4979 25.9837,66.4649 25.9837,66.3999 L25.8877,66.3019 L24.4277,65.9139 C24.2327,66.4979 24.3617,67.0169 24.8157,67.4699 C25.2697,67.9909 25.7897,68.1519 26.3737,67.9569 L26.4717,68.0539 C26.4717,68.7689 26.7637,69.2559 27.3477,69.5139 C27.6047,69.6449 27.8657,69.7089 28.1257,69.7089 C28.3197,69.7089 28.6117,69.6449 29.0017,69.5139 L28.2227,68.1519 L28.1257,68.1519 Z" id="Fill-12" fill="#000000"></path>
            <path d="M26.6657,62.02 L26.7637,62.02 L27.8337,60.853 C27.3127,60.463 26.7637,60.366 26.1797,60.561 C25.5957,60.755 25.2377,61.178 25.1077,61.826 L26.6657,62.118 L26.6657,62.02 Z" id="Fill-14" fill="#000000"></path>
        </g>
    </g>
</svg>