<?xml version="1.0" encoding="UTF-8"?>
<svg width="76px" height="98px" viewBox="0 0 76 98" version="1.1" xmlns="http://www.w3.org/2000/svg" xmlns:xlink="http://www.w3.org/1999/xlink">
    <!-- Generator: Sketch 48.2 (47327) - http://www.bohemiancoding.com/sketch -->
    <title>Fill 1</title>
    <desc>Created with Sketch.</desc>
    <defs></defs>
    <g id="Page-1-Copy" stroke="none" stroke-width="1" fill="none" fill-rule="evenodd">
        <path d="M71.3356,69.6821 C69.3236,71.6941 66.7286,72.6991 63.5506,72.6991 L59.4626,72.6991 L59.4626,51.1911 L63.5506,51.1911 C66.7286,51.1911 69.3236,52.1811 71.3356,54.1601 C73.3466,56.1391 74.3536,58.7181 74.3536,61.8961 C74.3536,65.0761 73.3466,67.6711 71.3356,69.6821 Z M57.9056,88.2701 C57.9056,90.4111 57.1906,92.1951 55.7646,93.6221 C54.3366,95.0491 52.5536,95.7641 50.4116,95.7641 L14.1116,95.7641 C12.0346,95.7641 10.2826,95.0341 8.8566,93.5751 C7.4286,92.1151 6.7146,90.3461 6.7146,88.2701 L6.7146,44.5731 L8.7586,44.5731 L23.6486,44.5731 L24.9136,44.5731 L46.2276,44.5731 L57.9056,44.5731 L57.9056,88.2701 Z M3.6006,30.8511 L12.1656,25.2061 L21.1186,43.0161 L9.7326,43.0161 L3.6006,30.8511 Z M1.9466,18.8801 L10.9976,24.0381 L3.2116,29.2941 L1.9466,18.8801 Z M26.4716,1.7521 L44.6696,1.7521 L44.6696,10.0241 L35.6186,10.0241 L35.6186,11.6791 L44.6696,11.6791 L44.6696,16.6421 L38.8306,16.6421 L38.8306,18.1991 L44.6696,18.1991 L44.6696,23.2601 L35.6186,23.2601 L35.6186,24.8171 L44.6696,24.8171 L44.6696,33.0891 L38.8306,33.0891 L38.8306,34.7441 L44.6696,34.7441 L44.6696,43.0161 L26.4716,43.0161 L26.4716,1.7521 Z M58.6846,24.0381 C58.9426,24.2331 59.2026,24.3641 59.4626,24.4281 C59.8526,24.5581 60.2406,24.6881 60.6306,24.8171 C61.0206,24.9481 61.4086,25.0451 61.7986,25.1091 L54.9856,43.0161 L48.2716,43.0161 L58.6846,24.0381 Z M56.7376,19.7561 C56.0886,18.3941 56.1206,16.8701 56.8356,15.1821 C57.0296,14.7291 57.2886,14.2911 57.6136,13.8681 C57.9376,13.4471 58.2946,12.9771 58.6846,12.4571 C59.1376,11.8731 59.6236,11.2251 60.1446,10.5111 C60.6626,9.7981 61.0686,9.0361 61.3606,8.2241 C61.6526,7.4131 61.8146,6.5371 61.8476,5.5961 C61.8796,4.6561 61.6676,3.6341 61.2146,2.5301 C62.8356,3.1141 64.1976,3.9261 65.3026,4.9631 C66.4046,6.0021 67.2796,7.1531 67.9296,8.4181 C68.5776,9.6831 69.0156,10.9971 69.2436,12.3601 C69.4706,13.7221 69.4866,15.0531 69.2926,16.3501 C69.0976,18.1671 68.4806,19.8381 67.4426,21.3621 C66.4046,22.8871 64.9446,23.6491 63.0646,23.6491 C62.0246,23.6491 61.0206,23.4221 60.0466,22.9681 C58.4246,22.2551 57.3216,21.1841 56.7376,19.7561 Z M72.4546,53.0881 C70.1506,50.7861 67.1836,49.6341 63.5506,49.6341 L59.4626,49.6341 L59.4626,43.0161 L56.6406,43.0161 L63.3556,25.2061 C65.3026,25.0771 66.9566,24.2181 68.3186,22.6271 C69.6816,21.0381 70.5236,19.0111 70.8496,16.5451 C71.0436,14.9881 70.9786,13.3671 70.6546,11.6791 C70.3296,9.9921 69.7306,8.4031 68.8546,6.9101 C67.9786,5.4181 66.7936,4.1041 65.3026,2.9681 C63.8096,1.8341 61.9926,1.0071 59.8526,0.4871 L57.9056,0.0001 L58.9766,1.6551 C59.6896,2.7591 60.1106,3.7471 60.2406,4.6231 C60.3706,5.4991 60.3056,6.3431 60.0466,7.1531 C59.7866,7.9651 59.4136,8.7271 58.9276,9.4401 C58.4406,10.1551 57.9376,10.8361 57.4186,11.4841 C57.0296,12.0041 56.6556,12.5221 56.2996,13.0411 C55.9416,13.5611 55.6336,14.0791 55.3756,14.5981 C54.4656,16.5451 54.4346,18.4911 55.2776,20.4371 C55.6676,21.5411 56.3806,22.4491 57.4186,23.1621 L46.5196,43.0161 L46.2276,43.0161 L46.2276,0.1951 L24.9136,0.1951 L24.9136,43.0161 L22.8696,43.0161 L13.1386,23.4541 L0.0006,15.9611 L1.8486,30.7531 L1.8486,30.8511 L7.9806,43.0161 L5.1586,43.0161 L5.1586,88.2701 C5.1586,90.8001 6.0176,92.9421 7.7376,94.6941 C9.4556,96.4451 11.5816,97.3211 14.1116,97.3211 L50.4116,97.3211 C53.0066,97.3211 55.1636,96.4601 56.8836,94.7421 C58.6026,93.0221 59.4626,90.8651 59.4626,88.2701 L59.4626,74.2561 L63.5506,74.2561 C67.1836,74.2561 70.1506,73.1051 72.4546,70.8011 C74.7576,68.4981 75.9096,65.5311 75.9096,61.8961 C75.9096,58.3281 74.7576,55.3921 72.4546,53.0881 Z" id="Fill-1" fill="#000000"></path>
    </g>
</svg>