<?xml version="1.0" encoding="UTF-8"?>
<svg width="99px" height="51px" viewBox="0 0 99 51" version="1.1" xmlns="http://www.w3.org/2000/svg" xmlns:xlink="http://www.w3.org/1999/xlink">
    <!-- Generator: Sketch 48.2 (47327) - http://www.bohemiancoding.com/sketch -->
    <title>Group 56</title>
    <desc>Created with Sketch.</desc>
    <defs>
        <polygon id="path-1" points="9.73780097e-05 0.0559521739 98.6180373 0.0559521739 98.6180373 50.9997783 9.73780097e-05 50.9997783"></polygon>
    </defs>
    <g id="Page-1-Copy" stroke="none" stroke-width="1" fill="none" fill-rule="evenodd">
        <g id="Group-56" transform="translate(-2.000000, -11.000000)">
            <rect id="Rectangle-4" x="0" y="0" width="103" height="70"></rect>
            <g id="PLANET" transform="translate(2.000000, 11.000000)">
                <path d="M27.8823032,18.8428719 C28.2720731,19.3632279 28.7519405,19.7312275 29.3225584,19.9460892 C29.3512852,19.9828111 29.396334,20 29.4570519,20 C29.7273446,20 29.8918705,19.8570193 29.9519356,19.5694952 C30.0720657,19.2116528 29.9669518,18.9592879 29.637247,18.8155259 C28.7663039,18.4569021 28.2420406,17.7748137 28.0618455,16.7692608 C27.8823032,15.7285487 28.1068942,14.830036 28.7375772,14.0760666 C28.9771844,13.8260457 28.9915478,13.5377403 28.7819731,13.2150571 C28.5417129,12.9283143 28.3021056,12.9283143 28.0618455,13.2150571 C27.6413902,13.7174429 27.3423707,14.292491 27.1621756,14.9386388 C26.9819805,15.5840054 26.951948,16.266875 27.072078,16.9849039 C27.2222406,17.7029327 27.4918804,18.3225158 27.8823032,18.8428719" id="Fill-1" fill="#000000"></path>
                <g id="Group-5">
                    <mask id="mask-2" fill="white">
                        <use xlink:href="#path-1"></use>
                    </mask>
                    <g id="Clip-4"></g>
                    <path d="M96.5555127,25.0178652 C95.9267888,26.4791261 95.0786396,27.7437783 94.0095873,28.8140391 C92.9397963,29.8835609 91.6749604,30.7320826 90.2158187,31.3610826 C88.7551993,31.9900826 87.2110948,32.3027348 85.5812888,32.3027348 C83.9522216,32.3027348 82.4073784,31.9900826 80.9482366,31.3610826 C79.4876172,30.7320826 78.2235201,29.8835609 77.1537291,28.8140391 C76.0846769,27.7437783 75.2357888,26.4791261 74.6078037,25.0178652 C73.9790799,23.5580826 73.6658261,22.0125609 73.6658261,20.3827783 C73.6658261,18.7515174 73.9790799,17.2074739 74.6078037,15.746213 C75.2357888,14.2864304 76.0846769,13.0210391 77.1537291,11.9507783 C78.2235201,10.8812565 79.4876172,10.0327348 80.9482366,9.40373478 C82.4073784,8.77547391 83.9522216,8.46134348 85.5812888,8.46134348 C87.2110948,8.46134348 88.7551993,8.77547391 90.2158187,9.40373478 C91.6749604,10.0327348 92.9397963,10.8812565 94.0095873,11.9507783 C95.0786396,13.0210391 95.9267888,14.2864304 96.5555127,15.746213 C97.1834978,17.2074739 97.4974903,18.7515174 97.4974903,20.3827783 C97.4974903,22.0125609 97.1834978,23.5580826 96.5555127,25.0178652 Z M70.9920873,31.8444739 C69.1421172,32.6944739 67.1643336,33.5089957 65.0602142,34.2902565 C65.7731619,32.1844739 66.2053634,30.0365609 66.3582963,27.8457783 C66.5112291,25.6549957 66.3501694,23.4568217 65.8751172,21.2483 C65.5005425,19.5845174 65.0262291,18.1069957 64.4484828,16.8157348 C64.7875948,16.7824739 65.255259,16.7573435 65.849259,16.7396043 C66.443259,16.7226043 67.1222216,16.7144739 67.886147,16.7144739 C68.6500724,16.7144739 69.4649754,16.7396043 70.3301172,16.7906043 C71.1959978,16.8408652 72.0700052,16.9177348 72.9528784,17.0204739 C72.6809978,18.1749957 72.5457963,19.2955174 72.5457963,20.3827783 C72.5457963,22.0805609 72.8420575,23.6770826 73.4367963,25.1708652 C74.0300575,26.665387 74.8538261,27.9899087 75.9066246,29.1444304 C74.4807291,30.0956913 72.8420575,30.9959522 70.9920873,31.8444739 Z M63.6343187,34.7995174 C60.4086918,35.8867783 57.1239604,36.8713 53.7808634,37.7538217 C50.4370276,38.6378217 47.3724604,39.3680826 44.5893784,39.9446043 C43.8084604,40.1153435 42.7305425,40.3097348 41.3556246,40.5307348 C39.9807067,40.7517348 38.3937515,40.9638652 36.594759,41.1678652 C34.7950276,41.3711261 32.8431022,41.5492565 30.7389828,41.7022565 C28.6333858,41.8552565 26.4945425,41.982387 24.322453,42.084387 C22.9298037,40.5558652 21.7587963,38.8839522 20.8086918,37.0664304 C19.8578485,35.250387 19.1618933,33.2887348 18.7208261,31.1829522 C18.0758485,28.1259087 18.0418634,25.0866043 18.6188709,22.0635609 C19.1958784,19.0412565 20.3506321,16.2044739 22.0816545,13.5554304 C23.8134157,10.8731261 25.9426545,8.65721304 28.4723261,6.9076913 C31.001259,5.1589087 33.7939455,3.96151739 36.849647,3.31625652 C37.6298261,3.14625652 38.4277366,3.01838696 39.2426396,2.93338696 C40.0575425,2.84912609 40.8717067,2.80625652 41.6866097,2.80625652 C44.4364455,2.80625652 47.0843261,3.27338696 49.6302515,4.20764783 C52.1769157,5.1419087 54.467953,6.4316913 56.5055799,8.07921304 C58.5417291,9.72747391 60.2816172,11.6965174 61.7245052,13.9885609 C63.1673933,16.2813435 64.1766022,18.7692565 64.7543485,21.4523 C65.2294007,23.6933435 65.3734679,25.9439957 65.1872888,28.2027783 C65.0003709,30.4608217 64.4824679,32.6597348 63.6343187,34.7995174 Z M62.2594007,37.6776913 C61.9867813,38.1706913 61.6993858,38.6548217 61.3935201,39.1300826 C59.6624978,41.7791261 57.5317813,43.9773 55.0028485,45.7275609 C52.4739157,47.4763435 49.6819679,48.6899957 46.6262664,49.3692565 C45.8446097,49.5392565 45.0474381,49.6671261 44.2332739,49.7521261 C43.4183709,49.836387 42.6034679,49.8792565 41.7885649,49.8792565 C38.631647,49.8792565 35.6520425,49.2842565 32.8519679,48.0964739 C30.0511545,46.9064739 27.5635948,45.2766913 25.3915052,43.2049087 C27.4963634,43.1036478 29.5495052,42.9669087 31.553147,42.798387 C33.55605,42.6276478 35.4060201,42.441387 37.1037963,42.237387 C38.8008336,42.033387 40.3198187,41.8301261 41.6614903,41.6261261 C43.0024231,41.4221261 44.0626097,41.2351261 44.8442664,41.0658652 C47.865244,40.4213435 50.9290724,39.6903435 54.0357515,38.8750826 C57.1416918,38.0605609 60.13755,37.1610391 63.0233261,36.1750391 C62.7854306,36.6843 62.5305425,37.1861696 62.2594007,37.6776913 Z M10.268147,7.95134348 L14.3419231,1.63473478 L18.8227813,4.53877826 L14.7490052,10.855387 L10.268147,7.95134348 Z M97.5994455,15.3130826 C96.919744,13.7335609 95.9866321,12.3499087 94.7986321,11.161387 C93.6098933,9.97286522 92.2268485,9.03934348 90.6480201,8.35934348 C89.0699306,7.68008261 87.3810201,7.34008261 85.5812888,7.34008261 C84.1561321,7.34008261 82.8063336,7.55295217 81.5333709,7.97721304 C80.2604082,8.40295217 79.0894007,8.99573478 78.0196097,9.75999565 C76.9505575,10.5249957 76.007841,11.4245174 75.1936769,12.4607783 C74.3787739,13.4970391 73.75005,14.6434304 73.3097216,15.899213 C72.2569231,15.763213 71.221856,15.6700826 70.2030425,15.6190826 C69.1849679,15.5680826 68.2503784,15.5429522 67.4029679,15.5429522 C66.553341,15.5429522 65.8241396,15.5599522 65.213147,15.593213 C64.6021545,15.6279522 64.1943336,15.6619522 63.9904231,15.695213 C62.9723485,13.5901696 61.6905201,11.6795174 60.1464157,9.96399565 C58.6008336,8.24921304 56.8616843,6.77982174 54.9267515,5.5573 C52.9918187,4.33477826 50.903953,3.38425652 48.6631545,2.70499565 C46.422356,2.02573478 44.0965948,1.68573478 41.6866097,1.68573478 C39.8868784,1.68573478 38.2060948,1.85573478 36.6457366,2.19499565 C33.4201097,2.87499565 30.4840948,4.13077826 27.8362142,5.9653 C25.1875948,7.79908261 22.9475351,10.1088652 21.1145575,12.8939087 L20.1976993,14.4216913 L15.716841,11.4666478 L20.4008709,4.23277826 L14.0360575,0.0559521739 L8.68931866,8.25734348 L19.6886619,15.4409522 C18.431953,17.9199957 17.6259157,20.5180391 17.2698112,23.2350826 C16.9129679,25.9528652 17.02305,28.6861696 17.6007963,31.437213 C18.0418634,33.4749957 18.7038336,35.3849087 19.5867067,37.1684304 C20.468841,38.9519522 21.5548858,40.6076043 22.8455799,42.135387 C20.7067366,42.203387 18.6011396,42.2122565 16.5310052,42.1605174 C14.4601321,42.1102565 12.5251993,41.982387 10.7262067,41.7791261 C8.92647537,41.5751261 7.32252761,41.2861261 5.91362463,40.9128652 C4.50472164,40.5396043 3.37582612,40.0466043 2.52767687,39.4353435 C1.64480373,38.7568217 1.18600522,38.0435609 1.15275896,37.2955609 C1.05080373,36.0730391 1.34780373,34.9266478 2.04375896,33.8571261 C2.73971418,32.7876043 3.64770672,31.7934739 4.76847537,30.8769522 C5.88850522,29.9604304 7.12748284,29.1444304 8.48540821,28.4311696 C9.84259478,27.7179087 11.0993037,27.1155174 12.2540575,26.6232565 C13.4073336,26.1309957 14.3840351,25.7488652 15.1819455,25.4768652 C15.9791172,25.2056043 16.3950649,25.0688652 16.42905,25.0688652 C16.7681619,24.9676043 16.8878485,24.7296043 16.7858933,24.3556043 C16.649953,24.0170826 16.4120575,23.8973435 16.0729455,23.9993435 C15.9709903,24.0333435 15.4782067,24.195213 14.5960724,24.4827348 C13.7131993,24.7724739 12.6611396,25.1878652 11.4391545,25.7318652 C10.2171694,26.2751261 8.90948284,26.9285174 7.51757239,27.6927783 C6.12566194,28.4570391 4.85269925,29.3321696 3.69868433,30.3166913 C2.5439306,31.3019522 1.61081866,32.3884739 0.897870896,33.5769957 C0.18566194,34.7655174 -0.103211194,36.0397783 0.0327291045,37.3975609 C0.133945522,38.5528217 0.727945522,39.5380826 1.8147291,40.3526043 C2.59490821,40.9291261 3.5967291,41.4051261 4.81945299,41.7791261 C6.04143806,42.152387 7.41635597,42.458387 8.94420672,42.6956478 C10.4713187,42.9329087 12.1173784,43.1036478 13.8831246,43.2049087 C15.6481321,43.3069087 17.464856,43.3579087 19.3318187,43.3579087 C20.0780127,43.3579087 20.8256843,43.3497783 21.5726172,43.3327783 C22.3188112,43.3150391 23.0827366,43.2899087 23.8636545,43.2566478 C26.1384381,45.6669522 28.8203037,47.5613435 31.9099903,48.9361261 C34.9981993,50.312387 38.2917963,50.9997783 41.7885649,50.9997783 C43.5875575,50.9997783 45.268341,50.8297783 46.8301769,50.4905174 C50.0550649,49.8105174 52.9918187,48.5458652 55.6396993,46.6950826 C58.2875799,44.8435609 60.5276396,42.5256478 62.361356,39.7413435 C63.2095052,38.4855609 63.922453,37.1263 64.5001993,35.6657783 C66.9101843,34.8172565 69.150244,33.9258652 71.221856,32.9908652 C73.2919903,32.0573435 75.1249679,31.0469522 76.7215276,29.9604304 C77.8748037,31.0469522 79.2076097,31.896213 80.7184679,32.5074739 C82.2285873,33.1187348 83.8502664,33.4239957 85.5812888,33.4239957 C87.3810201,33.4239957 89.0699306,33.0847348 90.6480201,32.4047348 C92.2268485,31.726213 93.6098933,30.7919522 94.7986321,29.6034304 C95.9866321,28.4149087 96.919744,27.0305174 97.5994455,25.4509957 C98.2784082,23.8714739 98.618259,22.1825609 98.618259,20.3827783 C98.618259,18.5822565 98.2784082,16.8926043 97.5994455,15.3130826 Z" id="Fill-3" fill="#000000" mask="url(#mask-2)"></path>
                </g>
                <path d="M88.6977424,26.9890796 C88.6977424,27.0184087 88.6874737,27.0321373 88.6677921,27.0321373 C88.6481105,27.0321373 88.6386975,27.0471139 88.6386975,27.075819 L88.5206078,27.2904836 L84.7460161,27.8926677 L84.3327021,27.075819 C84.2933389,27.0471139 84.274513,27.0184087 84.274513,26.9890796 L84.274513,26.9466459 L84.4516476,26.9466459 L88.5206078,26.9466459 L88.6977424,26.9466459 L88.6977424,26.9890796 Z M87.9310151,28.5372855 C87.8514329,28.6527301 87.7341989,28.7600624 87.576746,28.8605304 C87.419293,28.9609984 87.2421585,29.0109204 87.046198,29.0109204 L85.9252016,29.0109204 C85.7283855,29.0109204 85.532425,28.9397816 85.3356089,28.7962559 L87.9900599,28.3656786 L87.9310151,28.5372855 Z M88.5206078,26 L84.4516476,26 C83.9390698,26 83.5266116,26.1441498 83.2125615,26.4299532 C82.9763821,26.7457098 82.9370188,27.075819 83.0944718,27.4190328 L83.5077857,28.3226209 C83.4282035,28.4374415 83.4282035,28.5372855 83.5077857,28.6234009 C83.5077857,28.7388456 83.6250197,28.8536661 83.8611991,28.9678627 C84.0580152,29.2549142 84.3421151,29.4982839 84.7169215,29.69922 C85.0900165,29.900156 85.4922061,30 85.9252016,30 L87.046198,30 C87.4783379,30 87.9010648,29.900156 88.3143787,29.69922 C88.7268369,29.4982839 89.0117925,29.2405616 89.1692455,28.925429 L89.8769279,27.4190328 C90.0737441,27.0471139 90.0343809,26.7170047 89.7596939,26.4299532 C89.4832956,26.1441498 89.0708374,26 88.5206078,26 Z" id="Fill-6" fill="#000000"></path>
                <path d="M30.7265801,37.9355008 C30.6072576,37.857259 30.4643652,37.8490231 30.2949567,37.9121655 C29.8206129,37.9759943 29.3639464,37.9437367 28.9242209,37.8174518 C28.4844953,37.6918533 28.1117966,37.4550691 27.8075979,37.1077857 C27.5026625,36.7611886 27.2905336,36.3823339 27.1726842,35.9725944 C27.0540983,35.5628548 27.0791413,35.1373296 27.2492863,34.6946462 C27.3509314,34.3803066 27.2316089,34.1593081 26.8935285,34.0323369 C26.5208298,33.9383095 26.2843944,34.0494951 26.1827493,34.3638347 C25.9801957,34.9952591 25.9455774,35.6102116 26.0811042,36.2086922 C26.2158944,36.8078591 26.5046255,37.3445698 26.944351,37.8174518 C27.722157,38.6060461 28.6701081,39 29.7874677,39 C29.9561397,39 30.2102524,38.9691151 30.5490694,38.9052863 C30.7177414,38.8744014 30.845166,38.8037094 30.9298703,38.6925238 C31.013838,38.5820245 31.0226767,38.4481899 30.9549133,38.2903338 C30.9210316,38.1331641 30.845166,38.0144288 30.7265801,37.9355008" id="Fill-8" fill="#000000"></path>
                <path d="M54.7656731,17.0402096 C54.4477246,16.9330164 54.2092631,17.0402096 54.0509801,17.3610124 C53.9238006,17.7548309 54.0343914,18.0228139 54.384826,18.1641847 C55.2419048,18.5572264 55.7499313,19.2889365 55.9089055,20.359315 C55.9724953,20.8595499 55.924803,21.3419193 55.7658287,21.8048697 C55.6068544,22.2693735 55.3531868,22.6616385 55.0041345,22.9824414 C54.8769551,23.0546803 54.8133654,23.1789622 54.8133654,23.3576176 C54.8133654,23.5362729 54.8610577,23.6791972 54.9564423,23.7863904 C55.0518268,23.9293146 55.1783151,24 55.3372893,24 C55.4962636,24 55.6068544,23.9650457 55.6711353,23.8928068 C56.1784706,23.4298565 56.5441115,22.8760249 56.7666755,22.2336425 C56.9885483,21.5904833 57.0528292,20.9131465 56.9567534,20.1985252 C56.7666755,18.6651964 56.0353938,17.6111299 54.7656731,17.0402096" id="Fill-10" fill="#000000"></path>
                <path d="M89.8690016,18.0366954 C89.8361777,18.2603081 89.7869418,18.4569976 89.7212939,18.6290073 C89.6556461,18.8346712 89.5899982,19.0246298 89.5250639,19.1966396 C89.3930546,19.4718552 89.2460605,19.797178 89.0819409,20.1755995 C88.9178213,20.554021 88.7701136,20.8800917 88.6395314,21.1553074 L87.2131177,24.1445381 C87.1474698,24.2477439 87.06541,24.3502019 86.9676518,24.4541557 C86.86918,24.5573615 86.7707082,24.6433664 86.6722364,24.7121703 L88.3441161,17.8041083 L85.9344116,19.4539064 L84.6557055,15.0212893 L84.0163525,19.2474946 L81.2134745,17.6492995 L83.3277636,24.6598195 C83.0979961,24.5229596 82.93459,24.3502019 82.8361182,24.1445381 L81.3604686,21.1553074 C81.2291729,20.8800917 81.0814652,20.554021 80.9180591,20.1755995 C80.7539395,19.797178 80.6062318,19.4718552 80.4749361,19.1966396 C80.4092882,19.0246298 80.3436404,18.8346712 80.2787061,18.6290073 C80.2123447,18.4569976 80.1631088,18.2603081 80.1309984,18.0366954 C80.0981745,17.8130827 80.0817625,17.5640425 80.0817625,17.2888268 C80.0817625,15.8454405 80.5569959,14.6256668 81.5081763,13.628758 C82.458643,12.6325971 83.6231789,12.1337688 85.0003568,12.1337688 C86.3768211,12.1337688 87.5406434,12.6325971 88.4918237,13.628758 C89.4422905,14.6256668 89.9182375,15.8454405 89.9182375,17.2888268 C89.9182375,17.5640425 89.901112,17.8130827 89.8690016,18.0366954 Z M85.541238,24.5050107 L84.4102396,24.5050107 L83.0822977,20.0207907 L84.8526491,21.0513536 L85.0003568,20.1755995 L85.2950586,21.3093683 L86.5737646,20.4328663 L85.541238,24.5050107 Z M89.2546233,12.8367652 C88.7130285,12.2676372 88.0736754,11.819664 87.3365642,11.4913497 C86.5987394,11.1645311 85.8195279,11 85.0003568,11 C84.1797586,11 83.4019742,11.1645311 82.6641494,11.4913497 C81.9263246,11.819664 81.2869715,12.2676372 80.7460903,12.8367652 C80.205209,13.4051453 79.7784979,14.0774792 79.4666706,14.8530189 C79.1548433,15.6293065 79,16.4489704 79,17.310515 C79,17.9663958 79.0734971,18.5183228 79.2212047,18.9655482 C79.3689124,19.4142693 79.4588214,19.6558309 79.4916454,19.6902328 C79.6222275,19.9661963 79.7699352,20.3027372 79.9340548,20.6991075 C80.0981745,21.0954779 80.2458821,21.4320187 80.3771779,21.7072344 L81.8528275,24.7069352 C82.0162336,25.0868525 82.295237,25.3972179 82.6884105,25.6387795 C83.0822977,25.880341 83.4583457,26 83.8194089,26 L86.229827,26 C86.6230005,26 87.0083249,25.880341 87.3858001,25.6387795 C87.7618481,25.3972179 88.0322888,25.0868525 88.197122,24.7069352 L89.6235357,21.7072344 C89.7541179,21.4320187 89.901112,21.0954779 90.0659452,20.6991075 C90.2293513,20.3027372 90.3770589,19.9661963 90.5083546,19.6902328 C90.540465,19.6558309 90.6310876,19.4142693 90.7787953,18.9655482 C90.9265029,18.5183228 91,17.9663958 91,17.310515 C91,16.4489704 90.8444431,15.6293065 90.5333294,14.8530189 C90.2215021,14.0774792 89.7955045,13.4051453 89.2546233,12.8367652 Z" id="Fill-12" fill="#000000"></path>
                <path d="M47.6218761,34.0571587 C47.4797644,33.9905721 47.3384209,33.9818869 47.1978456,34.0325506 C47.0565021,34.0817669 46.9504944,34.1903321 46.8805908,34.356075 C46.4212244,35.2875646 45.6799392,35.8028875 44.6567351,35.9027675 C43.5981952,36.0026475 42.7509023,35.6530675 42.1156247,34.855475 C41.8682735,34.555835 41.5863547,34.5232654 41.2683318,34.755595 C40.9503089,34.9886483 40.914973,35.2542712 41.1623242,35.5531875 C41.5502507,36.0200179 42.0180669,36.3768356 42.5650049,36.6265356 C43.1119428,36.8762356 43.6849985,37 44.2864766,37 L44.7627428,37 C46.2798809,36.8342571 47.3384209,36.1025275 47.939899,34.805535 C48.0098026,34.6730854 48.0190206,34.5305031 47.9660168,34.3814069 C47.913013,34.2315869 47.7977873,34.1244692 47.6218761,34.0571587" id="Fill-14" fill="#000000"></path>
                <path d="M42.0337483,9.45242126 C42.8777463,8.90938008 43.8320396,8.77406296 44.8982265,9.0452881 C45.8900841,9.31710414 46.5134918,9.84655453 46.7708472,10.6336392 C46.8443774,10.8776828 47.0465852,11 47.3774708,11 L47.4869668,11 C47.8913825,10.9456368 48.0560261,10.7695473 47.9832952,10.4711405 C47.6524096,9.33010404 46.7524647,8.57079183 45.2834605,8.18965846 C44.5857235,7.99997814 43.8791948,7.95270578 43.1630752,8.04725049 C42.4469557,8.14297701 41.8131579,8.3669298 41.2624811,8.71969975 C40.9323947,8.93715259 40.913213,9.15401452 41.2073335,9.37087645 C41.5006548,9.61491998 41.7763928,9.64269249 42.0337483,9.45242126" id="Fill-16" fill="#000000"></path>
            </g>
        </g>
    </g>
</svg>