<?xml version="1.0" encoding="UTF-8"?>
<svg width="55px" height="70px" viewBox="0 0 55 70" version="1.1" xmlns="http://www.w3.org/2000/svg" xmlns:xlink="http://www.w3.org/1999/xlink">
    <!-- Generator: Sketch 48.2 (47327) - http://www.bohemiancoding.com/sketch -->
    <title>Group 57</title>
    <desc>Created with Sketch.</desc>
    <defs></defs>
    <g id="Page-1-Copy" stroke="none" stroke-width="1" fill="none" fill-rule="evenodd">
        <g id="Group-57" transform="translate(-24.000000, 0.000000)">
            <rect id="Rectangle-4" x="0" y="0" width="103" height="70"></rect>
            <g id="Group-18" transform="translate(24.000000, 0.000000)" fill="#000000">
                <path d="M50.954,49.7729286 C49.5168571,51.2100714 47.6632857,51.9279286 45.3932857,51.9279286 L42.4732857,51.9279286 L42.4732857,36.5650714 L45.3932857,36.5650714 C47.6632857,36.5650714 49.5168571,37.2722143 50.954,38.6857857 C52.3904286,40.0993571 53.1097143,41.9415 53.1097143,44.2115 C53.1097143,46.4829286 52.3904286,48.3365 50.954,49.7729286 Z M41.3611429,63.0500714 C41.3611429,64.5793571 40.8504286,65.8536429 39.8318571,66.8729286 C38.8118571,67.8922143 37.5382857,68.4029286 36.0082857,68.4029286 L10.0797143,68.4029286 C8.59614286,68.4029286 7.34471429,67.8815 6.32614286,66.8393571 C5.30614286,65.7965 4.79614286,64.5329286 4.79614286,63.0500714 L4.79614286,31.8379286 L6.25614286,31.8379286 L16.8918571,31.8379286 L17.7954286,31.8379286 L33.0197143,31.8379286 L41.3611429,31.8379286 L41.3611429,63.0500714 Z M2.57185714,22.0365 L8.68971429,18.0043571 L15.0847143,30.7257857 L6.95185714,30.7257857 L2.57185714,22.0365 Z M1.39042857,13.4857857 L7.85542857,17.1700714 L2.294,20.9243571 L1.39042857,13.4857857 Z M18.9082857,1.2515 L31.9068571,1.2515 L31.9068571,7.16007143 L25.4418571,7.16007143 L25.4418571,8.34221429 L31.9068571,8.34221429 L31.9068571,11.8872143 L27.7361429,11.8872143 L27.7361429,12.9993571 L31.9068571,12.9993571 L31.9068571,16.6143571 L25.4418571,16.6143571 L25.4418571,17.7265 L31.9068571,17.7265 L31.9068571,23.6350714 L27.7361429,23.6350714 L27.7361429,24.8172143 L31.9068571,24.8172143 L31.9068571,30.7257857 L18.9082857,30.7257857 L18.9082857,1.2515 Z M41.9175714,17.1700714 C42.1018571,17.3093571 42.2875714,17.4029286 42.4732857,17.4486429 C42.7518571,17.5415 43.029,17.6343571 43.3075714,17.7265 C43.5861429,17.8200714 43.8632857,17.8893571 44.1418571,17.9350714 L39.2754286,30.7257857 L34.4797143,30.7257857 L41.9175714,17.1700714 Z M40.5268571,14.1115 C40.0632857,13.1386429 40.0861429,12.0500714 40.5968571,10.8443571 C40.7354286,10.5207857 40.9204286,10.2079286 41.1525714,9.90578571 C41.384,9.60507143 41.639,9.26935714 41.9175714,8.89792857 C42.2411429,8.48078571 42.5882857,8.01792857 42.9604286,7.50792857 C43.3304286,6.99864286 43.6204286,6.45435714 43.829,5.87435714 C44.0375714,5.29507143 44.1532857,4.66935714 44.1768571,3.99721429 C44.1997143,3.32578571 44.0482857,2.59578571 43.7247143,1.80721429 C44.8825714,2.22435714 45.8554286,2.80435714 46.6447143,3.54507143 C47.4318571,4.28721429 48.0568571,5.10935714 48.5211429,6.01292857 C48.984,6.9165 49.2968571,7.85507143 49.4597143,8.82864286 C49.6218571,9.8015 49.6332857,10.7522143 49.4947143,11.6786429 C49.3554286,12.9765 48.9147143,14.1700714 48.1732857,15.2586429 C47.4318571,16.3479286 46.389,16.8922143 45.0461429,16.8922143 C44.3032857,16.8922143 43.5861429,16.7300714 42.8904286,16.4057857 C41.7318571,15.8965 40.944,15.1315 40.5268571,14.1115 Z M51.7532857,37.9200714 C50.1075714,36.2757857 47.9882857,35.4529286 45.3932857,35.4529286 L42.4732857,35.4529286 L42.4732857,30.7257857 L40.4575714,30.7257857 L45.254,18.0043571 C46.6447143,17.9122143 47.8261429,17.2986429 48.799,16.1622143 C49.7725714,15.0272143 50.374,13.5793571 50.6068571,11.8179286 C50.7454286,10.7057857 50.699,9.54792857 50.4675714,8.34221429 C50.2354286,7.13721429 49.8075714,6.00221429 49.1818571,4.93578571 C48.5561429,3.87007143 47.7097143,2.9315 46.6447143,2.12007143 C45.5782857,1.31007143 44.2804286,0.719357143 42.7518571,0.347928571 L41.3611429,7.14285716e-05 L42.1261429,1.18221429 C42.6354286,1.97078571 42.9361429,2.6765 43.029,3.30221429 C43.1218571,3.92792857 43.0754286,4.53078571 42.8904286,5.10935714 C42.7047143,5.68935714 42.4382857,6.23364286 42.0911429,6.74292857 C41.7432857,7.25364286 41.384,7.74007143 41.0132857,8.20292857 C40.7354286,8.57435714 40.4682857,8.94435714 40.214,9.31507143 C39.9582857,9.6865 39.7382857,10.0565 39.554,10.4272143 C38.904,11.8179286 38.8818571,13.2079286 39.484,14.5979286 C39.7625714,15.3865 40.2718571,16.0350714 41.0132857,16.5443571 L33.2282857,30.7257857 L33.0197143,30.7257857 L33.0197143,0.139357143 L17.7954286,0.139357143 L17.7954286,30.7257857 L16.3354286,30.7257857 L9.38471429,16.7529286 L0.000428571428,11.4007857 L1.32042857,21.9665 L1.32042857,22.0365 L5.70042857,30.7257857 L3.68471429,30.7257857 L3.68471429,63.0500714 C3.68471429,64.8572143 4.29828571,66.3872143 5.52685714,67.6386429 C6.754,68.8893571 8.27257143,69.5150714 10.0797143,69.5150714 L36.0082857,69.5150714 C37.8618571,69.5150714 39.4025714,68.9000714 40.6311429,67.6729286 C41.859,66.4443571 42.4732857,64.9036429 42.4732857,63.0500714 L42.4732857,53.0400714 L45.3932857,53.0400714 C47.9882857,53.0400714 50.1075714,52.2179286 51.7532857,50.5722143 C53.3982857,48.9272143 54.2211429,46.8079286 54.2211429,44.2115 C54.2211429,41.6629286 53.3982857,39.5657857 51.7532857,37.9200714 Z" id="Fill-1"></path>
                <path d="M26.2762857,41.1527143 C25.952,40.9684286 25.557,40.9905714 25.0948571,41.2227143 L25.0948571,41.292 L25.0248571,41.2227143 C24.8391429,40.852 24.5148571,40.6205714 24.052,40.527 C23.5877143,40.4348571 23.2405714,40.597 23.0091429,41.0141429 L23.9127143,41.6398571 L23.9827143,41.6398571 L23.9827143,41.7091429 C24.167,42.0805714 24.422,42.2891429 24.747,42.3348571 C24.8391429,42.3348571 24.897,42.347 24.9212857,42.3691429 C24.9441429,42.3934286 25.0012857,42.4041429 25.0948571,42.4041429 C25.3262857,42.4041429 25.557,42.3348571 25.7898571,42.1955714 C25.7898571,42.1498571 25.8127143,42.1498571 25.8591429,42.1955714 L26.972,42.1262857 C26.972,41.6162857 26.7391429,41.292 26.2762857,41.1527143" id="Fill-4"></path>
                <path d="M27.5277143,47.2010714 C27.5277143,47.2467857 27.5041429,47.2703571 27.4577143,47.2703571 L27.4577143,47.3396429 L27.2491429,48.4517857 L27.4577143,48.4517857 C27.8284286,48.4517857 28.1298571,48.3132143 28.362,48.0346429 C28.6405714,47.6639286 28.7091429,47.2703571 28.5705714,46.8532143 L27.5277143,47.2010714 Z" id="Fill-6"></path>
                <path d="M33.0194286,45.4627857 C33.0194286,45.8799286 32.8908571,46.2392143 32.6372857,46.5406429 C32.3815714,46.8427857 32.0687143,47.0392143 31.698,47.1313571 L31.3508571,47.2013571 L31.2815714,47.4785 C30.6787143,48.8235 29.6587143,49.6113571 28.223,49.8420714 L28.0144286,49.9120714 L27.8751429,50.0506429 C27.458,50.5142143 26.948,50.7927857 26.3458571,50.8849286 L26.3458571,50.8156429 L24.8165714,50.6070714 L24.5387143,50.3985 L24.3301429,50.5370714 L23.4958571,50.3985 L23.4958571,50.8156429 C22.9851429,50.9092143 22.4987143,50.8392143 22.0358571,50.6070714 L21.9665714,50.4677857 L21.8272857,50.4677857 L21.758,50.4677857 L21.6187143,50.5370714 L19.7415714,50.7456429 L19.7415714,50.8849286 C19.0465714,50.7456429 18.513,50.3527857 18.143,49.7035 L18.0044286,49.4256429 L17.7258571,49.4256429 C16.8922857,49.3327857 16.173,49.0320714 15.5708571,48.5213571 L15.3622857,48.3827857 L15.0851429,48.3827857 C14.5744286,48.4763571 14.1108571,48.3477857 13.6937143,48.0006429 C13.2772857,47.6520714 13.0687143,47.2249286 13.0687143,46.7142143 C13.0687143,45.9263571 13.4615714,45.3706429 14.2508571,45.0456429 L14.4594286,44.9763571 L14.528,44.6985 C14.8987143,43.6792143 15.5708571,42.9842143 16.5444286,42.6127857 L16.8222857,42.4735 L16.8922857,42.1956429 C16.9844286,41.5942143 17.2501429,41.1070714 17.6915714,40.7356429 C18.1308571,40.3649286 18.653,40.1799286 19.2551429,40.1799286 C19.5337143,40.1799286 19.7415714,40.2035 19.8808571,40.2492143 L20.2287143,40.3192143 L20.4372857,40.1106429 C21.2715714,39.4149286 22.1744286,39.0677857 23.1487143,39.0677857 C24.2601429,39.0677857 25.2094286,39.4620714 25.9987143,40.2492143 L26.2765714,40.4577857 L26.6244286,40.3192143 C26.9937143,40.2263571 27.3194286,40.1799286 27.5972857,40.1799286 C28.2451429,40.1799286 28.7894286,40.3885 29.2308571,40.8049286 C29.6708571,41.2220714 29.9137143,41.7563571 29.9608571,42.4042143 L29.9608571,42.6127857 L30.1694286,42.7520714 C30.3544286,42.8906429 30.5865714,43.1463571 30.8644286,43.5163571 L31.0037143,43.7249286 L31.3508571,43.7249286 C31.8144286,43.7249286 32.208,43.8877857 32.5322857,44.2113571 C32.8558571,44.5363571 33.0194286,44.9535 33.0194286,45.4627857 Z M22.6615714,51.9277857 C22.9851429,51.9742143 23.3101429,51.9742143 23.6344286,51.9277857 C23.6344286,52.2056429 23.623,52.4492143 23.5994286,52.6577857 C23.5758571,52.8663571 23.5187143,52.9942143 23.4258571,53.0399286 C23.2408571,52.9477857 22.9851429,52.5770714 22.6615714,51.9277857 Z M21.2715714,61.3120714 C21.3637143,60.8020714 21.468,60.1306429 21.5837143,59.2963571 C21.6987143,58.4620714 21.758,57.5813571 21.758,56.6549286 C21.758,55.7270714 21.6887143,54.8363571 21.5494286,53.9785 C21.4101429,53.1213571 21.2944286,52.4385 21.2015714,51.9277857 L21.3408571,51.8585 C21.8037143,52.8313571 22.2094286,53.4692143 22.558,53.7699286 C22.9051429,54.0720714 23.1937143,54.2220714 23.4258571,54.2220714 C23.7494286,54.2220714 24.028,54.0827857 24.2601429,53.8049286 C24.4922857,53.5727857 24.6308571,53.2727857 24.6772857,52.9006429 C24.7237143,52.5306429 24.7472857,52.1599286 24.7472857,51.7885 C24.8394286,51.8356429 24.9094286,51.8585 24.9558571,51.8585 C25.0008571,51.8585 25.0708571,51.8820714 25.1644286,51.9277857 C25.1172857,52.2527857 25.083,52.6577857 25.0594286,53.1442143 C25.0358571,53.6313571 24.978,54.1299286 24.8858571,54.6392143 C24.7922857,55.0099286 24.7694286,55.4849286 24.8165714,56.0642143 C24.8622857,56.6427857 24.9208571,57.2570714 24.9908571,57.9063571 C25.0594286,58.5542143 25.1401429,59.1799286 25.2337143,59.7827857 C25.3258571,60.3849286 25.418,60.8949286 25.5115714,61.3120714 L21.2715714,61.3120714 Z M31.073,42.0563571 C30.9337143,41.1770714 30.5394286,40.4577857 29.8908571,39.9020714 C29.2415714,39.3456429 28.4772857,39.0677857 27.5972857,39.0677857 C27.1337143,39.0677857 26.7858571,39.1142143 26.5544286,39.2063571 C25.5815714,38.3720714 24.4451429,37.9549286 23.1487143,37.9549286 C21.9894286,37.9549286 20.8994286,38.3270714 19.8808571,39.0677857 L19.2551429,39.0677857 C18.4665714,39.0677857 17.7608571,39.3113571 17.1351429,39.7970714 C16.5094286,40.2842143 16.0801429,40.9220714 15.8494286,41.7092143 C14.8294286,42.1735 14.0644286,42.9842143 13.5551429,44.1420714 C13.0451429,44.3749286 12.6522857,44.7220714 12.3737143,45.1842143 C12.0958571,45.6485 11.9565714,46.1585 11.9565714,46.7142143 C11.9565714,47.5020714 12.2572857,48.1977857 12.8601429,48.7999286 C13.4615714,49.4027857 14.1808571,49.6577857 15.0151429,49.5642143 C15.8022857,50.1206429 16.5901429,50.4220714 17.3787143,50.4677857 C17.6565714,50.9313571 18.0387143,51.3020714 18.5258571,51.5799286 C19.0122857,51.8585 19.5337143,51.9970714 20.0894286,51.9970714 C20.1815714,52.5077857 20.298,53.1792143 20.4372857,54.0135 C20.5758571,54.8477857 20.6458571,55.7270714 20.6458571,56.6549286 C20.6458571,57.9063571 20.5415714,59.0527857 20.333,60.0956429 C20.1244286,61.1385 20.0201429,61.6827857 20.0201429,61.7292143 L19.8808571,62.4242143 L26.1372857,62.4242143 L26.8322857,62.4242143 L26.6937143,61.7292143 C26.6001429,61.3577857 26.508,60.8485 26.4158571,60.1999286 C26.3222857,59.5506429 26.2294286,58.8792143 26.1372857,58.1842143 C26.0437143,57.4892143 25.9744286,56.8285 25.9287143,56.2027857 C25.8822857,55.5770714 25.8822857,55.1027857 25.9287143,54.7777857 C26.0208571,54.2685 26.0908571,53.7699286 26.1372857,53.2835 C26.183,52.7970714 26.2294286,52.3685 26.2765714,51.9970714 C27.2022857,51.9970714 27.968,51.6270714 28.5701429,50.8849286 C30.2387143,50.6070714 31.4437143,49.7035 32.1851429,48.1742143 C32.7872857,47.9892143 33.263,47.6520714 33.6101429,47.1663571 C33.9572857,46.6792143 34.1315714,46.1120714 34.1315714,45.4627857 C34.1315714,44.7220714 33.8887143,44.0842143 33.4015714,43.5513571 C32.9151429,43.0192143 32.3001429,42.7063571 31.5594286,42.6127857 C31.4658571,42.4735 31.3044286,42.2892143 31.073,42.0563571 Z" id="Fill-8"></path>
                <path d="M24.8163571,45.324 L24.1213571,46.2275714 C24.3063571,46.3668571 24.5385,46.4361429 24.8163571,46.4361429 C25.0477857,46.4361429 25.2099286,46.4132857 25.3035,46.3668571 C25.6735,46.2275714 25.9049286,45.9268571 25.9985,45.4625714 L24.8863571,45.324 L24.8163571,45.324 Z" id="Fill-10"></path>
                <path d="M20.0897857,47.9656429 L20.0197857,47.8956429 C20.0197857,47.5256429 19.8812143,47.2249286 19.6026429,46.9927857 C19.3255,46.7606429 19.0005,46.6913571 18.6297857,46.7842143 C18.5833571,46.7842143 18.5597857,46.7606429 18.5597857,46.7142143 L18.4912143,46.6442143 L17.4483571,46.3670714 C17.3090714,46.7842143 17.4012143,47.1549286 17.7255,47.4785 C18.0497857,47.8506429 18.4212143,47.9656429 18.8383571,47.8263571 L18.9083571,47.8956429 C18.9083571,48.4063571 19.1169286,48.7542143 19.5340714,48.9385 C19.7176429,49.0320714 19.9040714,49.0777857 20.0897857,49.0777857 C20.2283571,49.0777857 20.4369286,49.0320714 20.7155,48.9385 L20.1590714,47.9656429 L20.0897857,47.9656429 Z" id="Fill-12"></path>
                <path d="M19.0469286,43.5857143 L19.1169286,43.5857143 L19.8812143,42.7521429 C19.5090714,42.4735714 19.1169286,42.4042857 18.6997857,42.5435714 C18.2826429,42.6821429 18.0269286,42.9842857 17.9340714,43.4471429 L19.0469286,43.6557143 L19.0469286,43.5857143 Z" id="Fill-14"></path>
            </g>
        </g>
    </g>
</svg>