<?xml version="1.0" encoding="UTF-8"?>
<svg width="77px" height="63px" viewBox="0 0 77 63" version="1.1" xmlns="http://www.w3.org/2000/svg" xmlns:xlink="http://www.w3.org/1999/xlink">
    <!-- Generator: Sketch 48.2 (47327) - http://www.bohemiancoding.com/sketch -->
    <title>Group 55</title>
    <desc>Created with Sketch.</desc>
    <defs>
        <polygon id="path-1" points="0.172636585 0.8211 73.9422439 0.8211 73.9422439 33.9997316 0.172636585 33.9997316"></polygon>
    </defs>
    <g id="Page-1-Copy" stroke="none" stroke-width="1" fill="none" fill-rule="evenodd">
        <g id="Group-55" transform="translate(-13.000000, -7.000000)">
            <rect id="Rectangle-4" x="0" y="0" width="103" height="70"></rect>
            <g id="COMPUTER" transform="translate(13.000000, 7.000000)">
                <path d="M56.5477404,46.9481911 L6.35205432,46.9481911 C5.60480696,46.9481911 4.90906275,46.8153688 4.26572524,46.5461344 C3.62148417,46.278695 3.06127454,45.908049 2.58419279,45.4332991 C2.10620748,44.9594466 1.73213202,44.4021314 1.46286998,43.7622511 C1.19270437,43.1232682 1.05807334,42.4537721 1.05807334,41.7528653 L1.05807334,6.30905861 C1.05807334,4.86506497 1.57671903,3.62838179 2.61581753,2.59721417 C3.65220534,1.566944 4.89821998,1.05091147 6.35205432,1.05091147 L63.6470421,1.05091147 C65.0999729,1.05091147 66.3459875,1.566944 67.3832789,2.59721417 C68.4214738,3.62838179 68.9410231,4.86506497 68.9410231,6.30905861 L68.8958449,27.2725437 L69.9882537,27.2725437 L70,6.30905861 C70,5.44302141 69.8328407,4.62903618 69.5012327,3.86530803 C69.1687212,3.10337478 68.7124214,2.43298121 68.1314298,1.85502477 C67.5495347,1.27796578 66.875476,0.823857156 66.1074467,0.493596335 C65.3385138,0.164232963 64.5189813,0 63.6470421,0 L6.35205432,0 C5.48011514,0 4.65967911,0.164232963 3.89164978,0.493596335 C3.12362045,0.823857156 2.44865821,1.27796578 1.86766661,1.85502477 C1.28577145,2.43298121 0.829471673,3.10337478 0.497863717,3.86530803 C0.165352196,4.62903618 0,5.44302141 0,6.30905861 L0,41.7528653 C0,42.6189025 0.165352196,43.4328877 0.497863717,44.1957184 C0.829471673,44.9594466 1.28577145,45.6190708 1.86766661,46.1754885 C2.44865821,46.7319061 3.12362045,47.1752454 3.89164978,47.5046088 C4.65967911,47.835767 5.48011514,48 6.35205432,48 L56.5097908,48 L56.5477404,46.9481911 Z" id="Fill-1" fill="#000000"></path>
                <path d="M52.9497481,28.1566597 C52.9497481,29.0422129 52.7838244,29.8864709 52.4537709,30.6866807 C52.1246142,31.4878081 51.6815532,32.1944153 51.1263816,32.804667 C50.5694162,33.4167541 49.9093091,33.9022024 49.1469572,34.2600944 C48.3846052,34.618904 47.5711309,34.8198741 46.7056372,34.8611694 L46.5199821,34.8611694 L26.5526392,34.8611694 C25.0279353,34.8611694 23.740009,34.3234137 22.689757,33.2479025 C21.6386082,32.1733089 21.1130338,30.8555322 21.1130338,29.2945726 C21.1130338,27.7354483 21.6386082,26.4167541 22.689757,25.3421605 C23.740009,24.2666492 25.0279353,23.7288936 26.5526392,23.7288936 C27.2118494,23.7288936 27.891688,23.8555322 28.5930518,24.1088096 L29.2737872,24.4254064 L29.3347754,23.6655742 C29.3751352,22.612087 29.6029439,21.6210016 30.0146139,20.6923178 C30.426284,19.7654693 30.9724867,18.9643419 31.6532222,18.2889355 C32.3330608,17.6153644 33.1357725,17.0776088 34.0640481,16.6765863 C34.9914268,16.2764814 35.9690311,16.0755113 37.0004484,16.0755113 C38.6076657,16.0755113 40.0695877,16.5499476 41.388905,17.4988201 C42.7073254,18.4476927 43.6553325,19.70215 44.2329262,21.2621919 L44.4185813,21.7054274 L44.8517766,21.5787887 C45.0984199,21.5365758 45.3450632,21.5053749 45.5926033,21.4842685 C45.8392466,21.4622444 46.0876837,21.4512323 46.3352238,21.4512323 C47.2410773,21.4512323 48.0967053,21.6320136 48.899417,21.9889879 C49.7039226,22.3487153 50.4043895,22.8231515 51.0017146,23.4122968 C51.5990398,24.0041951 52.0725949,24.708967 52.4241737,25.5321185 C52.7730618,26.3534347 52.9497481,27.2288936 52.9497481,28.1566597 M49.3326123,20.9465128 C48.4061305,20.5253015 47.4052072,20.3133193 46.3352238,20.3133193 C46.1289404,20.3133193 45.92176,20.3243314 45.7172703,20.3445202 C45.51009,20.3665443 45.3038065,20.3986628 45.0984199,20.439958 C44.3970561,18.7954903 43.3154132,17.4777137 41.8525944,16.4866282 C40.3897755,15.4964604 38.7708987,15 37.0004484,15 C35.8883115,15 34.8264001,15.2009701 33.816508,15.601075 C32.8066158,16.0030152 31.9204938,16.5609596 31.1581419,17.2776612 C30.3957899,17.9952805 29.7572081,18.8266911 29.2414994,19.7755637 C28.7266876,20.7244363 28.4082935,21.7678291 28.2836266,22.9066597 C27.7894431,22.7387257 27.2118494,22.6533823 26.5526392,22.6533823 C25.6458888,22.6533823 24.8010235,22.8332459 24.0189401,23.1911379 C23.2350629,23.5499476 22.5444617,24.0243838 21.9480334,24.6144468 C21.3498114,25.2054274 20.8753594,25.9010225 20.5255744,26.7012323 C20.1757894,27.5032774 20,28.3677242 20,29.2945726 C20,30.2232564 20.1757894,31.0877032 20.5255744,31.887913 C20.8753594,32.6890404 21.3498114,33.3965653 21.9480334,34.006817 C22.5444617,34.618904 23.2350629,35.1034347 24.0189401,35.4622444 C24.8010235,35.821054 25.6458888,36 26.5526392,36 L46.7675222,36 L47.2617057,35.9366807 C49.1980796,35.6834033 50.8052969,34.8290509 52.0833575,33.3754588 C53.3605212,31.9200315 54,30.1801259 54,28.1566597 C54,27.1031725 53.8044791,26.0909806 53.4125406,25.1200839 C53.020602,24.1510225 52.4752961,23.3177766 51.7739323,22.6221814 C51.0734654,21.9265863 50.259991,21.3686418 49.3326123,20.9465128" id="Fill-3" fill="#000000"></path>
                <path d="M69,6.52986348 C69,6.17662116 68.8126517,6 68.4379551,6 L3.5620449,6 C3.1873483,6 3,6.17662116 3,6.52986348 C3,6.84385666 3.1873483,7 3.5620449,7 L68.4379551,7 C68.8126517,7 69,6.84385666 69,6.52986348" id="Fill-5" fill="#000000"></path>
                <path d="M61,34.5 C61,34.8330645 61.1645683,35 61.4964029,35 L75.5035971,35 C75.8336331,35 76,34.8330645 76,34.5 C76,34.166129 75.8336331,34 75.5035971,34 L61.4964029,34 C61.1645683,34 61,34.166129 61,34.5" id="Fill-7" fill="#000000"></path>
                <path d="M55.4314169,61.9123321 L21.5676732,61.9123321 C21.2328481,61.9123321 21.0654355,61.7404973 21.0654355,61.3996142 C21.0654355,61.0578022 21.2328481,60.8868963 21.5676732,60.8868963 L55.4314169,60.8868963 C55.7653322,60.8868963 55.9336547,61.0578022 55.9336547,61.3996142 C55.9336547,61.7404973 55.7653322,61.9123321 55.4314169,61.9123321 Z M32.2156593,51.0059303 L44.2711848,51.0226493 L45.8989082,59.6468991 L30.5979442,59.6468991 L32.2156593,51.0059303 Z M55.4314169,59.7992284 L47.0253037,59.7992284 L44.9581223,50.0789511 L31.2493975,50 L29.4460729,59.7992284 L21.5676732,59.7992284 C21.1072886,59.7992284 20.7306103,59.9487711 20.439458,60.2469277 C20.1455762,60.5450843 20,60.9296227 20,61.3996142 C20,61.8686768 20.1455762,62.2532152 20.439458,62.5513718 C20.7306103,62.8504573 21.1072886,63 21.5676732,63 L55.4314169,63 C55.8918015,63 56.26757,62.8504573 56.560542,62.5513718 C56.8526041,62.2532152 57,61.8686768 57,61.3996142 C57,60.9296227 56.8526041,60.5450843 56.560542,60.2469277 C56.26757,59.9487711 55.8918015,59.7992284 55.4314169,59.7992284 Z" id="Fill-9" fill="#000000"></path>
                <g id="Group-13" transform="translate(3.000000, 28.000000)">
                    <mask id="mask-2" fill="white">
                        <use xlink:href="#path-1"></use>
                    </mask>
                    <g id="Clip-12"></g>
                    <path d="M72.8848561,30.7312579 C72.8848561,31.3477316 72.6673683,31.8720474 72.2314902,32.3042053 C71.7965146,32.7354684 71.2676854,32.9511 70.6468073,32.9511 L59.3870756,32.9511 C58.7652951,32.9511 58.2373683,32.7354684 57.8005878,32.3042053 C57.3656122,31.8720474 57.1490268,31.3477316 57.1490268,30.7312579 L57.1490268,28.8317316 C57.2401732,28.9015211 57.3601976,28.9426789 57.5217341,28.9426789 L71.5167585,28.9426789 C71.8894659,28.9426789 72.0762707,28.7583632 72.0762707,28.3879421 C72.0762707,28.0184158 71.8894659,27.8332053 71.5167585,27.8332053 L57.5217341,27.8332053 C57.3601976,27.8332053 57.2401732,27.8743632 57.1490268,27.9441526 L57.1490268,4.02783684 C57.1490268,3.45341579 57.3656122,2.94878421 57.8005878,2.51752105 C58.2373683,2.08536316 58.7652951,1.86973158 59.3870756,1.86973158 L70.6468073,1.86973158 C71.2676854,1.86973158 71.7965146,2.08536316 72.2314902,2.51752105 C72.6673683,2.94878421 72.8848561,3.45341579 72.8848561,4.02783684 L72.8848561,30.7312579 Z M72.9787098,1.74625789 C72.3352707,1.12978421 71.5573683,0.8211 70.6468073,0.8211 L59.3870756,0.8211 C58.4747098,0.8211 57.6968073,1.12978421 57.0551732,1.74625789 C56.4117341,2.36362632 56.0913683,3.12504737 56.0913683,4.02783684 L56.0913683,14.6975737 L0.669880488,14.6975737 C0.337782927,14.6975737 0.172636585,14.8622053 0.172636585,15.1905737 C0.172636585,15.5609947 0.337782927,15.7453105 0.669880488,15.7453105 L56.0913683,15.7453105 L56.0913683,30.7312579 C56.0913683,31.6358368 56.4117341,32.4062053 57.0551732,33.0441526 C57.6968073,33.6812053 58.4747098,33.9997316 59.3870756,33.9997316 L70.6468073,33.9997316 C71.5573683,33.9997316 72.3352707,33.6812053 72.9787098,33.0441526 C73.6203439,32.4062053 73.9425146,31.6358368 73.9425146,30.7312579 L73.9425146,4.02783684 C73.9425146,3.12504737 73.6203439,2.36362632 72.9787098,1.74625789 Z" id="Fill-11" fill="#000000" mask="url(#mask-2)"></path>
                </g>
                <path d="M71.5916197,46.6908234 L71.2126056,47.0623738 L67.9314789,50.2788871 L65.1557042,47.6188019 L65.2188732,47.6188019 L64.2090845,46.6908234 C63.7888732,46.2788871 63.5773944,45.82477 63.5773944,45.3293695 C63.5773944,44.835764 63.7669014,44.4022885 64.1459155,44.0307382 C64.5249296,43.6600853 64.9671127,43.4743101 65.4706338,43.4743101 C66.0171831,43.4743101 66.4694366,43.6600853 66.8283099,44.0307382 C67.1844366,44.4022885 67.3647887,44.835764 67.3647887,45.3293695 L68.436831,45.3293695 C68.436831,44.835764 68.626338,44.4022885 69.0044366,44.0307382 C69.3834507,43.6600853 69.8247183,43.4743101 70.3291549,43.4743101 C70.834507,43.4743101 71.2766901,43.6600853 71.6538732,44.0307382 C72.0328873,44.4022885 72.2223944,44.835764 72.2223944,45.3293695 C72.2223944,45.82477 72.011831,46.2788871 71.5916197,46.6908234 M72.1903521,41.4020642 C72.0850704,41.5061701 72.0548592,41.6398923 72.0969718,41.8041283 C72.0969718,41.927081 72.1482394,42.0419565 72.2544366,42.1451649 C72.3588028,42.2483733 72.4961268,42.2788871 72.6645775,42.2367063 L72.9328169,42.2214494 L72.1326761,43.006731 C71.623662,42.624411 71.0267606,42.4224815 70.3291549,42.4224815 C69.278169,42.4224815 68.4789437,42.8353152 67.9314789,43.6600853 C67.3007042,42.8353152 66.4804225,42.4224815 65.4706338,42.4224815 C64.6292958,42.4224815 63.9252817,42.701593 63.3576761,43.2580211 C62.7891549,43.8144492 62.5053521,44.505497 62.5053521,45.3293695 C62.5053521,45.9082342 62.651831,46.4027373 62.9475352,46.8146735 L62.8211972,46.8765986 L65.2335211,49.2126991 L64.4928873,49.9378506 L62.5053521,50.0311869 C62.1684507,50.0311869 62,50.2169621 62,50.5885125 C62,50.9995513 62.189507,51.1646848 62.5694366,51.0830155 L63.3576761,51.0507068 L63.1992958,51.2059681 C62.9887324,51.412385 62.9887324,51.6600853 63.1992958,51.9481714 C63.2835211,52.0307382 63.4089437,52.0720215 63.5773944,52.0720215 C63.7888732,52.0720215 63.9133803,52.0307382 63.9564085,51.9481714 L64.0452113,51.8620148 L64.0195775,52.4435719 C64.0195775,52.8142248 64.2090845,53 64.5880986,53 C64.9671127,53 65.1557042,52.8142248 65.1557042,52.4435719 L65.1557042,50.7733902 L65.9961268,49.9504151 L67.9314789,51.8252188 L72.7909155,47.0623738 L72.726831,47.0623738 C73.1058451,46.5669733 73.2953521,45.990801 73.2953521,45.3293695 C73.2953521,44.758582 73.1497887,44.2560018 72.8760563,43.8126543 L73.6157746,43.0659637 L73.6102817,43.1027597 C73.5260563,43.5155934 73.6743662,43.7211129 74.0524648,43.7211129 L74.1165493,43.7211129 C74.409507,43.7211129 74.5990141,43.5775185 74.6832394,43.2885349 L75,41 L72.5382394,41.1857752 C72.4119014,41.2270586 72.2965493,41.2997532 72.1903521,41.4020642" id="Fill-14" fill="#000000"></path>
            </g>
        </g>
    </g>
</svg>