<?xml version="1.0" encoding="UTF-8"?>
<svg width="77px" height="77px" viewBox="0 0 77 77" version="1.1" xmlns="http://www.w3.org/2000/svg" xmlns:xlink="http://www.w3.org/1999/xlink">
    <!-- Generator: Sketch 48.2 (47327) - http://www.bohemiancoding.com/sketch -->
    <title>Group2</title>
    <desc>Created with Sketch.</desc>
    <defs></defs>
    <g id="Artboard" stroke="none" stroke-width="1" fill="none" fill-rule="evenodd" transform="translate(-378.000000, -738.000000)">
        <g id="Group-4" transform="translate(283.000000, 738.000000)">
            <g id="Group2" transform="translate(95.000000, 0.000000)">
                <polygon id="Fill-1" fill="#231F20" points="0 76.9242521 76.9242521 76.9242521 76.9242521 0 0 0"></polygon>
                <path d="M65.6448367,60.961162 L65.240649,60.9186159 C63.7012551,58.4374068 61.9558995,56.0393559 60.2666273,53.7205953 C59.5733198,52.7681437 58.8732437,51.8040885 58.1809032,50.8284299 L49.2452626,35.8435125 C49.0064245,35.3687371 48.7685533,34.8920278 48.5471203,34.4104837 C47.8383416,32.8672219 47.059942,31.214694 46.1732433,29.5979436 C45.300082,28.005367 44.2944478,26.5887764 43.2307962,25.0899946 L43.1157284,24.9285129 C40.3415316,21.0220106 37.9860267,16.9520927 36.243572,13.8423622 C36.0840242,13.5580771 35.7020766,13.4633154 35.3297985,13.5977223 C35.0252074,13.6576736 34.6693676,13.8442961 34.5833085,14.1846646 C33.7053124,17.715021 32.0711567,21.101301 30.6081523,23.9973343 C30.2668168,24.6722696 29.9245144,25.345271 29.581245,26.0163385 C28.3628804,28.4056868 27.1029367,30.8762594 25.9832016,33.3797085 C25.051056,35.4644657 23.9139158,37.4728334 22.8144868,39.416415 C22.1869323,40.5255135 21.5381048,41.6723234 20.9308565,42.8259019 C20.0857369,44.4320158 19.3170069,46.1087176 18.5753516,47.7312698 C17.9710041,49.0511647 17.3453835,50.4174736 16.6830187,51.7335007 C15.1910055,54.7001218 13.5558829,57.8262906 11.4237449,60.5792144 C10.8948199,60.8248212 10.629874,61.0694611 10.6366427,61.3073323 C10.6395435,61.4523757 10.7323713,61.5732452 10.8822495,61.6302956 C11.3405867,61.8062816 11.8027916,61.9310189 12.2678975,62.0257806 L12.2176158,62.1292449 L12.8770798,62.1292449 C14.3062408,62.3313387 15.7566748,62.2520483 17.1751993,62.1679231 C17.3927644,62.1543857 17.6122634,62.1418153 17.8327294,62.1292449 L20.8660704,62.1292449 C21.8069186,62.1814605 22.7497007,62.2559161 23.6683089,62.3381074 C24.1527539,62.3816204 24.6381658,62.4251334 25.1226108,62.4638117 C26.7171213,62.5924168 28.3387065,62.6194916 29.9071092,62.6455994 L30.5868793,62.6572029 C32.1929932,62.6852446 33.9441506,62.7094185 35.7668626,62.7094185 C37.5741034,62.7094185 39.4499981,62.6852446 41.3229919,62.6185246 C43.0954223,62.5556725 44.8929935,62.434803 46.6306135,62.3178013 C47.6140078,62.2520483 48.6157742,62.1872622 49.6214085,62.1292449 L61.7992526,62.1292449 C62.4732209,62.1804936 63.1481562,62.2394779 63.8211576,62.3158674 C64.0464584,62.3419752 64.2872304,62.3352065 64.5367051,62.2965283 C64.7446006,62.3110326 64.9815048,62.2491474 65.174896,62.1321458 C65.2744925,62.0954014 65.3711881,62.0557562 65.4640159,62.0103093 C65.4920576,61.9977389 66.1370173,61.6796103 66.0702973,61.2860592 C66.0519251,61.180661 65.9736017,60.9979063 65.6448367,60.961162" id="Page-1" fill="#FEFEFE"></path>
            </g>
        </g>
    </g>
</svg>