<?xml version="1.0" encoding="UTF-8"?>
<svg width="133px" height="98px" viewBox="0 0 133 98" version="1.1" xmlns="http://www.w3.org/2000/svg" xmlns:xlink="http://www.w3.org/1999/xlink">
    <!-- Generator: Sketch 48.2 (47327) - http://www.bohemiancoding.com/sketch -->
    <title>Group 46</title>
    <desc>Created with Sketch.</desc>
    <defs></defs>
    <g id="Page-1-Copy" stroke="none" stroke-width="1" fill="none" fill-rule="evenodd">
        <g id="Group-46">
            <rect id="Rectangle" fill="#000000" x="0" y="0" width="133" height="98"></rect>
            <g id="Group-14" transform="translate(8.000000, 0.000000)">
                <g id="Group-12-Copy-2" transform="translate(0.000000, 0.000000)">
                    <polygon id="Path-22-Copy-8" fill="#4A90E2" points="31.202729 96.7927916 57.6882158 51.1906977 84.1737025 96.7927916"></polygon>
                    <polygon id="Path-22-Copy-9" fill="#50E3C2" transform="translate(57.688216, 22.801047) scale(1, -1) translate(-57.688216, -22.801047) " points="31.202729 45.6020939 57.6882158 -7.10542736e-14 84.1737025 45.6020939"></polygon>
                    <polygon id="Path-22-Copy-10" fill="#7ED321" transform="translate(33.172062, 35.406041) rotate(120.000000) translate(-33.172062, -35.406041) " points="6.68657491 58.2070884 33.1720616 12.6049945 59.6575484 58.2070884"></polygon>
                    <polygon id="Path-22-Copy-11" fill="#BD71FF" transform="translate(82.236389, 62.071158) scale(1, -1) rotate(-120.000000) translate(-82.236389, -62.071158) " points="55.7509024 84.8722047 82.2363891 39.2701108 108.721876 84.8722047"></polygon>
                    <polygon id="Path-22-Copy-12" fill="#F14B4B" transform="translate(33.402081, 63.071158) rotate(60.000000) translate(-33.402081, -63.071158) " points="6.91659441 85.8722047 33.4020811 40.2701108 59.8875678 85.8722047"></polygon>
                    <polygon id="Path-22-Copy-13" fill="#F8E71C" transform="translate(81.696428, 35.178135) scale(1, -1) rotate(-60.000000) translate(-81.696428, -35.178135) " points="55.2109414 57.9791815 81.6964281 12.3770875 108.181915 57.9791815"></polygon>
                </g>
            </g>
        </g>
    </g>
</svg>