<?xml version="1.0" encoding="UTF-8"?>
<svg width="228px" height="123px" viewBox="0 0 228 123" version="1.1" xmlns="http://www.w3.org/2000/svg" xmlns:xlink="http://www.w3.org/1999/xlink">
    <!-- Generator: Sketch 48.2 (47327) - http://www.bohemiancoding.com/sketch -->
    <title>Group6</title>
    <desc>Created with Sketch.</desc>
    <defs></defs>
    <g id="Large--1440" stroke="none" stroke-width="1" fill="none" fill-rule="evenodd" transform="translate(-606.000000, -521.000000)">
        <g id="Group6" transform="translate(606.000000, 521.000000)" fill="#FFFFFF">
            <g id="Page-1">
                <path d="M51.3317523,44.1784839 C50.5621189,41.3141818 50.1726519,38.3619253 48.6112961,35.7036214 C47.4196433,33.6737281 46.6790747,31.3834437 45.7106388,29.2216189 C45.317684,28.3455475 44.928217,27.4521166 44.4073776,26.6512693 C43.4854452,25.2335844 42.6088538,23.7453046 41.4497534,22.5347753 C39.8849099,20.8995192 38.1480032,19.3973518 36.330878,18.0444754 C35.4961398,17.4241659 34.2916985,17.2991782 33.2581577,16.9415744 C30.5842051,16.0157393 27.9800077,14.9394561 25.0200584,15.0956908 C23.0529594,15.1998472 21.0637711,14.836457 19.0815584,14.7485026 C17.4446344,14.6744358 15.769345,14.4823251 14.1696237,14.7253568 C11.2213003,15.1732295 8.28925313,15.7970108 5.40254689,16.5469372 C3.45172406,17.0526746 1.16607586,17.0607756 0,19.2110275 L0,20.044279 C0.144160924,20.3208723 0.23833056,20.6414426 0.440620889,20.8671149 C1.08120693,21.5857944 1.78806049,22.5278315 2.84369049,21.7015238 C4.15741504,20.6750042 5.57112216,19.9273924 7.19525773,19.6670013 C8.63337921,19.4355425 10.2307753,18.9355916 11.5282236,19.3209704 C14.5335138,20.2167158 16.7784714,22.5278315 17.4283582,25.4384254 C18.0480176,28.2147733 18.7502208,31.0628733 18.4688745,34.0845674 C18.0561557,38.5123735 18.21078,42.9922578 18.1096348,47.4489962 C18.0712694,49.142117 17.9805875,50.8340805 17.9398969,52.5272014 C17.9085071,53.8465163 17.8596784,55.1716177 17.9317588,56.4863035 C17.9957012,57.6644285 18.0898708,58.8680141 18.4095825,59.994061 C18.6362872,60.7949083 19.2931495,61.026367 20.1418388,60.431518 C21.5811229,59.4223578 21.7043572,57.9236624 21.7950391,56.4249669 C22.0089553,52.9172094 21.2253709,49.4117665 21.7496981,45.8993798 C21.8624692,45.1332513 21.9624517,44.3624936 22.0170934,43.5905787 C22.1414903,41.8384359 22.23566,40.0839785 22.3368051,38.3306784 C22.3867964,37.4742809 22.4588769,36.6167262 22.4600395,35.7591715 C22.461202,35.071739 22.2542614,34.3681044 22.3437806,33.6991886 C22.7065081,31.0084805 22.4158611,28.3929965 21.4555633,25.8758825 C20.3766816,23.0509283 19.3082631,20.181997 16.2727456,18.7469527 C16.2390305,18.7307506 16.2692578,18.582617 16.2692578,18.338428 C17.9864005,18.338428 19.7302826,18.2215413 21.4520756,18.3685176 C23.6051887,18.55137 25.7327249,19.051321 27.8870007,19.2295442 C30.1854374,19.421655 32.4455086,19.6797315 34.4509731,20.8960473 C38.620014,23.4235769 41.8345701,26.7450101 43.4854452,31.4528813 C44.0551134,33.0765645 45.0165737,34.5625297 45.7943452,36.1133034 C46.4291183,37.3793829 47.2196782,38.5968559 47.6428602,39.9300584 C48.0939444,41.354687 48.1357976,42.9008316 48.4624848,44.371752 C48.9600725,46.6169019 48.1404479,48.6618401 47.4242937,50.6604865 C47.0208756,51.7900052 46.0803418,52.762132 45.2618798,53.7030119 C43.8446849,55.3324815 42.7902175,57.299881 40.6219907,58.2396036 C39.5454341,58.7071503 38.4653898,59.4501329 37.7236586,60.344721 C36.0890597,62.3213788 33.7662087,63.0620468 31.5642668,63.866366 C28.8263719,64.8674251 25.885024,65.3048822 23.0959751,66.1878974 C21.2358342,66.7769599 19.4094083,66.4344009 18.072432,65.5062513 C16.2994851,64.2737334 14.3509875,63.0597322 13.5185744,60.7196842 C12.4036524,57.583418 10.860898,54.5999146 9.71109838,51.474064 C8.89612412,49.2555318 8.20670938,46.9432588 8.92635141,44.4990543 C9.06353681,44.0338222 9.01238293,43.4760066 8.91472553,42.9864713 C8.71011003,41.9576371 7.70795909,41.5803593 7.09527516,42.3650045 C6.48026605,43.1542789 5.90129718,44.1113609 5.71993344,45.0719147 C5.15142786,48.0855078 5.94082518,51.0481799 6.8569446,53.8430444 C8.19392091,57.9213478 9.82735719,61.9568312 12.5547889,65.3569604 C14.806722,68.1633979 17.9759372,69.7431039 21.4997417,69.9398439 C23.8574703,70.0717754 26.294255,69.380871 28.6450081,68.8404148 C29.9006033,68.5522486 31.3038471,68.0603987 32.1874141,67.1993721 C33.5011386,65.9217198 35.1438756,65.5131951 36.6552401,64.744752 C38.0689472,64.023758 39.5547348,63.3652578 40.7952163,62.4058612 C42.057787,61.4325772 42.9343784,59.9593421 44.2039246,58.9987883 C46.4209801,57.319555 48.0148884,55.1276405 49.5460169,52.9125802 C50.2621712,51.8768023 50.2517079,50.371163 50.8457904,49.2184984 C51.7026179,47.5566245 51.7956249,45.9051663 51.3317523,44.1784839" id="Fill-1"></path>
                <path d="M64.8796395,16.9717844 C64.0918785,17.3460269 63.1853654,17.5629957 62.5175322,18.0784402 C61.5404733,18.8315172 61.254763,18.2563776 60.8667613,17.54348 C60.2247948,16.3576133 59.1971782,16.03503 57.9073664,16.3725371 C54.8115831,17.1807173 54.7304555,17.1933451 53.4735651,14.392266 C52.9385931,13.1995114 52.24019,11.8115997 52.4247847,10.6337688 C52.7528226,8.55017925 51.9768191,6.0246161 54.0461616,4.47828266 C55.0690752,3.71142985 56.4764632,3.43246992 57.6075469,2.97557258 C61.0055013,3.60237144 64.1318544,4.06156474 67.1947164,4.78135024 C69.4651142,5.31631043 70.5621009,7.51240239 70.4409973,9.78770519 C70.2458207,13.4865072 67.9765986,15.5000698 64.8796395,16.9717844 M67.3487413,1.41431536 C65.3793387,0.844915672 63.3534995,0.464933216 61.3523513,0 L58.2483376,0 C57.4770373,0.0941346265 56.7033854,0.182529337 55.9332608,0.288143796 C55.4782406,0.350134891 54.9750141,0.339803042 54.5834851,0.534960194 C51.5817629,2.03652229 50.2402176,4.62866846 50.0861926,7.7580708 C49.9392223,10.760047 50.6529103,13.6208213 52.5529429,16.0901332 C53.251346,16.998188 53.137297,17.7776686 52.3460086,18.5927367 C51.4230349,19.5455628 51.4277379,20.4639494 52.6669919,20.9426584 C54.4776665,21.6417802 56.4458933,22.1468929 58.3800231,22.2800589 C59.8532538,22.3810814 61.4193697,21.9046684 62.870261,21.4558069 C66.1729785,20.4352498 69.4404232,19.4158407 71.4568563,16.2072275 C72.8054562,14.0639428 74.0200191,11.7966759 73.9424187,9.39968685 C73.8130848,5.35074993 71.5109414,2.62084576 67.3487413,1.41431536" id="Fill-3"></path>
                <path d="M157.268552,44.2831511 C157.197294,44.7640687 157.002211,45.2275194 156.846845,45.7596727 C156.0046,45.3684178 155.318889,45.1832704 154.802561,44.7826998 C153.108725,43.4680367 151.501333,42.0439154 149.813338,40.7222656 C148.738629,39.8803688 147.603175,39.1095035 146.452535,38.3712427 C144.914065,37.3837898 143.266955,36.5535376 141.795071,35.478751 C140.729706,34.7008989 140.909603,34.001065 142.130333,33.4724051 C142.932861,33.1253992 143.762256,32.8366158 144.591652,32.5524902 C147.778399,31.4602369 151.043414,31.5941486 154.317773,31.9877324 C155.637797,32.1460975 156.948475,32.4570054 158.268499,32.48961 C159.306996,32.5140634 159.531283,33.0322433 159.343209,33.7949575 C159.08154,34.8546062 158.509141,35.8478814 158.322235,36.9145168 C157.893519,39.3575312 157.628346,41.8273279 157.268552,44.2831511 M131.036293,52.9175417 C131.806113,54.9937546 133.242953,56.8394065 134.468355,58.7316364 C137.284795,63.0820185 141.581297,65.0941867 146.478234,66.0781462 C149.204726,66.6266018 151.813233,65.9943059 154.393704,65.154738 C155.213754,64.8880792 156.066513,64.7157407 157.220657,64.4188062 C157.338642,66.0874618 157.506857,67.433565 157.492839,68.7773394 C157.486998,69.3502484 156.883058,69.9359663 156.92628,70.4867508 C157.18094,73.7390573 157.377191,77.0111595 157.923891,80.2215458 C158.416856,83.1245176 159.428485,85.9378268 160.023079,88.8291541 C160.290588,90.125186 160.058124,91.5155383 160.127046,92.8593126 C160.165595,93.6348358 160.139896,94.5419417 160.527725,95.141633 C161.055735,95.955583 161.940034,96.5447942 162.691163,97.2085303 C163.536912,97.9561066 165.279811,97.6812966 165.428167,96.6274701 C165.616242,95.2825313 165.813661,93.537022 165.139631,92.5577203 C163.706296,90.4733563 163.737836,88.040822 162.910777,85.840013 C162.180676,83.8988763 162.271792,81.6642983 161.865272,79.5857566 C161.114143,75.7465677 160.649214,71.8817609 160.605992,67.972705 C160.569779,64.5690201 160.965786,61.2119131 161.545195,57.8501484 C161.906157,55.7587977 162.350059,53.5731266 161.214605,51.4724603 C160.727481,50.5711767 160.387546,49.5289946 160.259048,48.5159239 C160.170268,47.8277344 160.609497,47.0871447 160.73449,46.3558707 C161.017186,44.6883795 161.185401,42.9975993 161.526504,41.342917 C161.804527,39.9933204 162.736721,38.6087904 162.543974,37.3698164 C162.190021,35.1072917 162.469212,33.1184125 163.467991,31.1237111 C163.835962,30.3877792 162.872228,28.65275 162.062691,28.6236387 C160.511371,28.5689096 158.955379,28.66323 157.401722,28.6818612 C156.022122,28.6981635 154.640186,28.7226169 153.261754,28.6923412 C151.997802,28.6643945 150.722169,28.4256824 149.47574,28.538634 C147.718823,28.6958346 145.982933,29.0917473 144.237699,29.3875174 C144.008739,29.4271087 143.75992,29.4317665 143.55666,29.5284157 C141.951604,30.2922944 140.348885,31.0608308 138.760184,31.8561496 C137.380584,32.546668 136.404,34.4761603 136.998595,35.6068404 C137.337362,36.2519452 137.999711,36.7910852 138.62935,37.207958 C140.8547,38.6786573 143.186352,39.9933204 145.366144,41.5269 C147.246885,42.8497142 148.929039,44.4508318 150.781745,45.8155663 C153.420624,47.7590319 156.070017,49.5383102 157.011556,53.0537823 C157.609655,55.2918536 157.641196,58.7735566 155.089929,60.1813756 C153.859854,60.8602495 152.690523,61.6532394 151.43358,62.2750552 C150.893889,62.5428785 150.204673,62.5719898 149.580874,62.5894565 C148.888154,62.6092521 148.186088,62.5358918 147.500377,62.4252692 C146.112599,62.2005305 144.652396,62.1294991 143.368586,61.626457 C140.607049,60.5411904 138.176103,59.0134331 136.35961,56.4784273 C134.633066,54.0668531 133.31421,51.479447 132.241837,48.775596 C131.309644,46.4303954 130.642623,43.966421 130.038683,41.5105977 C129.602958,39.7313194 129.306245,37.8868319 129.233819,36.0598111 C129.154384,34.0359985 129.349467,31.9947191 129.51301,29.9685775 C129.88799,25.3363987 132.003532,21.5146766 135.630677,18.7432876 C137.260264,17.4996558 139.49379,17.0408629 141.47733,16.2152684 C141.716804,17.0233961 141.856983,18.2355877 142.122156,18.2635345 C143.293823,18.3858017 144.50404,18.1959964 145.690893,18.046947 C145.882471,18.023658 146.127786,17.6591854 146.178017,17.4181444 C146.439685,16.1745127 145.158211,14.599013 143.928136,14.7620358 C143.419985,14.8295739 142.86978,14.6351109 142.345275,14.529146 C141.199308,14.2985851 139.987923,13.6779337 138.926063,13.87589 C135.884168,14.4418123 133.431027,16.2828065 131.385574,18.480122 C128.541098,21.5356367 127.347236,25.5075728 126.72811,29.4562199 C126.177905,32.969363 126.099639,36.6676536 127.068045,40.1854545 C128.249058,44.4706275 129.495487,48.7523071 131.036293,52.9175417" id="Fill-5"></path>
                <path d="M196.381879,95.6682919 C196.028513,96.2603226 195.796798,96.8360053 195.407517,97.2645562 C193.976675,98.8409694 192.221433,100.193182 191.110359,101.963435 C190.056055,103.643775 188.53832,104.720407 187.142236,105.875275 C184.965272,107.67589 182.430308,109.032773 180.063338,110.604515 C178.420477,111.695159 176.336199,112.064157 175.045546,113.744496 C174.870601,113.972201 174.484795,114.043431 174.187041,114.166041 C171.858303,115.124734 169.061501,114.602766 167.016615,116.472275 C166.929722,116.552847 166.753618,116.543506 166.618065,116.557518 C165.211553,116.699979 163.803884,116.835434 162.398531,116.979063 C162.094984,117.010591 161.638505,116.956876 161.514538,117.132033 C160.56103,118.479575 159.192752,118.160789 157.880085,118.178304 C157.055179,118.188814 156.219846,118.279896 155.408843,118.437537 C152.34441,119.036574 149.281135,119.1405 146.232922,118.408344 C145.311854,118.186478 144.460301,117.685529 143.547343,117.415788 C139.874658,116.330982 136.116238,115.553285 132.900031,113.206181 C130.084692,111.151005 127.012148,109.451982 124.213029,107.374619 C122.881825,106.387902 121.899353,104.909576 120.807975,103.612247 C120.249541,102.947818 119.764098,102.214494 119.30646,101.474163 C117.762079,98.9775919 116.269833,96.4494922 114.695328,93.9739396 C114.452027,93.5920973 113.875056,93.426282 113.22973,93.01875 C113.462603,94.5542932 113.551814,95.6566147 113.812493,96.7157309 C114.065063,97.7398156 114.369768,98.7884223 114.871432,99.7062451 C115.835367,101.47066 116.937173,103.160342 118.012331,104.8617 C118.774674,106.069116 119.367865,107.51241 120.418693,108.384692 C123.267631,110.752815 126.179132,113.108093 129.331617,115.023143 C132.333487,116.845943 135.64238,118.173634 138.870172,119.593573 C141.29623,120.660863 143.784851,121.59737 146.293168,122.452136 C147.359058,122.815295 148.630016,123.167944 149.657672,122.913383 C151.642313,122.421775 153.676772,122.371564 155.677633,121.769023 C158.353943,120.964469 161.294408,121.312447 164.051819,120.269679 C166.460498,119.358863 169.081197,119.01789 171.604575,118.409512 C172.429481,118.211 173.506957,118.452717 173.743306,117.146046 C173.772271,116.987237 174.389792,116.932354 174.735047,116.838937 C175.12317,116.733843 175.549526,116.709321 175.897099,116.528325 C177.506361,115.689907 179.135318,114.876011 180.683176,113.928995 C183.609738,112.137723 186.938327,110.894108 188.99364,107.880239 C189.064314,107.776313 189.220721,107.708585 189.350482,107.673554 C191.332805,107.151586 192.423025,105.541309 193.45184,104.005766 C195.043724,101.624798 196.434015,99.1060403 197.874125,96.6246492 C198.022422,96.3712554 197.928578,95.9754005 197.945956,95.6682919 L196.381879,95.6682919 Z" id="Fill-7"></path>
                <path d="M64.56224,52.5908527 C63.7522808,49.3822204 63.590289,46.0874889 63.6794388,42.7732415 C63.7305369,40.8893897 63.7794606,38.9997981 63.6892236,37.1193903 C63.6142072,35.5558278 63.3347985,34.0037452 63.1456268,32.4459226 C62.8912235,32.3931151 62.635733,32.3403075 62.3802425,32.2875 C62.1117056,32.863791 61.681177,33.4159743 61.6018118,34.019817 C61.2854385,36.4409281 60.9125311,38.8735191 60.8701305,41.3084061 C60.8135964,44.6398734 60.8733921,47.9954484 61.2060733,51.3028078 C61.4104657,53.3450822 62.124752,55.3540649 62.7955504,57.305648 C63.034733,58.00133 63.7435833,58.6246886 64.3817659,59.0218932 C64.7938123,59.279043 65.5428887,59.2285314 65.9929868,58.9966374 C66.2299951,58.8749505 66.3104474,58.0139579 66.1832457,57.5765737 C65.696183,55.8970642 64.9895071,54.2841381 64.56224,52.5908527" id="Fill-9"></path>
                <path d="M157.55428,96.6501257 C155.244069,96.3499072 153.093143,96.1032991 150.952531,95.780445 C149.665642,95.586256 148.387921,95.3098643 147.119368,95.0084544 C145.575789,94.6403293 144.060859,94.1256689 142.506967,93.8230677 C141.287689,93.5859904 140.589812,94.5700401 141.162781,95.7053904 C141.475622,96.3260803 141.999316,97.0635219 142.582599,97.2672416 C145.299618,98.2107856 148.053307,99.0578308 150.833353,99.7809763 C151.762709,100.022819 152.812388,99.7106871 153.799041,99.786933 C155.33116,99.9060674 156.862134,100.2456 158.26247,99.2234276 C158.467593,99.072127 158.78731,99.0923798 159.052021,99.0256646 C159.446224,98.923209 160.157852,98.8553025 160.176187,98.7004278 C160.242651,98.1488358 160.260986,97.3851846 159.949291,97.0373123 C159.458829,96.4869117 158.686467,96.2081373 158.012656,95.8030805 C157.768571,96.255791 157.59668,96.5714971 157.55428,96.6501257" id="Fill-11"></path>
                <path d="M223.637641,45.9674467 C223.522259,46.9780044 223.209913,47.9699129 223.130661,48.9816362 C222.95584,51.1974034 221.387116,52.7639428 220.549142,54.6650035 C219.457095,57.1430262 217.408197,58.9706554 215.428061,60.7295154 C213.7323,62.2354446 211.867546,63.6457962 209.859439,64.6715064 C208.362974,65.4372924 206.516867,65.5142206 204.828099,65.9081866 C202.916726,66.3546037 201.020504,66.8849425 199.091649,67.2404444 C197.499615,67.5330049 195.864459,67.5831249 194.25844,67.8139097 C192.6396,68.0458601 191.153624,67.6542252 189.67231,67.0749321 C188.380968,66.5690704 186.905481,66.3581005 185.80178,65.5958112 C184.674769,64.8183695 183.896234,63.5315693 182.979008,62.4557391 C182.83449,62.2855645 182.808849,62.0034942 182.650345,61.8577967 C181.862486,61.132806 181.073462,60.4066498 180.24015,59.7341102 C177.986129,57.9158057 177.164472,55.3235561 176.561923,52.6858489 C176.167994,50.957294 175.908093,49.1273336 176.017648,47.3696392 C176.201792,44.3997418 176.672643,41.4636462 178.442994,38.8760589 C179.20055,37.7687581 179.533875,36.3793869 180.141085,35.1590248 C180.542007,34.3559403 181.110757,33.6379431 181.56296,32.8570046 C182.812346,30.7053442 183.969659,28.4942393 185.326267,26.4136793 C185.649103,25.9171422 186.597796,25.7481332 187.292417,25.6385687 C187.443929,25.6140915 187.738793,26.4824485 188.04065,27.0862188 C188.260924,27.0454235 188.759746,27.1048681 188.924077,26.899726 C190.269031,25.2108009 191.871554,23.592976 192.054533,21.3305856 C192.117469,20.5647996 191.507927,19.5787191 190.91004,18.9959291 C190.6245,18.7173556 189.144351,19.0052538 189.070927,19.2733371 C188.618724,20.921467 187.015035,21.4168385 185.93814,21.9763168 C183.804162,23.0847832 182.540791,24.8343186 181.223808,26.614159 C180.242481,27.9394233 179.333414,29.3031517 177.933683,30.2461058 C176.458196,28.278607 176.476843,27.3531366 177.984963,25.7481332 C179.335745,24.3109732 180.55949,22.6966451 182.111897,21.5205751 C184.03376,20.0636003 186.217853,18.943478 188.327356,17.7464275 C189.687461,16.9736481 191.063883,16.183385 192.524218,15.6483838 C195.335335,14.6168457 198.243186,13.6354274 201.273411,14.2485224 C203.879405,14.7753645 206.495888,15.467719 208.946875,16.4817734 C210.903701,17.2906858 212.851204,18.4481066 214.368647,19.9039158 C215.753227,21.2326769 216.669288,23.1092604 217.588845,24.8506367 C219.299757,28.0886175 220.732121,31.4373284 221.969851,34.9130875 C222.884746,37.483191 223.308978,40.0812685 223.801972,42.6933329 C224.000102,43.7376925 223.762346,44.8787951 223.637641,45.9674467 M227.183005,40.3132189 C226.445261,36.1649202 225.247157,32.1798027 223.436014,28.3601976 C221.746081,24.7981856 219.944262,21.3189298 217.380225,18.300078 C216.440855,17.1927771 215.377945,16.1845506 214.336014,15.1681649 C212.381519,13.2636075 209.707927,12.9628879 207.296567,12.0968621 C202.196465,10.2657361 197.092866,10.2867166 192.054533,12.3614487 C190.112858,13.1610364 188.133888,13.9221601 186.316918,14.9548638 C184.519761,15.9770773 182.89626,17.3081695 181.219146,18.5320284 C180.889318,18.7709722 180.681864,19.1696005 180.375345,19.4505053 C179.378867,20.3654855 178.18659,21.1277747 177.3964,22.1919491 C176.317174,23.6454271 175.465214,25.285398 174.651715,26.913713 C174.035181,28.1515588 174.800896,30.4990366 176.094569,31.1424367 C177.328803,31.7555317 177.2344,32.5283111 176.785693,33.4992391 C175.966367,35.2802451 174.912781,36.986654 174.348693,38.8434227 C173.592302,41.3412603 173.025883,43.9300131 172.718198,46.5210971 C172.472284,48.585339 172.448975,50.7673045 172.858055,52.7907511 C173.231006,54.6335328 174.251959,56.3644189 175.109746,58.0848147 C176.008324,59.8868012 176.92555,61.7051057 178.074705,63.3509045 C178.928995,64.5747633 180.315906,65.4221398 181.198168,66.6320117 C183.137512,69.2872026 185.93814,70.6206259 188.868135,71.4854862 C192.315599,72.5030374 196.020632,72.4645732 199.470427,71.6987873 C203.025115,70.9073586 206.78376,70.9108553 210.143814,69.2837059 C211.453804,68.6484648 212.740484,67.9596072 214.012013,67.2474379 C214.625051,66.9035918 215.254406,66.5271095 215.741573,66.0317381 C216.785835,64.9698949 217.593506,63.6178222 218.770633,62.7552932 C220.732121,61.3169676 222.314831,59.5989029 223.476806,57.5171773 C224.61314,55.4797438 225.571158,53.3409048 226.592111,51.2405299 C226.666701,51.0866734 226.596773,50.8675443 226.630571,50.6868795 C227.08394,48.3160901 227.543135,45.9464663 228,43.5768424 L228,42.7376249 C227.721452,41.9310437 227.331019,41.1431117 227.183005,40.3132189" id="Fill-13"></path>
                <path d="M200.474431,35.6681156 C200.259538,35.6612575 200.060995,35.3332151 199.848437,35.1583354 C198.809007,34.3056537 198.132793,34.4336703 197.297745,35.4418006 C196.987084,35.8178492 196.385615,36.1447486 195.900937,36.1676087 C194.389675,36.236189 193.947041,36.9962873 194.157263,38.1564373 C194.091861,40.3921549 194.994647,41.8952063 196.885476,42.5798663 C197.593223,42.8370424 198.451629,42.6781647 199.181567,42.8976216 C200.716186,43.3582526 201.717076,42.7330289 202.561467,41.58088 C203.341624,40.5155994 203.648782,39.4446038 202.997094,38.1690103 C202.423655,37.0465795 202.152703,35.7241228 200.474431,35.6681156" id="Fill-15"></path>
                <path d="M106.97862,60.3584396 C103.073107,62.7148093 98.781463,63.0962946 94.2374374,62.7345814 C91.0704597,62.4821963 88.3547444,61.563375 86.0181824,59.5977951 C83.916556,57.8310994 82.3383009,55.7934096 81.503233,52.9078454 C80.8275025,50.574737 81.2985367,48.2695423 80.6542085,46.0190115 C80.4402078,45.275813 80.9310137,44.3302412 81.1008186,43.4753884 C81.6474509,40.7177614 82.5778887,38.1055174 83.9060886,35.6165584 C84.3282748,34.8245111 84.3364161,33.8254383 84.6492758,32.961281 C85.5017895,30.6118898 87.2952083,28.9777835 89.1398013,27.4425377 C90.8948396,25.9828912 92.7196607,24.5907024 94.6247321,23.3369183 C95.4818979,22.7739949 96.6088907,22.6204703 97.6149266,22.2808553 C97.6626115,23.5497592 97.7382096,24.8175001 97.7416988,26.0852409 C97.7428618,26.4108991 97.5195567,26.7365573 97.4346543,26.964518 C98.6407343,26.428345 99.7433031,25.9700974 100.809817,25.4362506 C101.034286,25.3234333 101.221536,24.9466003 101.251775,24.6709539 C101.378548,23.491606 101.440189,22.3041166 101.544863,20.8619161 C102.090332,21.1084858 102.53229,21.2585212 102.923074,21.4946234 C106.894881,23.8905373 109.560585,27.5483766 111.91343,31.3620667 C114.479112,35.5188609 116.029454,40.1455334 116.11203,45.079255 C116.173672,48.7359313 115.095527,52.0785801 112.68453,55.0188083 C110.999274,57.0739441 109.213997,59.0092843 106.97862,60.3584396 M116.470249,55.9713585 C118.193885,53.1427845 119.384845,49.7803637 119.391823,46.2807012 C119.401128,42.0169049 118.462549,37.9461775 116.634238,34.0778234 C114.874548,30.3525263 112.86015,26.7656339 110.079304,23.7207298 C108.588277,22.0877866 106.848359,20.6060418 104.993298,19.4080848 C103.323163,18.3299236 101.399482,17.5506701 99.4874327,16.9656484 C97.0473595,16.2189607 94.6247321,14.9942533 91.9764735,15.4897189 C90.1504893,15.83166 88.3582335,16.4318016 86.6031952,17.0598567 C84.432949,17.8367841 82.5325298,19.0731221 81.1403623,20.9654288 C80.6297845,21.6574525 80.3064574,22.5285882 79.6923684,23.0950008 C77.9454714,24.7070089 78.7514632,26.7353942 78.6456259,28.611418 C78.6339954,28.8068129 78.9270833,29.0196538 79.2725084,29.4848798 C80.2773812,25.6362978 82.3662141,22.8554094 85.4133979,20.7490988 C88.1907547,18.8300415 93.9931975,16.9830944 95.4807349,18.962631 C95.2725494,19.160352 95.0852988,19.4197155 94.8317545,19.5650986 C93.0988141,20.5548669 91.4077434,21.6400065 89.5980419,22.4681088 C86.7101955,23.7881875 85.3982782,26.5562822 83.4036522,28.7114416 C81.8765712,30.3606677 82.2208331,33.049674 80.05175,34.249957 C79.9459127,34.3092733 80.05175,34.6930848 79.9982498,34.911741 C79.4981395,36.9924642 78.993377,39.0708614 78.4711688,41.1457693 C78.2560051,41.9971328 77.7803187,42.8426811 77.7977644,43.6835771 C77.8535907,46.5121511 78.0966676,49.3349098 78.2362333,52.1623207 C78.4455818,56.4482152 81.1217535,59.3837912 84.0084368,61.9960351 C87.3149801,64.9886013 91.5193959,66.1493402 95.9122254,66.5878157 C96.8100979,66.6785347 97.7300683,66.9727902 98.5965385,66.8529945 C100.69235,66.5633913 102.762574,66.0876977 104.842102,65.6829511 C105.191016,65.6154933 105.592268,65.6154933 105.878377,65.4363813 C107.157729,64.6373557 108.32194,63.6033909 109.680379,62.9869665 C112.890389,61.5296461 114.821048,58.6801369 116.470249,55.9713585" id="Fill-17"></path>
                <path d="M95.3070127,38.5380664 C93.0115367,37.9922982 91.9466743,39.7712261 91.2288164,41.3820483 C90.6313964,42.7222891 90.8031099,44.2133646 91.9478668,45.4591899 C92.9709932,46.5737545 94.1264822,46.7303462 95.6516322,46.8512442 C98.2380672,47.0573465 100.358252,46.5242439 102.115931,45.0262599 C102.236369,44.2559668 102.362769,43.5720295 102.439086,42.8823351 C102.462935,42.6635672 102.427162,42.3688064 102.291222,42.2110632 C100.47392,40.0947723 97.9280289,39.1621304 95.3070127,38.5380664" id="Fill-19"></path>
            </g>
        </g>
    </g>
</svg>