<?xml version="1.0" encoding="UTF-8"?>
<svg width="133px" height="98px" viewBox="0 0 133 98" version="1.1" xmlns="http://www.w3.org/2000/svg" xmlns:xlink="http://www.w3.org/1999/xlink">
    <!-- Generator: Sketch 48.2 (47327) - http://www.bohemiancoding.com/sketch -->
    <title>Group 44</title>
    <desc>Created with Sketch.</desc>
    <defs></defs>
    <g id="Page-1-Copy" stroke="none" stroke-width="1" fill="none" fill-rule="evenodd">
        <g id="Group-44">
            <rect id="Rectangle" fill="#000000" x="0" y="0" width="133" height="98"></rect>
            <g id="Group-32" transform="translate(16.000000, 1.000000)" stroke="#000000" stroke-width="1.75">
                <path d="M51,92.6891763 C44.7440409,92.3856266 41.2868361,88.5540509 40.6283855,81.1944493 C39.9699349,73.8348477 36.0548694,71.432602 28.8831888,73.9877122 C22.5993983,77.5786275 21.3493605,82.892304 25.1330753,89.928742 C28.9167902,96.9651799 37.5390984,97.8853247 51,92.6891763 Z" id="Path-3" fill="#F14B4B"></path>
                <path d="M49.5698429,91 C43.5391738,90.655242 40.204346,86.9190377 39.5653596,79.7913871 C38.9215898,72.6103805 35.0938145,70.2664299 28.0820336,72.7595354 C22.006043,76.2247024 20.7437108,81.3339843 24.295037,88.0873809 C15.5579217,93.0428642 0.477064472,75.2089561 6.3041279,68.3960335 C13.3235411,69.9525917 17.4066673,68.3408978 19.7207541,64.1018287 C22.0348409,59.8627595 4.89098692,46.7933214 21.003482,41.8283748 C31.5938263,38.4714767 32.7904416,45.7676152 31.98855,55.5954389 C31.4539557,62.1473214 37.7911056,63.268262 51,58.9582607 L51,90.4448436 C50.5177507,90.638435 50.0410317,90.8234871 49.5698429,91 Z" id="Combined-Shape" fill="#BD71FF"></path>
                <path d="M44.6840268,60.5011094 C35.9221247,62.5911174 31.7567366,60.8498688 32.1878627,55.2773637 C32.9675381,45.199696 31.8040746,37.7180743 21.5071323,41.1603118 C5.8410285,46.2514778 22.5099178,59.6531685 20.259942,64.0000038 C18.0875592,68.1969335 14.3117363,69.8823132 7.91097721,68.5569409 C5.81421979,66.9251345 5.24381454,66.5063185 6.19976145,67.3004927 C-1.80864883,60.2761539 -2.05853859,52.903246 5.45009217,45.1817688 C3.96172358,35.7713354 6.27735795,29.5534717 12.3969953,26.5281778 C21.1552362,22.6263212 27.7402766,26.1963463 32.1521166,37.2382532 C36.5639566,48.28016 42.5132511,53.0482275 50,51.5424556 L50,57.3265546 C48.166163,58.4472662 46.3941719,59.5054511 44.6840268,60.5011094 Z" id="Combined-Shape" fill="#498FE1"></path>
                <path d="M51,51.8565337 C43.9440791,52.9261783 38.3080559,48.0145942 34.0919305,37.1217811 C30.2760655,27.2630838 24.8161559,23.2394552 17.7122019,25.0508955 C17.5642069,24.6420271 17.4469063,24.2543841 17.3632784,23.8905968 C15.3795804,15.2613745 21.8869201,9.72525997 27.9718749,9.09996092 C34.0568298,8.47466187 41.6108154,10.6987423 43.6801785,18.1608351 C45.7495415,25.6229279 36.411086,28.699819 38.9767325,38.2734289 C40.6871635,44.6558355 44.6949193,46.3996137 51,43.5047637 L51,51.8565337 Z" id="Combined-Shape" fill="#F14B4B"></path>
                <path d="M51,42.9073747 C44.9252241,45.4103325 41.0456681,43.6130071 39.361332,37.5153986 C36.7576519,28.089595 46.2345423,25.0602079 44.1345026,17.7133218 C42.0344629,10.3664357 34.3684958,8.17669271 28.1933366,8.79233782 C28.1292518,8.79872688 28.0651208,8.80563668 28.0009537,8.8130652 C27.9466489,5.56413367 30.2113693,3.24061875 34.7951148,1.84252042 C42.1611189,-0.4042007 47.5627473,1.84252042 51,8.58268378 L51,42.9073747 Z" id="Combined-Shape" fill="#BD71FF"></path>
                <g id="Group-31" transform="translate(76.517452, 48.499848) scale(-1, 1) rotate(1.000000) translate(-76.517452, -48.499848) translate(51.017452, 0.999848)">
                    <path d="M49.2203139,90.9478887 C43.3008268,90.6494249 40.029565,86.8820463 39.4065287,79.6457529 C38.7834924,72.4094596 35.0789956,70.0474629 28.2930384,72.5597629 C22.3472167,76.0905132 21.1644112,81.3151605 24.7446218,88.2337048 C28.3248325,95.152249 36.4833965,96.056977 49.2203139,90.9478887 Z" id="Path-3" fill="#7ED221"></path>
                    <path d="M49.0888046,90.0002707 C43.252361,89.6528585 40.0249358,85.887889 39.4065287,78.7053623 C38.7834924,71.469069 35.0789956,69.1070723 28.2930384,71.6193723 C22.412733,75.1112177 21.1910559,80.2598361 24.628007,87.0652273 C16.172282,92.058863 1.57712355,74.0876511 7.21651874,67.2222757 C14.0098625,68.7908178 17.9614863,67.1667155 20.2010449,62.8950095 C22.4406035,58.6233036 5.84888983,45.4532435 21.4424608,40.4500717 C31.6917291,37.0673288 32.8498059,44.4196404 32.0737403,54.3231289 C31.5563632,60.9254545 37.689417,62.0550252 50.4729015,57.7118411 L50.4729015,89.4408402 C50.0061837,89.635922 49.544818,89.8223988 49.0888046,90.0002707 Z" id="Combined-Shape" fill="#F7E71C"></path>
                    <path d="M44.4771434,58.3972842 C35.7558081,60.4511691 31.6097055,58.7400158 32.0388355,53.2638241 C32.8149011,43.3603356 31.6568243,36.008024 21.407556,39.3907669 C5.81398501,44.3939387 22.4056987,57.5639988 20.1661401,61.8357048 C18.0038152,65.960096 14.2454741,67.6163462 7.87435003,66.3138811 C5.78730043,64.7102784 5.2195361,64.298701 6.17105706,65.079149 C-1.80027493,58.1762167 -2.04900773,50.9307398 5.42485868,43.3427183 C3.94338112,34.0949319 6.24829429,27.9845358 12.3395982,25.0115302 C21.0572891,21.177112 27.6118414,24.6854339 32.0032549,35.5364959 C36.3946685,46.3875579 42.3164182,51.0732155 49.7685041,49.5934689 L49.7685041,55.2775974 C47.9431575,56.378939 46.1793706,57.4188346 44.4771434,58.3972842 Z" id="Combined-Shape" fill="#50E2C1"></path>
                    <path d="M50.0093007,49.7217165 C42.9068934,50.7514688 37.2337385,46.0230619 32.9898361,35.5364959 C29.1488311,26.0454782 23.6529501,22.1719107 16.5021932,23.9157935 C16.3532232,23.5221737 16.2351498,23.1489879 16.1509709,22.798768 C14.1542038,14.4913721 20.7044156,9.16172679 26.8294599,8.55974824 C32.9545041,7.95776969 40.5582575,10.0989032 42.6412541,17.2826975 C44.7242507,24.4664919 35.3242708,27.4286304 37.9068205,36.645193 C39.6285203,42.789568 43.6626804,44.4683121 50.0093007,41.6814254 L50.0093007,49.7217165 Z" id="Combined-Shape" fill="#F7E71C"></path>
                    <path d="M49.451034,40.9770833 C43.4255585,43.4244785 39.5774873,41.6670515 37.9068205,35.7048024 C35.3242708,26.4882398 44.7242507,23.5261013 42.6412541,16.3423069 C40.5582575,9.15851257 32.9545041,7.0173791 26.8294599,7.61935765 C26.7658951,7.62560488 26.7022846,7.63236129 26.6386383,7.63962491 C26.5847742,4.4628156 28.8311151,2.19087981 33.3776609,0.823817518 C40.6838856,-1.3730292 46.0416766,0.823817518 49.451034,7.41435767 L49.451034,40.9770833 Z" id="Combined-Shape" fill="#7ED221"></path>
                </g>
            </g>
        </g>
    </g>
</svg>