<?xml version="1.0" encoding="UTF-8"?>
<svg width="437px" height="60px" viewBox="0 0 437 60" version="1.1" xmlns="http://www.w3.org/2000/svg" xmlns:xlink="http://www.w3.org/1999/xlink">
    <!-- Generator: Sketch 48.2 (47327) - http://www.bohemiancoding.com/sketch -->
    <title>Group3</title>
    <desc>Created with Sketch.</desc>
    <defs>
        <polygon id="path-1" points="0.120312059 0.0851715784 30.692621 0.0851715784 30.692621 46.9114892 0.120312059 46.9114892"></polygon>
        <polygon id="path-3" points="0 59.686493 436.871401 59.686493 436.871401 0.18902817 0 0.18902817"></polygon>
        <polygon id="path-5" points="0.111815828 0.135665884 34.9223277 0.135665884 34.9223277 31.4013408 0.111815828 31.4013408"></polygon>
    </defs>
    <g id="Artboard" stroke="none" stroke-width="1" fill="none" fill-rule="evenodd" transform="translate(-274.000000, -422.000000)">
        <g id="Group3" transform="translate(274.000000, 422.000000)">
            <g id="Group-24">
                <path d="M84.4350586,41.390519 C95.3934074,41.390519 101.751069,33.5301011 101.751069,23.8400618 C101.751069,14.0804824 95.5968717,6.22006452 84.4350586,6.22006452 L74.6256848,6.22006452 L74.6256848,41.390519 L84.4350586,41.390519 Z M69.0124633,43.4239645 L69.0124633,4.186619 C69.0124633,2.28985555 70.0944148,1.20599072 71.9878298,1.20599072 L84.4350586,1.20599072 C98.438191,1.20599072 107.570148,11.0327121 107.570148,23.8400618 C107.570148,36.7145535 98.438191,46.4045928 84.4350586,46.4045928 L71.9878298,46.4045928 C70.0944148,46.4045928 69.0124633,45.320728 69.0124633,43.4239645 Z" id="Fill-1" fill="#231F20"></path>
                <path d="M116.17262,44.1678027 L116.17262,15.9105834 C116.17262,14.5533544 117.321595,13.4023475 118.743451,13.4023475 C120.09589,13.4023475 121.244865,14.5533544 121.244865,15.9105834 L121.244865,44.1678027 C121.244865,45.5226338 120.09589,46.6760386 118.674034,46.6760386 C117.321595,46.6760386 116.17262,45.5226338 116.17262,44.1678027 M115.291739,3.64516617 C115.291739,1.74840272 116.847642,0.18974755 118.674034,0.18974755 C120.569843,0.18974755 122.125746,1.74840272 122.125746,3.64516617 C122.125746,5.54432755 120.569843,7.03344272 118.674034,7.03344272 C116.847642,7.03344272 115.291739,5.54432755 115.291739,3.64516617" id="Fill-3" fill="#231F20"></path>
                <path d="M156.490391,30.0051424 C156.490391,23.3628735 152.634143,17.4016169 145.668483,17.4016169 C138.700428,17.4016169 134.777157,23.3628735 134.777157,30.0051424 C134.777157,36.7145535 138.700428,42.67581 145.668483,42.67581 C152.634143,42.67581 156.490391,36.7145535 156.490391,30.0051424 M129.501447,30.0051424 C129.501447,20.5189273 135.725062,12.8623335 145.668483,12.8623335 C155.611904,12.8623335 161.833124,20.5189273 161.833124,30.0051424 C161.833124,39.4913576 155.611904,47.2174914 145.668483,47.2174914 C135.725062,47.2174914 129.501447,39.4913576 129.501447,30.0051424" id="Fill-5" fill="#231F20"></path>
                <g id="Group-9" transform="translate(168.082203, 12.775004)">
                    <mask id="mask-2" fill="white">
                        <use xlink:href="#path-1"></use>
                    </mask>
                    <g id="Clip-8"></g>
                    <path d="M25.6203753,24.2107557 L25.6203753,9.91189296 C23.863401,7.06554882 19.9377366,4.62685296 15.8804187,4.62685296 C9.3168992,4.62685296 5.39602212,9.84475089 5.39602212,17.0936964 C5.39602212,24.2778978 9.3168992,29.5629378 15.8804187,29.5629378 C19.9377366,29.5629378 23.863401,27.0570999 25.6203753,24.2107557 M30.692621,3.13533985 L30.692621,32.6802481 C30.692621,43.5236923 23.1165673,46.9119688 15.1359787,46.9119688 C10.3318271,46.9119688 6.88490218,46.0966723 3.2991428,43.1831861 C2.82519063,42.7779357 2.42065569,42.1664633 2.42065569,41.4231047 C2.42065569,40.2025578 3.43318988,39.185835 4.65158209,39.185835 C5.12314057,39.185835 5.59948644,39.3896592 5.93460414,39.6582274 C8.50782933,41.828355 11.2797314,42.7107936 15.1359787,42.7107936 C20.5481295,42.7107936 25.6203753,40.0658757 25.6203753,32.8840723 L25.6203753,28.2752488 C23.1835908,31.5963833 19.1932965,34.0374771 14.6620265,34.0374771 C6.13806845,34.0374771 0.120312059,27.6661743 0.120312059,17.0936964 C0.120312059,6.59075847 6.07104491,0.0851715784 14.6620265,0.0851715784 C19.0592494,0.0851715784 22.9801265,2.25529916 25.6203753,5.91454192 L25.6203753,3.13533985 C25.6203753,1.78050882 26.7693502,0.627103992 28.1912067,0.627103992 C29.543646,0.627103992 30.692621,1.78050882 30.692621,3.13533985" id="Fill-7" fill="#231F20" mask="url(#mask-2)"></path>
                </g>
                <path d="M234.028488,30.0051424 C234.028488,23.3628735 230.174634,17.4016169 223.20658,17.4016169 C216.238525,17.4016169 212.315254,23.3628735 212.315254,30.0051424 C212.315254,36.7145535 216.238525,42.67581 223.20658,42.67581 C230.174634,42.67581 234.028488,36.7145535 234.028488,30.0051424 M207.039544,30.0051424 C207.039544,20.5189273 213.260765,12.8623335 223.20658,12.8623335 C233.150001,12.8623335 239.371221,20.5189273 239.371221,30.0051424 C239.371221,39.4913576 233.150001,47.2174914 223.20658,47.2174914 C213.260765,47.2174914 207.039544,39.4913576 207.039544,30.0051424" id="Fill-10" fill="#231F20"></path>
                <path d="M270.908669,23.4997953 L282.745505,23.4997953 C288.090632,23.4997953 291.743415,19.9076947 291.743415,14.8264788 C291.743415,9.74526293 288.090632,6.22030431 282.745505,6.22030431 L270.908669,6.22030431 L270.908669,23.4997953 Z M297.694148,44.1004209 C297.694148,45.2514278 296.612197,46.6757988 294.991663,46.6757988 C294.043759,46.6757988 293.162878,46.2681505 292.621902,45.5247919 L280.85209,28.4467271 L270.908669,28.4467271 L270.908669,43.8965967 C270.908669,45.3881098 269.623253,46.6757988 268.134373,46.6757988 C266.511446,46.6757988 265.293054,45.3881098 265.293054,43.8965967 L265.293054,4.18685879 C265.293054,2.29009534 266.375005,1.20623052 268.26842,1.20623052 L283.422922,1.20623052 C291.676392,1.20623052 297.560101,6.49127052 297.560101,14.8264788 C297.560101,22.5502147 292.554879,26.955214 286.805217,27.8376526 L297.155566,42.3379415 C297.42366,42.7431919 297.694148,43.2203802 297.694148,44.1004209 Z" id="Fill-12" fill="#231F20"></path>
                <path d="M333.352826,15.9101038 L333.352826,44.1673231 C333.352826,45.5245521 332.203851,46.675559 330.851411,46.675559 C329.429555,46.675559 328.28058,45.5245521 328.28058,44.1673231 L328.28058,41.8629114 C325.776772,44.6421135 321.583013,47.2174914 316.647208,47.2174914 C309.813201,47.2174914 306.227442,43.8963569 306.227442,36.7816955 L306.227442,15.9101038 C306.227442,14.5552728 307.376417,13.401868 308.798273,13.401868 C310.153106,13.401868 311.302081,14.5552728 311.302081,15.9101038 L311.302081,35.2230404 C311.302081,40.9828707 314.210424,42.67581 318.607647,42.67581 C322.597941,42.67581 326.387165,40.3737962 328.28058,37.7312762 L328.28058,15.9101038 C328.28058,14.5552728 329.429555,13.401868 330.784388,13.401868 C332.203851,13.401868 333.352826,14.5552728 333.352826,15.9101038" id="Fill-14" fill="#231F20"></path>
                <path d="M341.207027,41.5240838 C341.207027,40.3059348 342.221955,39.289212 343.440347,39.289212 C343.914299,39.289212 344.385858,39.4234962 344.792786,39.6944624 C347.160154,41.6607658 350.408402,43.0827389 354.061184,43.0827389 C359.066407,43.0827389 361.771285,40.8478672 361.771285,37.6634148 C361.771285,34.0713141 357.780991,32.9179093 353.383768,31.8340444 C347.83757,30.5487534 341.546932,29.0572403 341.546932,22.2806872 C341.546932,17.1970734 345.944155,12.8616141 353.723673,12.8616141 C358.391384,12.8616141 361.905332,14.3531272 364.545581,16.4537148 C365.01714,16.8589651 365.424068,17.4704375 365.424068,18.1466541 C365.424068,19.297661 364.40914,20.3143838 363.260165,20.3143838 C362.853237,20.3143838 362.381678,20.1105596 362.041773,19.8395934 C360.011917,18.079512 357.105968,16.9956472 353.723673,16.9956472 C349.257033,16.9956472 346.485131,19.0266948 346.485131,21.9425789 C346.485131,25.1270313 350.204937,26.1437541 354.465719,27.1604769 C360.148358,28.4481658 366.709484,30.0739631 366.709484,37.3229086 C366.709484,42.8117727 362.312261,47.216772 353.85772,47.216772 C349.32645,47.216772 345.403179,45.9962251 342.154931,43.3561031 C341.546932,42.9484548 341.207027,42.2722382 341.207027,41.5240838" id="Fill-16" fill="#231F20"></path>
                <path d="M372.668834,41.5240838 C372.668834,40.3059348 373.686156,39.289212 374.902154,39.289212 C375.376106,39.289212 375.850058,39.4234962 376.254593,39.6944624 C378.621961,41.6607658 381.870209,43.0827389 385.522992,43.0827389 C390.528214,43.0827389 393.233092,40.8478672 393.233092,37.6634148 C393.233092,34.0713141 389.242798,32.9179093 384.845575,31.8340444 C379.299377,30.5487534 373.008739,29.0572403 373.008739,22.2806872 C373.008739,17.1970734 377.405962,12.8616141 385.18548,12.8616141 C389.853191,12.8616141 393.367139,14.3531272 396.007388,16.4537148 C396.478947,16.8589651 396.885875,17.4704375 396.885875,18.1466541 C396.885875,19.297661 395.870947,20.3143838 394.721972,20.3143838 C394.315044,20.3143838 393.843485,20.1105596 393.50358,19.8395934 C391.473724,18.079512 388.567775,16.9956472 385.18548,16.9956472 C380.71884,16.9956472 377.946938,19.0266948 377.946938,21.9425789 C377.946938,25.1270313 381.666744,26.1437541 385.927526,27.1604769 C391.610165,28.4481658 398.171291,30.0739631 398.171291,37.3229086 C398.171291,42.8117727 393.774068,47.216772 385.319527,47.216772 C380.788257,47.216772 376.864986,45.9962251 373.616738,43.3561031 C373.008739,42.9484548 372.668834,42.2722382 372.668834,41.5240838" id="Fill-18" fill="#231F20"></path>
                <path d="M431.527231,30.0051424 C431.527231,23.3628735 427.673378,17.4016169 420.705323,17.4016169 C413.737269,17.4016169 409.813998,23.3628735 409.813998,30.0051424 C409.813998,36.7145535 413.737269,42.67581 420.705323,42.67581 C427.673378,42.67581 431.527231,36.7145535 431.527231,30.0051424 M404.538288,30.0051424 C404.538288,20.5189273 410.759509,12.8623335 420.705323,12.8623335 C430.648744,12.8623335 436.869965,20.5189273 436.869965,30.0051424 C436.869965,39.4913576 430.648744,47.2174914 420.705323,47.2174914 C410.759509,47.2174914 404.538288,39.4913576 404.538288,30.0051424" id="Fill-20" fill="#231F20"></path>
                <mask id="mask-4" fill="white">
                    <use xlink:href="#path-3"></use>
                </mask>
                <g id="Clip-23"></g>
                <polygon id="Fill-22" fill="#231F20" mask="url(#mask-4)" points="0 48.6608061 48.2234369 48.6608061 48.2234369 0.352087481 0 0.352087481"></polygon>
            </g>
            <g id="Group-27" transform="translate(6.000000, 8.000000)">
                <mask id="mask-6" fill="white">
                    <use xlink:href="#path-5"></use>
                </mask>
                <g id="Clip-26"></g>
                <path d="M34.6533048,30.2905195 L34.3991477,30.2638112 C33.4328712,28.6855951 32.3371185,27.1607956 31.2749336,25.6869845 C30.8409484,25.0799784 30.4021678,24.4681161 29.9657848,23.8465418 L24.3551471,14.3189726 C24.2064892,14.0178975 24.0554336,13.7143944 23.9163665,13.4084633 C23.4727904,12.4251133 22.9836579,11.3762066 22.4273895,10.3467241 C21.8783143,9.33423772 21.247717,8.43344053 20.5787563,7.48165482 L20.5068251,7.37724976 C18.763691,4.89338042 17.2843049,2.30510602 16.1909499,0.328693853 C16.0902461,0.14902002 15.8504753,0.088319401 15.6178976,0.173300268 C15.4260809,0.212148664 15.203094,0.328693853 15.1479467,0.547216082 C14.5964738,2.79071097 13.5702546,4.94436894 12.6519323,6.78723974 C12.4385362,7.2145721 12.2227424,7.64190446 12.0069487,8.06923682 C11.2420797,9.58918032 10.4508359,11.1601123 9.74830734,12.7528966 C9.16326648,14.0785981 8.44874937,15.3557391 7.75820934,16.5916038 C7.36498516,17.2957309 6.95737472,18.0241384 6.57613908,18.7598299 C6.04384781,19.7796003 5.56190841,20.8455032 5.09675298,21.8774137 C4.71791505,22.7175103 4.32469086,23.5867431 3.9074896,24.4219836 C2.97238331,26.3085589 1.94376639,28.2971112 0.605845084,30.047717 C0.272563612,30.2031106 0.10712173,30.3585042 0.111917147,30.5114698 C0.114314855,30.6037347 0.171859858,30.6790035 0.265370486,30.7154238 C0.553095498,30.827113 0.843218219,30.9072378 1.13573865,30.9679384 L1.10456844,31.0334951 L1.519372,31.0334951 C2.41611495,31.1621804 3.32724416,31.1111919 4.21679398,31.0577753 C4.35346336,31.0504913 4.49253045,31.0407792 4.62919983,31.0334951 L6.53537804,31.0334951 C7.12521431,31.0650594 7.7174483,31.1136199 8.29529603,31.1670364 C8.599805,31.1937447 8.90431397,31.220453 9.20882294,31.2471613 C10.2086674,31.3272861 11.2276934,31.3442823 12.2131516,31.3612784 L12.6399437,31.3685625 C13.6469813,31.3855587 14.7475294,31.4025548 15.8912363,31.4025548 C17.0253524,31.4025548 18.205025,31.3879867 19.3799021,31.3442823 C20.4948365,31.3054339 21.6217595,31.2277371 22.7127168,31.1524683 C23.3313256,31.1111919 23.9595252,31.0699155 24.5901225,31.0334951 L32.2388124,31.0334951 C32.6608091,31.0650594 33.0852035,31.1039078 33.5072002,31.1524683 C33.648665,31.1694645 33.8021183,31.1646084 33.9579694,31.1403282 C34.0874456,31.1476122 34.2361036,31.1087639 34.3583867,31.0359231 C34.4207271,31.0116429 34.4806698,30.9873626 34.5406125,30.9582263 C34.5573965,30.9485142 34.9626092,30.7469882 34.9194505,30.4969016 C34.9098596,30.4289169 34.8595078,30.3147998 34.6533048,30.2905195" id="Fill-25" fill="#FEFEFE" mask="url(#mask-6)"></path>
            </g>
        </g>
    </g>
</svg>