<?xml version="1.0" encoding="UTF-8"?>
<svg width="26px" height="22px" viewBox="0 0 26 22" version="1.1" xmlns="http://www.w3.org/2000/svg" xmlns:xlink="http://www.w3.org/1999/xlink">
    <!-- Generator: Sketch 48.2 (47327) - http://www.bohemiancoding.com/sketch -->
    <title>Group</title>
    <desc>Created with Sketch.</desc>
    <defs></defs>
    <g id="Large--1440" stroke="none" stroke-width="1" fill="none" fill-rule="evenodd" transform="translate(-26.000000, -19.000000)">
        <g id="Group" transform="translate(26.000000, 19.000000)" fill="#000000">
            <path d="M7.30917365,19.1923422 C12.5029865,19.1923422 15.5158999,15.480816 15.5158999,10.906004 C15.5158999,6.29872008 12.5992026,2.58719388 7.30917365,2.58719388 L2.6610505,2.58719388 L2.6610505,19.1923422 L7.30917365,19.1923422 Z M0,20.1521157 L0,1.62788427 C0,0.731662718 0.513152795,0.22 1.41070537,0.22 L7.30917365,0.22 C13.9452991,0.22 18.2731665,4.85929179 18.2731665,10.906004 C18.2731665,16.984724 13.9452991,21.56 7.30917365,21.56 L1.41070537,21.56 C0.513152795,21.56 0,21.0478734 0,20.1521157 Z" id="Fill-1"></path>
            <path d="M22.752318,14.7959462 L22.3037586,1.48577755 C22.3037586,0.710568898 22.9445578,0 23.7771323,0 C24.577667,0 25.2505061,0.645929143 25.2184662,1.48577755 L24.8339867,14.7959462 C24.8019467,15.3449157 24.3533873,15.797394 23.7771323,15.797394 C23.2008774,15.797394 22.752318,15.3449157 22.752318,14.7959462 M23.7771323,18.4462187 C24.7378668,18.4462187 25.5384014,19.2542156 25.5384014,20.2233436 C25.5384014,21.1601516 24.7378668,22 23.7771323,22 C22.8163979,22 22.0158633,21.1601516 22.0158633,20.2233436 C22.0158633,19.2542156 22.8163979,18.4462187 23.7771323,18.4462187" id="Fill-4"></path>
        </g>
    </g>
</svg>