<?xml version="1.0" encoding="UTF-8"?>
<svg width="76px" height="98px" viewBox="0 0 76 98" version="1.1" xmlns="http://www.w3.org/2000/svg" xmlns:xlink="http://www.w3.org/1999/xlink">
    <!-- Generator: Sketch 48.2 (47327) - http://www.bohemiancoding.com/sketch -->
    <title>Group 18</title>
    <desc>Created with Sketch.</desc>
    <defs></defs>
    <g id="Page-1-Copy" stroke="none" stroke-width="1" fill="none" fill-rule="evenodd">
        <g id="Group-18" fill="#000000">
            <path d="M71.3356,69.6821 C69.3236,71.6941 66.7286,72.6991 63.5506,72.6991 L59.4626,72.6991 L59.4626,51.1911 L63.5506,51.1911 C66.7286,51.1911 69.3236,52.1811 71.3356,54.1601 C73.3466,56.1391 74.3536,58.7181 74.3536,61.8961 C74.3536,65.0761 73.3466,67.6711 71.3356,69.6821 Z M57.9056,88.2701 C57.9056,90.4111 57.1906,92.1951 55.7646,93.6221 C54.3366,95.0491 52.5536,95.7641 50.4116,95.7641 L14.1116,95.7641 C12.0346,95.7641 10.2826,95.0341 8.8566,93.5751 C7.4286,92.1151 6.7146,90.3461 6.7146,88.2701 L6.7146,44.5731 L8.7586,44.5731 L23.6486,44.5731 L24.9136,44.5731 L46.2276,44.5731 L57.9056,44.5731 L57.9056,88.2701 Z M3.6006,30.8511 L12.1656,25.2061 L21.1186,43.0161 L9.7326,43.0161 L3.6006,30.8511 Z M1.9466,18.8801 L10.9976,24.0381 L3.2116,29.2941 L1.9466,18.8801 Z M26.4716,1.7521 L44.6696,1.7521 L44.6696,10.0241 L35.6186,10.0241 L35.6186,11.6791 L44.6696,11.6791 L44.6696,16.6421 L38.8306,16.6421 L38.8306,18.1991 L44.6696,18.1991 L44.6696,23.2601 L35.6186,23.2601 L35.6186,24.8171 L44.6696,24.8171 L44.6696,33.0891 L38.8306,33.0891 L38.8306,34.7441 L44.6696,34.7441 L44.6696,43.0161 L26.4716,43.0161 L26.4716,1.7521 Z M58.6846,24.0381 C58.9426,24.2331 59.2026,24.3641 59.4626,24.4281 C59.8526,24.5581 60.2406,24.6881 60.6306,24.8171 C61.0206,24.9481 61.4086,25.0451 61.7986,25.1091 L54.9856,43.0161 L48.2716,43.0161 L58.6846,24.0381 Z M56.7376,19.7561 C56.0886,18.3941 56.1206,16.8701 56.8356,15.1821 C57.0296,14.7291 57.2886,14.2911 57.6136,13.8681 C57.9376,13.4471 58.2946,12.9771 58.6846,12.4571 C59.1376,11.8731 59.6236,11.2251 60.1446,10.5111 C60.6626,9.7981 61.0686,9.0361 61.3606,8.2241 C61.6526,7.4131 61.8146,6.5371 61.8476,5.5961 C61.8796,4.6561 61.6676,3.6341 61.2146,2.5301 C62.8356,3.1141 64.1976,3.9261 65.3026,4.9631 C66.4046,6.0021 67.2796,7.1531 67.9296,8.4181 C68.5776,9.6831 69.0156,10.9971 69.2436,12.3601 C69.4706,13.7221 69.4866,15.0531 69.2926,16.3501 C69.0976,18.1671 68.4806,19.8381 67.4426,21.3621 C66.4046,22.8871 64.9446,23.6491 63.0646,23.6491 C62.0246,23.6491 61.0206,23.4221 60.0466,22.9681 C58.4246,22.2551 57.3216,21.1841 56.7376,19.7561 Z M72.4546,53.0881 C70.1506,50.7861 67.1836,49.6341 63.5506,49.6341 L59.4626,49.6341 L59.4626,43.0161 L56.6406,43.0161 L63.3556,25.2061 C65.3026,25.0771 66.9566,24.2181 68.3186,22.6271 C69.6816,21.0381 70.5236,19.0111 70.8496,16.5451 C71.0436,14.9881 70.9786,13.3671 70.6546,11.6791 C70.3296,9.9921 69.7306,8.4031 68.8546,6.9101 C67.9786,5.4181 66.7936,4.1041 65.3026,2.9681 C63.8096,1.8341 61.9926,1.0071 59.8526,0.4871 L57.9056,0.0001 L58.9766,1.6551 C59.6896,2.7591 60.1106,3.7471 60.2406,4.6231 C60.3706,5.4991 60.3056,6.3431 60.0466,7.1531 C59.7866,7.9651 59.4136,8.7271 58.9276,9.4401 C58.4406,10.1551 57.9376,10.8361 57.4186,11.4841 C57.0296,12.0041 56.6556,12.5221 56.2996,13.0411 C55.9416,13.5611 55.6336,14.0791 55.3756,14.5981 C54.4656,16.5451 54.4346,18.4911 55.2776,20.4371 C55.6676,21.5411 56.3806,22.4491 57.4186,23.1621 L46.5196,43.0161 L46.2276,43.0161 L46.2276,0.1951 L24.9136,0.1951 L24.9136,43.0161 L22.8696,43.0161 L13.1386,23.4541 L0.0006,15.9611 L1.8486,30.7531 L1.8486,30.8511 L7.9806,43.0161 L5.1586,43.0161 L5.1586,88.2701 C5.1586,90.8001 6.0176,92.9421 7.7376,94.6941 C9.4556,96.4451 11.5816,97.3211 14.1116,97.3211 L50.4116,97.3211 C53.0066,97.3211 55.1636,96.4601 56.8836,94.7421 C58.6026,93.0221 59.4626,90.8651 59.4626,88.2701 L59.4626,74.2561 L63.5506,74.2561 C67.1836,74.2561 70.1506,73.1051 72.4546,70.8011 C74.7576,68.4981 75.9096,65.5311 75.9096,61.8961 C75.9096,58.3281 74.7576,55.3921 72.4546,53.0881 Z" id="Fill-1"></path>
            <path d="M36.7868,57.6138 C36.3328,57.3558 35.7798,57.3868 35.1328,57.7118 L35.1328,57.8088 L35.0348,57.7118 C34.7748,57.1928 34.3208,56.8688 33.6728,56.7378 C33.0228,56.6088 32.5368,56.8358 32.2128,57.4198 L33.4778,58.2958 L33.5758,58.2958 L33.5758,58.3928 C33.8338,58.9128 34.1908,59.2048 34.6458,59.2688 C34.7748,59.2688 34.8558,59.2858 34.8898,59.3168 C34.9218,59.3508 35.0018,59.3658 35.1328,59.3658 C35.4568,59.3658 35.7798,59.2688 36.1058,59.0738 C36.1058,59.0098 36.1378,59.0098 36.2028,59.0738 L37.7608,58.9768 C37.7608,58.2628 37.4348,57.8088 36.7868,57.6138" id="Fill-4"></path>
            <path d="M38.5388,66.0815 C38.5388,66.1455 38.5058,66.1785 38.4408,66.1785 L38.4408,66.2755 L38.1488,67.8325 L38.4408,67.8325 C38.9598,67.8325 39.3818,67.6385 39.7068,67.2485 C40.0968,66.7295 40.1928,66.1785 39.9988,65.5945 L38.5388,66.0815 Z" id="Fill-6"></path>
            <path d="M46.2272,63.6479 C46.2272,64.2319 46.0472,64.7349 45.6922,65.1569 C45.3342,65.5799 44.8962,65.8549 44.3772,65.9839 L43.8912,66.0819 L43.7942,66.4699 C42.9502,68.3529 41.5222,69.4559 39.5122,69.7789 L39.2202,69.8769 L39.0252,70.0709 C38.4412,70.7199 37.7272,71.1099 36.8842,71.2389 L36.8842,71.1419 L34.7432,70.8499 L34.3542,70.5579 L34.0622,70.7519 L32.8942,70.5579 L32.8942,71.1419 C32.1792,71.2729 31.4982,71.1749 30.8502,70.8499 L30.7532,70.6549 L30.5582,70.6549 L30.4612,70.6549 L30.2662,70.7519 L27.6382,71.0439 L27.6382,71.2389 C26.6652,71.0439 25.9182,70.4939 25.4002,69.5849 L25.2062,69.1959 L24.8162,69.1959 C23.6492,69.0659 22.6422,68.6449 21.7992,67.9299 L21.5072,67.7359 L21.1192,67.7359 C20.4042,67.8669 19.7552,67.6869 19.1712,67.2009 C18.5882,66.7129 18.2962,66.1149 18.2962,65.3999 C18.2962,64.2969 18.8462,63.5189 19.9512,63.0639 L20.2432,62.9669 L20.3392,62.5779 C20.8582,61.1509 21.7992,60.1779 23.1622,59.6579 L23.5512,59.4629 L23.6492,59.0739 C23.7782,58.2319 24.1502,57.5499 24.7682,57.0299 C25.3832,56.5109 26.1142,56.2519 26.9572,56.2519 C27.3472,56.2519 27.6382,56.2849 27.8332,56.3489 L28.3202,56.4469 L28.6122,56.1549 C29.7802,55.1809 31.0442,54.6949 32.4082,54.6949 C33.9642,54.6949 35.2932,55.2469 36.3982,56.3489 L36.7872,56.6409 L37.2742,56.4469 C37.7912,56.3169 38.2472,56.2519 38.6362,56.2519 C39.5432,56.2519 40.3052,56.5439 40.9232,57.1269 C41.5392,57.7109 41.8792,58.4589 41.9452,59.3659 L41.9452,59.6579 L42.2372,59.8529 C42.4962,60.0469 42.8212,60.4049 43.2102,60.9229 L43.4052,61.2149 L43.8912,61.2149 C44.5402,61.2149 45.0912,61.4429 45.5452,61.8959 C45.9982,62.3509 46.2272,62.9349 46.2272,63.6479 Z M31.7262,72.6989 C32.1792,72.7639 32.6342,72.7639 33.0882,72.6989 C33.0882,73.0879 33.0722,73.4289 33.0392,73.7209 C33.0062,74.0129 32.9262,74.1919 32.7962,74.2559 C32.5372,74.1269 32.1792,73.6079 31.7262,72.6989 Z M29.7802,85.8369 C29.9092,85.1229 30.0552,84.1829 30.2172,83.0149 C30.3782,81.8469 30.4612,80.6139 30.4612,79.3169 C30.4612,78.0179 30.3642,76.7709 30.1692,75.5699 C29.9742,74.3699 29.8122,73.4139 29.6822,72.6989 L29.8772,72.6019 C30.5252,73.9639 31.0932,74.8569 31.5812,75.2779 C32.0672,75.7009 32.4712,75.9109 32.7962,75.9109 C33.2492,75.9109 33.6392,75.7159 33.9642,75.3269 C34.2892,75.0019 34.4832,74.5819 34.5482,74.0609 C34.6132,73.5429 34.6462,73.0239 34.6462,72.5039 C34.7752,72.5699 34.8732,72.6019 34.9382,72.6019 C35.0012,72.6019 35.0992,72.6349 35.2302,72.6989 C35.1642,73.1539 35.1162,73.7209 35.0832,74.4019 C35.0502,75.0839 34.9692,75.7819 34.8402,76.4949 C34.7092,77.0139 34.6772,77.6789 34.7432,78.4899 C34.8072,79.2999 34.8892,80.1599 34.9872,81.0689 C35.0832,81.9759 35.1962,82.8519 35.3272,83.6959 C35.4562,84.5389 35.5852,85.2529 35.7162,85.8369 L29.7802,85.8369 Z M43.5022,58.8789 C43.3072,57.6479 42.7552,56.6409 41.8472,55.8629 C40.9382,55.0839 39.8682,54.6949 38.6362,54.6949 C37.9872,54.6949 37.5002,54.7599 37.1762,54.8889 C35.8142,53.7209 34.2232,53.1369 32.4082,53.1369 C30.7852,53.1369 29.2592,53.6579 27.8332,54.6949 L26.9572,54.6949 C25.8532,54.6949 24.8652,55.0359 23.9892,55.7159 C23.1132,56.3979 22.5122,57.2909 22.1892,58.3929 C20.7612,59.0429 19.6902,60.1779 18.9772,61.7989 C18.2632,62.1249 17.7132,62.6109 17.3232,63.2579 C16.9342,63.9079 16.7392,64.6219 16.7392,65.3999 C16.7392,66.5029 17.1602,67.4769 18.0042,68.3199 C18.8462,69.1639 19.8532,69.5209 21.0212,69.3899 C22.1232,70.1689 23.2262,70.5909 24.3302,70.6549 C24.7192,71.3039 25.2542,71.8229 25.9362,72.2119 C26.6172,72.6019 27.3472,72.7959 28.1252,72.7959 C28.2542,73.5109 28.4172,74.4509 28.6122,75.6189 C28.8062,76.7869 28.9042,78.0179 28.9042,79.3169 C28.9042,81.0689 28.7582,82.6739 28.4662,84.1339 C28.1742,85.5939 28.0282,86.3559 28.0282,86.4209 L27.8332,87.3939 L36.5922,87.3939 L37.5652,87.3939 L37.3712,86.4209 C37.2402,85.9009 37.1112,85.1879 36.9822,84.2799 C36.8512,83.3709 36.7212,82.4309 36.5922,81.4579 C36.4612,80.4849 36.3642,79.5599 36.3002,78.6839 C36.2352,77.8079 36.2352,77.1439 36.3002,76.6889 C36.4292,75.9759 36.5272,75.2779 36.5922,74.5969 C36.6562,73.9159 36.7212,73.3159 36.7872,72.7959 C38.0832,72.7959 39.1552,72.2779 39.9982,71.2389 C42.3342,70.8499 44.0212,69.5849 45.0592,67.4439 C45.9022,67.1849 46.5682,66.7129 47.0542,66.0329 C47.5402,65.3509 47.7842,64.5569 47.7842,63.6479 C47.7842,62.6109 47.4442,61.7179 46.7622,60.9719 C46.0812,60.2269 45.2202,59.7889 44.1832,59.6579 C44.0522,59.4629 43.8262,59.2049 43.5022,58.8789 Z" id="Fill-8"></path>
            <path d="M34.7429,63.4536 L33.7699,64.7186 C34.0289,64.9136 34.3539,65.0106 34.7429,65.0106 C35.0669,65.0106 35.2939,64.9786 35.4249,64.9136 C35.9429,64.7186 36.2669,64.2976 36.3979,63.6476 L34.8409,63.4536 L34.7429,63.4536 Z" id="Fill-10"></path>
            <path d="M28.1257,67.1519 L28.0277,67.0539 C28.0277,66.5359 27.8337,66.1149 27.4437,65.7899 C27.0557,65.4649 26.6007,65.3679 26.0817,65.4979 C26.0167,65.4979 25.9837,65.4649 25.9837,65.3999 L25.8877,65.3019 L24.4277,64.9139 C24.2327,65.4979 24.3617,66.0169 24.8157,66.4699 C25.2697,66.9909 25.7897,67.1519 26.3737,66.9569 L26.4717,67.0539 C26.4717,67.7689 26.7637,68.2559 27.3477,68.5139 C27.6047,68.6449 27.8657,68.7089 28.1257,68.7089 C28.3197,68.7089 28.6117,68.6449 29.0017,68.5139 L28.2227,67.1519 L28.1257,67.1519 Z" id="Fill-12"></path>
            <path d="M26.6657,61.02 L26.7637,61.02 L27.8337,59.853 C27.3127,59.463 26.7637,59.366 26.1797,59.561 C25.5957,59.755 25.2377,60.178 25.1077,60.826 L26.6657,61.118 L26.6657,61.02 Z" id="Fill-14"></path>
        </g>
    </g>
</svg>