<?xml version="1.0" encoding="UTF-8"?>
<svg width="117px" height="88px" viewBox="0 0 117 88" version="1.1" xmlns="http://www.w3.org/2000/svg" xmlns:xlink="http://www.w3.org/1999/xlink">
    <!-- Generator: Sketch 48.2 (47327) - http://www.bohemiancoding.com/sketch -->
    <title>ROCKET</title>
    <desc>Created with Sketch.</desc>
    <defs></defs>
    <g id="Page-1-Copy" stroke="none" stroke-width="1" fill="none" fill-rule="evenodd">
        <g id="ROCKET" fill="#000000">
            <path d="M72.3893101,44.6551536 C69.8398609,46.6472696 67.1144116,48.7579942 64.2142377,50.9847768 C61.3127884,53.2115594 58.5580058,55.3069797 55.9511652,57.2697623 C53.3430493,59.2338203 51.0729043,60.9466319 49.1394551,62.4120232 C47.2047304,63.8774145 45.9153391,64.8441391 45.2712812,65.3121971 C45.0149333,65.2267478 44.6336,65.0584 44.1923246,64.8479652 C44.063513,64.7395594 43.9308754,64.6694145 43.7893101,64.6566609 C43.7510493,64.6375304 43.7268174,64.6286029 43.6885565,64.6094725 C42.9845565,64.2574725 42.1632232,63.7600812 41.2271072,63.1160232 C40.1137159,62.2946899 38.8829913,61.1073275 37.5349333,59.5552116 C36.1868754,58.0030957 34.9268174,55.9650667 33.7560348,53.4462261 L34.9089623,51.9935884 L34.9854841,52.0395014 L37.4545855,48.7898783 L61.9734261,17.932487 C63.3788754,16.584429 64.711629,15.398342 65.971687,14.3716754 C67.2317449,13.3475594 68.7991652,12.2622261 70.6752232,11.1195014 C72.5500058,9.97677681 74.6747594,8.92077681 77.0482087,7.95532754 C79.421658,6.9886029 82.0284986,6.1966029 84.8712812,5.5806029 C87.7140638,4.96587826 90.7749333,4.68912464 94.0577159,4.74651594 C94.4097159,6.32796522 94.5257739,7.94129855 94.4097159,9.58141449 C94.2911072,11.2228058 94.0577159,12.8488928 93.7057159,14.4596754 C93.3537159,16.0730087 92.9149913,17.6110957 92.3869913,19.0739362 C91.8602667,20.5406029 91.3029333,21.8873855 90.717542,23.1181101 C89.3108174,26.2835594 87.8160928,29.0077333 86.2333681,31.2931826 C84.6519188,33.5786319 83.4785855,35.1613565 82.7184696,36.0400812 C82.1904696,36.6267478 80.9737739,37.7108058 79.069658,39.2935304 C77.165542,40.8749797 74.9387594,42.6630377 72.3893101,44.6551536 Z M56.9625275,73.5752696 L48.8754551,79.2008928 L53.0063536,72.6085449 L48.9621797,64.8734725 L58.1052522,58.1038493 L56.9625275,73.5752696 Z M37.1842087,68.828371 C36.8322087,68.652371 36.333542,68.3450087 35.6894841,67.9050087 C35.0441507,67.4662841 34.3707594,66.9102261 33.6680348,66.2355594 C32.9640348,65.5634435 32.2613101,64.8007768 31.5573101,63.9501101 C30.8545855,63.1007188 30.2679188,62.1480232 29.7998609,61.0932986 C30.2679188,60.5079072 30.7665855,59.8919072 31.2933101,59.2465739 C31.9909333,58.4201391 32.6872812,57.5490667 33.3849043,56.656313 C34.1577739,58.1000232 34.9931362,59.3753855 35.9088464,60.4339362 C37.403571,62.1633275 38.8230493,63.5254145 40.1723826,64.5214725 C40.7973101,64.9831536 41.3724986,65.3721391 41.9094261,65.7011826 L37.1842087,68.828371 Z M26.9864116,45.2698783 L20.2180638,49.3140522 L26.019687,41.2269797 L41.5791072,40.4349797 L34.9842087,49.0908638 L34.5327304,49.6584 L26.9864116,45.2698783 Z M84.0359188,37.2708058 C84.5639188,36.6267478 85.2959768,35.6600232 86.2333681,34.3706319 C87.1707594,33.0825159 88.1680928,31.5571826 89.2228174,29.7997333 C90.277542,28.0410087 91.3029333,26.1075594 92.2989913,23.9981101 C93.2950493,21.8873855 94.1304116,19.6899362 94.8050783,17.404487 C95.4784696,15.1190377 95.9031652,12.8195594 96.0791652,10.5047768 C96.2551652,8.1899942 96.0791652,5.91984928 95.5524406,3.6917913 L95.4644406,3.0757913 L94.7617159,2.9877913 L93.0029913,2.9877913 C88.0800928,2.9877913 83.6405565,3.67776232 79.685658,5.05387826 C75.7294841,6.43126957 72.3587014,7.96935652 69.5758609,9.66813913 C66.7917449,11.3694725 64.6389333,12.9368928 63.1161507,14.3716754 C61.5908174,15.8090087 60.7707594,16.6137623 60.6534261,16.788487 L43.3187014,38.6035594 L25.0529623,39.5562551 L13.7137159,55.2036754 L26.9864116,47.2913275 L33.3925565,51.0931826 L31.7333101,53.1822261 L31.9973101,53.7102261 C32.165658,54.1272696 32.3480348,54.5111536 32.5253101,54.9052406 C32.1898899,55.3069797 31.8417159,55.7469797 31.4705855,56.2584 C30.9999768,56.7864 30.4885565,57.3870957 29.9312232,58.060487 C29.3738899,58.7351536 28.7731942,59.4825159 28.1291362,60.3025739 L27.7784116,60.7412986 L27.9531362,61.1812986 C28.5385275,62.7053565 29.3164986,64.0534145 30.2832232,65.2241971 C31.2499478,66.3975304 32.2013681,67.3782841 33.1400348,68.1690087 C34.0761507,68.9610087 34.911513,69.5757333 35.6448464,70.0157333 C36.3769043,70.454458 36.773542,70.6738203 36.8322087,70.6738203 L37.2709333,70.9378203 L43.6477449,66.6054145 C44.5519768,66.9739942 45.0672232,67.1589217 45.1820058,67.1589217 L45.6220058,67.3336464 L45.9740058,67.0709217 C46.1296,66.952313 46.6473971,66.568429 47.5108174,65.9281971 L50.9849043,72.5205449 L42.8098319,85.6185159 L58.7199768,74.5432696 L59.9762087,56.4917913 C61.325542,55.4561971 62.7207884,54.3848928 64.1708754,53.2702261 C67.2164406,50.9261101 70.1178899,48.6840232 72.8726725,46.5439652 C75.6261797,44.406458 78.0289623,42.488313 80.0810203,40.7869797 C82.1318029,39.0881971 83.4505275,37.9174145 84.0359188,37.2708058 Z" id="Fill-1"></path>
            <path d="M112.297948,72.1563014 C110.86189,73.7454029 109.058528,74.5425043 106.891687,74.5425043 L81.9277449,74.5425043 C80.1103536,74.5998957 78.555687,73.9813449 77.267571,72.6843014 C75.9781797,71.3847072 75.3341217,69.8236638 75.3341217,67.9935188 C75.3341217,66.1659246 75.9781797,64.6176348 77.267571,63.3486493 C78.555687,62.0796638 80.1103536,61.4458087 81.9277449,61.4458087 C82.3358609,61.4458087 82.7465275,61.475142 83.1571942,61.5325333 C83.5665855,61.5924754 83.9772522,61.7085333 84.3879188,61.883258 L85.5306435,62.323258 L85.6186435,61.0925333 C85.7359768,58.5749681 86.6733681,56.4502145 88.4320928,54.7195478 C90.189542,52.9927072 92.357658,52.1267362 94.9364406,52.1267362 C96.8711652,52.1267362 98.6426435,52.6840696 100.254701,53.7961855 C101.865484,54.9108522 102.99418,56.4043014 103.639513,58.2803594 L103.990238,58.9830841 L104.694238,58.8070841 C104.986296,58.7496928 105.293658,58.7063304 105.6176,58.6757217 C105.938991,58.6463884 106.246354,58.6323594 106.539687,58.6323594 C108.76647,58.6323594 110.641252,59.3975768 112.16531,60.929287 C113.689368,62.4622725 114.450759,64.3485333 114.450759,66.5867942 C114.450759,68.7089971 113.73273,70.5646493 112.297948,72.1563014 M115.462122,62.763258 C114.963455,61.5924754 114.276035,60.5658087 113.396035,59.6870841 C112.51731,58.8070841 111.491919,58.1196638 110.319861,57.6209971 C109.146528,57.1236058 107.887745,56.8736348 106.539687,56.8736348 L105.792325,56.8736348 C105.586991,56.8736348 105.338296,56.9042435 105.044962,56.9616348 C104.167513,54.9695188 102.81818,53.3714899 101.002064,52.1700986 C99.1846725,50.971258 97.1632232,50.369287 94.9364406,50.369287 C93.5297159,50.369287 92.1969623,50.619258 90.9369043,51.1230261 C89.6768464,51.6255188 88.5634551,52.3078377 87.5967304,53.1636058 C86.6300058,54.0219246 85.8239768,55.0269101 85.1786435,56.1823884 C84.5333101,57.3353159 84.1251942,58.5915478 83.9479188,59.9510841 C83.2451942,59.7738087 82.5705275,59.6870841 81.9277449,59.6870841 C80.7544116,59.6870841 79.6703536,59.9064464 78.6742957,60.3426203 C77.6769623,60.7800696 76.7982377,61.3769391 76.0368464,62.1357797 C75.2754551,62.8933449 74.6747594,63.7822725 74.2347594,64.801287 C73.7960348,65.8215768 73.5766725,66.8865043 73.5766725,67.9935188 C73.5766725,69.1592 73.7960348,70.2381565 74.2347594,71.229113 C74.6747594,72.2200696 75.2754551,73.0924174 76.0368464,73.8525333 C76.7982377,74.6100986 77.6769623,75.2082435 78.6742957,75.6444174 C79.6703536,76.0805913 80.7544116,76.2999536 81.9277449,76.2999536 L106.979687,76.2999536 L107.858412,76.213229 C110.261194,75.8599536 112.25331,74.7758957 113.836035,72.9597797 C115.418759,71.1423884 116.209484,69.0036058 116.209484,66.5434319 C116.209484,65.1953739 115.959513,63.9365913 115.462122,62.763258" id="Fill-3"></path>
            <path d="M22.6793855,8.13043478 C23.3234435,7.45831884 24.1435014,7.12034783 25.1408348,7.12034783 C25.6088928,7.12034783 26.0195594,7.20707246 26.3715594,7.38307246 L27.6022841,7.91107246 L27.6022841,6.59234783 C27.6596754,5.24428986 28.1736464,4.10284058 29.140371,3.16417391 C30.1070957,2.22678261 31.2638493,1.75744928 32.6131826,1.75744928 C33.6679072,1.75744928 34.6346319,2.06481159 35.5133565,2.68081159 C36.3920812,3.29553623 37.0080812,4.10284058 37.3588058,5.09762319 L37.6228058,5.80162319 L38.4135304,5.62562319 C38.6481971,5.56695652 38.9695884,5.53762319 39.3815304,5.53762319 C40.552313,5.53762319 41.548371,5.94828986 42.3697043,6.76834783 C43.1897623,7.58968116 43.600429,8.58446377 43.600429,9.75652174 C43.600429,10.9298551 43.2178203,11.925913 42.4577043,12.745971 C41.6950377,13.5673043 40.7576464,13.9766957 39.6442551,13.9766957 L25.1408348,13.9766957 C24.1435014,13.9766957 23.3234435,13.6553043 22.6793855,13.0086957 C22.0340522,12.3646377 21.7126609,11.5458551 21.7126609,10.5485217 C21.7126609,9.61113043 22.0340522,8.80510145 22.6793855,8.13043478 M25.1408348,15.7341449 L39.6442551,15.7341449 L40.5242551,15.7341449 L40.5242551,15.6474203 C41.9309797,15.354087 43.086458,14.6653913 43.9957913,13.580058 C44.9038493,12.4972754 45.3591536,11.2231884 45.3591536,9.75652174 C45.3591536,8.05773913 44.7865159,6.63571014 43.6437913,5.49426087 C42.5010667,4.35026087 41.080313,3.78017391 39.3815304,3.78017391 L38.7655304,3.78017391 C38.1788638,2.60811594 37.3447768,1.68475362 36.2607188,1.01008696 C35.1753855,0.337971014 33.9599652,0 32.6131826,0 C30.9705159,0 29.5357333,0.512695652 28.3050087,1.53808696 C27.0742841,2.56475362 26.3128928,3.86689855 26.0195594,5.44962319 C25.8435594,5.44962319 25.6815884,5.43686957 25.5361971,5.40498551 C25.3895304,5.37692754 25.2568928,5.36162319 25.1408348,5.36162319 C23.6754435,5.36162319 22.4447188,5.87431884 21.4486609,6.89971014 C20.4513275,7.92637681 19.9539362,9.1417971 19.9539362,10.5485217 C19.9539362,12.013913 20.4513275,13.2446377 21.4486609,14.2394203 C22.4447188,15.2367536 23.6754435,15.7341449 25.1408348,15.7341449" id="Fill-5"></path>
            <path d="M22.9428754,78.7622957 C21.7708174,80.8118029 20.6140638,82.3792232 19.4713391,83.4658319 C18.3286145,84.5486145 17.2432812,85.2666435 16.2191652,85.6186435 C15.1924986,85.9693681 14.2984696,86.1453681 13.5370783,86.1453681 C13.3610783,86.1453681 13.1863536,86.1300638 13.0090783,86.1020058 C12.8343536,86.0713971 12.6864116,86.0586435 12.5703536,86.0586435 C12.7463536,85.6492522 12.951687,85.1250783 13.1863536,84.4848464 C13.4197449,83.8433391 13.6697159,83.2018319 13.9337159,82.5616 C14.1964406,81.9213681 14.4298319,81.2938899 14.6364406,80.6829913 C14.8404986,80.0682667 15.0011942,79.5900058 15.1198029,79.2405565 L16.4385275,75.0446145 L13.6250783,78.4460058 C11.163629,81.3512812 8.37951304,82.8051942 5.2740058,82.8051942 C4.68861449,82.8051942 4.14531014,82.7618319 3.64791884,82.6725565 C3.14925217,82.5858319 2.75388986,82.4825275 2.46055652,82.3651942 C2.87122319,81.6038029 3.57394783,80.5197449 4.57128116,79.1130203 C5.56606377,77.707571 6.81336812,76.299571 8.30681739,74.8941217 C9.80154203,73.4873971 11.543687,72.2566725 13.5370783,71.2019478 C15.5291942,70.1472232 17.7266435,69.6192232 20.1294261,69.6192232 C20.9507594,69.6192232 21.7708174,69.6944696 22.5921507,69.8398609 C23.4109333,69.9865275 24.2309913,70.2058899 25.0523246,70.4992232 L25.2283246,70.4992232 L25.3163246,70.4992232 C25.4923246,70.4992232 25.6530203,70.5119768 25.799687,70.5425855 C25.9450783,70.5719188 26.0777159,70.5872232 26.1950493,70.5872232 C25.1989913,73.9847884 24.1149333,76.7102377 22.9428754,78.7622957 M25.4923246,68.7417739 C24.5549333,68.4484406 23.6468754,68.2278029 22.7668754,68.0811362 C21.8881507,67.9357449 21.0094261,67.8617739 20.1294261,67.8617739 C14.9131942,67.8617739 10.0502377,70.2938899 5.5380058,75.1581217 C3.83794783,76.9742377 2.56386087,78.615629 1.71446957,80.0797449 C0.863802899,81.5451362 0.409773913,82.3065275 0.352382609,82.3651942 L0.000382608696,83.1571942 L0.791107246,83.5959188 C0.848498551,83.5959188 1.27446957,83.7566145 2.0651942,84.0805565 C2.8571942,84.4019478 3.92594783,84.5639188 5.2740058,84.5639188 C6.2113971,84.5639188 7.26612174,84.4172522 8.43817971,84.1239188 C9.61023768,83.8305855 10.8702957,83.1865275 12.2183536,82.1904696 C11.8089623,83.1865275 11.441658,84.1239188 11.1202667,85.0039188 C10.7976,85.8826435 10.6062957,86.3213681 10.5489043,86.3213681 L10.2849043,87.1133681 L11.075629,87.4640928 C11.1342957,87.4640928 11.3842667,87.5367884 11.8229913,87.6834551 C12.2629913,87.8288464 12.8343536,87.9040928 13.5370783,87.9040928 C14.4158029,87.9040928 15.4718029,87.6974841 16.7012522,87.2893681 C17.9319768,86.8774261 19.2073391,86.0433391 20.5247884,84.7832812 C21.8447884,83.5219478 23.1762667,81.7198609 24.5256,79.3770203 C25.8723826,77.0329043 27.1031072,73.9273971 28.2177739,70.0592232 L28.4804986,69.1792232 L27.5137739,69.0044986 C26.8684406,68.8284986 26.1950493,68.7417739 25.4923246,68.7417739" id="Fill-7"></path>
            <path d="M78.8501681,31.0296928 C78.3808348,32.0270261 77.7801391,32.8904464 77.0480812,33.6225043 C76.3147478,34.3558377 75.4500522,34.941229 74.4552696,35.381229 C73.4579362,35.821229 72.4032116,36.0405913 71.2898203,36.0405913 L71.2018203,36.0405913 C68.8577043,35.923258 66.9242551,35.1032 65.4014725,33.579142 C63.8187478,31.9964174 63.0280232,30.0349101 63.0280232,27.6895188 C63.0280232,26.5774029 63.2473855,25.5226783 63.6861101,24.5240696 C64.1261101,23.529287 64.7115014,22.6645913 65.4448348,21.931258 C66.1768928,21.1992 67.040313,20.6125333 68.0376464,20.1738087 C69.0337043,19.7350841 70.1177623,19.5144464 71.2898203,19.5144464 L71.3790957,19.5144464 C72.4912116,19.5144464 73.5459362,19.7350841 74.5432696,20.1738087 C75.5380522,20.6125333 76.4027478,21.2145043 77.1360812,21.9746203 C77.8681391,22.7385623 78.4548058,23.6313159 78.8948058,24.6567072 C79.3335304,25.6833739 79.5528928,26.7521275 79.5528928,27.8655188 C79.5528928,28.9801855 79.3182261,30.0349101 78.8501681,31.0296928 M78.4101681,20.745171 C77.5314435,19.8077797 76.4907478,19.0744464 75.2893565,18.5477217 C74.0879652,18.0197217 72.7845449,17.7569971 71.3790957,17.7569971 L71.2898203,17.7569971 C69.884371,17.7569971 68.5796754,18.0056928 67.3782841,18.5043594 C66.1768928,19.0017507 65.1221681,19.7057507 64.2141101,20.6125333 C63.3047768,21.523142 62.5880232,22.5765913 62.0600232,23.7767072 C61.5332986,24.9793739 61.2692986,26.2827942 61.2692986,27.6895188 C61.2692986,29.0949681 61.5179942,30.4009391 62.0166609,31.6010551 C62.5140522,32.8037217 63.2167768,33.8584464 64.1261101,34.7665043 C65.0341681,35.6758377 66.0888928,36.4078957 67.2915594,36.9626783 C68.4904,37.521287 69.796371,37.7993159 71.2018203,37.7993159 L71.2898203,37.7993159 C72.6378783,37.7993159 73.9119652,37.5353159 75.1146319,37.0073159 C76.3147478,36.4793159 77.3694725,35.7625623 78.2788058,34.853229 C79.1868638,33.945171 79.9189217,32.8904464 80.4762551,31.6890551 C81.032313,30.4889391 81.3116174,29.2135768 81.3116174,27.8655188 C81.3116174,26.4587942 81.0476174,25.1553739 80.5208928,23.9527072 C79.9928928,22.7538667 79.2901681,21.6838377 78.4101681,20.745171" id="Fill-9"></path>
        </g>
    </g>
</svg>