<?xml version="1.0" encoding="UTF-8"?>
<svg width="56px" height="56px" viewBox="0 0 56 56" version="1.1" xmlns="http://www.w3.org/2000/svg" xmlns:xlink="http://www.w3.org/1999/xlink">
    <!-- Generator: Sketch 48.2 (47327) - http://www.bohemiancoding.com/sketch -->
    <title>be</title>
    <desc>Created with Sketch.</desc>
    <defs></defs>
    <g id="Artboard" stroke="none" stroke-width="1" fill="none" fill-rule="evenodd" transform="translate(-461.000000, -54.000000)">
        <g id="be" transform="translate(461.000000, 54.000000)">
            <rect id="Rectangle-2" fill="#000000" x="0" y="0" width="56" height="56"></rect>
            <g id="behance-logo" transform="translate(9.000000, 16.000000)" fill="#FFFFFF" fill-rule="nonzero">
                <path d="M34.999165,3 L25,3 L25,1 L35,1 L35,3 L34.999165,3 Z M19.0490606,13.2404887 C19.6831418,14.2063894 20,15.3791727 20,16.7560587 C20,18.179935 19.642748,19.4572806 18.9159345,20.5855846 C18.4535495,21.3322273 17.8794662,21.962919 17.1896727,22.4706647 C16.4128002,23.0578635 15.4930451,23.4605089 14.435696,23.6756417 C13.3749732,23.8911333 12.2268978,24 10.9901934,24 L0,24 L0,0 L11.7853023,0 C14.755928,0.047528304 16.8619638,0.893980495 18.1055981,2.55630535 C18.8518334,3.57583231 19.2215774,4.79919292 19.2215774,6.22118597 C19.2215774,7.68846542 18.8473655,8.8625042 18.0938356,9.75451183 C17.6746709,10.2546351 17.0554525,10.7095617 16.2357243,11.1201883 C17.4773526,11.5672234 18.4194473,12.2711804 19.0490606,13.2404887 Z M6,9 L11.3215561,9 C12.4151475,9 13.2991919,8.81266938 13.9800789,8.43817751 C14.6604961,8.06427846 15,7.39964431 15,6.44537602 C15,5.39109079 14.5504604,4.69131098 13.6492201,4.35450542 C12.8745537,4.12051152 11.8833866,4 10.6806991,4 L6,4 L6,9 Z M15,15.7934719 C15,14.6239589 14.4948385,13.8154286 13.4865604,13.3815933 C12.9227213,13.1350215 12.1271942,13.0090014 11.1071806,13 L6,13 L6,19 L11.0281436,19 C12.0611374,19 12.8606652,18.8720451 13.4376624,18.6051148 C14.4782132,18.1143266 15,17.180281 15,15.7934719 Z M38.8476274,12.8145898 C38.9640467,13.5894456 39.0167126,14.7136768 38.9953422,16.1831241 L26.5148698,16.1831241 C26.5837199,17.8880547 27.1784241,19.080338 28.3063145,19.7626289 C28.9865001,20.1904987 29.8111816,20.3994336 30.7768718,20.3994336 C31.7951385,20.3994336 32.6250955,20.1446586 33.2639711,19.6209495 C33.6120666,19.343343 33.9191203,18.9514904 34.1845957,18.4570729 L38.7591058,18.4570729 C38.6392887,19.4640492 38.0884876,20.4853616 37.0986552,21.5232224 C35.5650856,23.1728441 33.414279,24 30.6520474,24 C28.3701573,24 26.3591075,23.3023997 24.6135331,21.9122432 C22.8737708,20.5172195 22,18.254775 22,15.1163257 C22,12.1732718 22.7844444,9.92065014 24.3586088,8.35270866 C25.9385852,6.78184688 27.9776221,6 30.4910096,6 C31.9807656,6 33.3237008,6.26353594 34.5217825,6.79335113 C35.7161088,7.32369729 36.7031693,8.15837525 37.4805499,9.30552647 C38.1840731,10.3157771 38.6365168,11.4839014 38.8476274,12.8145898 Z M34,12.9999017 C33.913117,11.6898417 33.5011173,10.6982988 32.7592771,10.020651 C32.0235501,9.34113482 31.104424,9 30.0077343,9 C28.8141579,9 27.8925309,9.36463762 27.2376663,10.0813256 C26.5783557,10.7965385 26.1681159,11.7689055 26,13 L34,13 L34,12.9999017 Z" id="Behance"></path>
            </g>
        </g>
    </g>
</svg>