<?xml version="1.0" encoding="UTF-8"?>
<svg width="107px" height="88px" viewBox="0 0 107 88" version="1.1" xmlns="http://www.w3.org/2000/svg" xmlns:xlink="http://www.w3.org/1999/xlink">
    <!-- Generator: Sketch 48.2 (47327) - http://www.bohemiancoding.com/sketch -->
    <title>COMPUTER</title>
    <desc>Created with Sketch.</desc>
    <defs>
        <polygon id="path-1" points="0.240491429 1.15368 103.005257 1.15368 103.005257 47.7710514 0.240491429 47.7710514"></polygon>
    </defs>
    <g id="Page-1-Copy" stroke="none" stroke-width="1" fill="none" fill-rule="evenodd">
        <g id="COMPUTER">
            <path d="M78.6766514,65.7654171 L8.83859429,65.7654171 C7.79893714,65.7654171 6.83093714,65.57936 5.93585143,65.2022171 C5.03950857,64.8275886 4.26008,64.3083886 3.59630857,63.64336 C2.93128,62.9795886 2.41082286,62.1989029 2.03619429,61.30256 C1.66030857,60.4074743 1.47299429,59.4696457 1.47299429,58.4878171 L1.47299429,8.83821714 C1.47299429,6.81547429 2.19459429,5.08313143 3.64030857,3.63867429 C5.08225143,2.19547429 6.81585143,1.47261714 8.83859429,1.47261714 L88.5540229,1.47261714 C90.5755086,1.47261714 92.3091086,2.19547429 93.7523086,3.63867429 C95.1967657,5.08313143 95.9196229,6.81547429 95.9196229,8.83821714 L95.8567657,38.2038171 L97.3766514,38.2038171 L97.3929943,8.83821714 C97.3929943,7.62507429 97.1604229,6.48484571 96.6990514,5.41501714 C96.2364229,4.34770286 95.6015657,3.40861714 94.7932229,2.59901714 C93.9836229,1.79067429 93.0457943,1.15456 91.9772229,0.691931429 C90.9073943,0.23056 89.7671657,0.000502857143 88.5540229,0.000502857143 L8.83859429,0.000502857143 C7.62545143,0.000502857143 6.48396571,0.23056 5.41539429,0.691931429 C4.34682286,1.15456 3.40773714,1.79067429 2.59939429,2.59901714 C1.78979429,3.40861714 1.15493714,4.34770286 0.693565714,5.41501714 C0.230937143,6.48484571 0.00088,7.62507429 0.00088,8.83821714 L0.00088,58.4878171 C0.00088,59.70096 0.230937143,60.8411886 0.693565714,61.90976 C1.15493714,62.9795886 1.78979429,63.9035886 2.59939429,64.6830171 C3.40773714,65.4624457 4.34682286,66.0834743 5.41539429,66.5448457 C6.48396571,67.0087314 7.62545143,67.2387886 8.83859429,67.2387886 L78.6238514,67.2387886 L78.6766514,65.7654171 Z" id="Fill-1" fill="#000000"></path>
            <path d="M73.7647429,38.7558286 C73.7647429,39.9689714 73.5321714,41.1255429 73.0695429,42.2217714 C72.6081714,43.3192571 71.9871429,44.2872571 71.2089714,45.1232571 C70.4282857,45.9617714 69.5030286,46.6268 68.4344571,47.1170857 C67.3658857,47.6086286 66.2256571,47.8839429 65.0125143,47.9405143 L64.7522857,47.9405143 L36.7645143,47.9405143 C34.6273714,47.9405143 32.8221143,47.2038286 31.35,45.7304571 C29.8766286,44.2583429 29.1399429,42.4530857 29.1399429,40.3146857 C29.1399429,38.1788 29.8766286,36.3722857 31.35,34.9001714 C32.8221143,33.4268 34.6273714,32.6901143 36.7645143,32.6901143 C37.6885143,32.6901143 38.6414286,32.8636 39.6245143,33.2105714 L40.5786857,33.6442857 L40.6641714,32.6033714 C40.7207429,31.1601714 41.0400571,29.8024571 41.6170857,28.5302286 C42.1941143,27.2605143 42.9597143,26.1630286 43.9138857,25.2377714 C44.8668,24.3150286 45.9919429,23.5783429 47.2930857,23.0289714 C48.5929714,22.4808571 49.9632571,22.2055429 51.4089714,22.2055429 C53.6617714,22.2055429 55.7109143,22.8554857 57.5601714,24.1553714 C59.4081714,25.4552571 60.7369714,27.1737714 61.5465714,29.3109143 L61.8068,29.9181143 L62.414,29.7446286 C62.7597143,29.6868 63.1054286,29.6440571 63.4524,29.6151429 C63.7981143,29.5849714 64.1463429,29.5698857 64.4933143,29.5698857 C65.7630286,29.5698857 66.9623429,29.8175429 68.0874857,30.3065714 C69.2151429,30.7993714 70.1969714,31.4493143 71.0342286,32.2564 C71.8714857,33.0672571 72.5352571,34.0327429 73.0280571,35.1604 C73.5170857,36.2855429 73.7647429,37.4848571 73.7647429,38.7558286 M68.6946857,28.8784571 C67.3960571,28.3014286 65.9930857,28.0110286 64.4933143,28.0110286 C64.2041714,28.0110286 63.9137714,28.0261143 63.6271429,28.0537714 C63.3367429,28.0839429 63.0476,28.1279429 62.7597143,28.1845143 C61.7766286,25.9317143 60.2605143,24.1264571 58.2101143,22.7687429 C56.1597143,21.4122857 53.8905714,20.7321714 51.4089714,20.7321714 C49.8501143,20.7321714 48.3616571,21.0074857 46.9461143,21.5556 C45.5305714,22.1062286 44.2885143,22.8705714 43.2199429,23.8524 C42.1513714,24.8354857 41.2562857,25.9744571 40.5334286,27.2743429 C39.8118286,28.5742286 39.3655429,30.0036 39.1908,31.5637143 C38.4981143,31.3336571 37.6885143,31.2167429 36.7645143,31.2167429 C35.4935429,31.2167429 34.3093143,31.4631429 33.2130857,31.9534286 C32.1143429,32.4449714 31.1463429,33.0949143 30.3103429,33.9032571 C29.4718286,34.7128571 28.8068,35.6657714 28.3165143,36.762 C27.8262286,37.8607429 27.5798286,39.0449714 27.5798286,40.3146857 C27.5798286,41.5869143 27.8262286,42.7711429 28.3165143,43.8673714 C28.8068,44.9648571 29.4718286,45.9341143 30.3103429,46.7701143 C31.1463429,47.6086286 32.1143429,48.2724 33.2130857,48.7639429 C34.3093143,49.2554857 35.4935429,49.5006286 36.7645143,49.5006286 L65.0992571,49.5006286 L65.7919429,49.4138857 C68.5061143,49.0669143 70.7589143,47.8965143 72.5503429,45.9052 C74.3405143,43.9113714 75.2368571,41.5278286 75.2368571,38.7558286 C75.2368571,37.3126286 74.9628,35.926 74.4134286,34.5959429 C73.8640571,33.2684 73.0997143,32.1269143 72.1166286,31.174 C71.1348,30.2210857 69.9945714,29.4567429 68.6946857,28.8784571" id="Fill-3" fill="#000000"></path>
            <path d="M95.6861714,9.12208 C95.6861714,8.60162286 95.4259429,8.34139429 94.9054857,8.34139429 L4.79222857,8.34139429 C4.27177143,8.34139429 4.01154286,8.60162286 4.01154286,9.12208 C4.01154286,9.58470857 4.27177143,9.81476571 4.79222857,9.81476571 L94.9054857,9.81476571 C95.4259429,9.81476571 95.6861714,9.58470857 95.6861714,9.12208" id="Fill-5" fill="#000000"></path>
            <path d="M84.1619429,48.6337029 C84.1619429,49.1529029 84.392,49.4131314 84.8558857,49.4131314 L104.437143,49.4131314 C104.898514,49.4131314 105.131086,49.1529029 105.131086,48.6337029 C105.131086,48.1132457 104.898514,47.8542743 104.437143,47.8542743 L84.8558857,47.8542743 C84.392,47.8542743 84.1619429,48.1132457 84.1619429,48.6337029" id="Fill-7" fill="#000000"></path>
            <path d="M77.2291771,85.5463086 L30.4395771,85.5463086 C29.9769486,85.5463086 29.7456343,85.3137371 29.7456343,84.8523657 C29.7456343,84.3897371 29.9769486,84.1584229 30.4395771,84.1584229 L77.2291771,84.1584229 C77.6905486,84.1584229 77.92312,84.3897371 77.92312,84.8523657 C77.92312,85.3137371 77.6905486,85.5463086 77.2291771,85.5463086 Z M45.15192,70.7849371 L61.8090629,70.8075657 L64.0580914,82.4801371 L42.91672,82.4801371 L45.15192,70.7849371 Z M77.2291771,82.6863086 L65.6144343,82.6863086 L62.7582057,69.5303086 L43.8168343,69.4234514 L41.3251771,82.6863086 L30.4395771,82.6863086 C29.8034629,82.6863086 29.2830057,82.8887086 28.88072,83.2922514 C28.4746629,83.6957943 28.27352,84.2162514 28.27352,84.8523657 C28.27352,85.4872229 28.4746629,86.00768 28.88072,86.4112229 C29.2830057,86.8160229 29.8034629,87.0184229 30.4395771,87.0184229 L77.2291771,87.0184229 C77.8652914,87.0184229 78.3844914,86.8160229 78.7892914,86.4112229 C79.1928343,86.00768 79.3964914,85.4872229 79.3964914,84.8523657 C79.3964914,84.2162514 79.1928343,83.6957943 78.7892914,83.2922514 C78.3844914,82.8887086 77.8652914,82.6863086 77.2291771,82.6863086 Z" id="Fill-9" fill="#000000"></path>
            <g id="Group-13" transform="translate(3.771429, 39.767451)">
                <mask id="mask-2" fill="white">
                    <use xlink:href="#path-1"></use>
                </mask>
                <g id="Clip-12"></g>
                <path d="M101.532263,43.1787086 C101.532263,44.04488 101.229291,44.7815657 100.622091,45.3887657 C100.016149,45.9947086 99.2794629,46.29768 98.4145486,46.29768 L82.7291771,46.29768 C81.8630057,46.29768 81.1275771,45.9947086 80.51912,45.3887657 C79.9131771,44.7815657 79.6114629,44.04488 79.6114629,43.1787086 L79.6114629,40.5097943 C79.7384343,40.6078514 79.9056343,40.66568 80.1306629,40.66568 L99.6264343,40.66568 C100.145634,40.66568 100.405863,40.4067086 100.405863,39.8862514 C100.405863,39.3670514 100.145634,39.1068229 99.6264343,39.1068229 L80.1306629,39.1068229 C79.9056343,39.1068229 79.7384343,39.1646514 79.6114629,39.2627086 L79.6114629,5.65928 C79.6114629,4.85219429 79.9131771,4.14316571 80.51912,3.53722286 C81.1275771,2.93002286 81.8630057,2.62705143 82.7291771,2.62705143 L98.4145486,2.62705143 C99.2794629,2.62705143 100.016149,2.93002286 100.622091,3.53722286 C101.229291,4.14316571 101.532263,4.85219429 101.532263,5.65928 L101.532263,43.1787086 Z M101.663006,2.45356571 C100.766663,1.58739429 99.6830057,1.15368 98.4145486,1.15368 L82.7291771,1.15368 C81.4582057,1.15368 80.3745486,1.58739429 79.48072,2.45356571 C78.5843771,3.32099429 78.1380914,4.39082286 78.1380914,5.65928 L78.1380914,20.6507086 L0.933177143,20.6507086 C0.470548571,20.6507086 0.240491429,20.8820229 0.240491429,21.3433943 C0.240491429,21.8638514 0.470548571,22.1228229 0.933177143,22.1228229 L78.1380914,22.1228229 L78.1380914,43.1787086 C78.1380914,44.44968 78.5843771,45.53208 79.48072,46.4284229 C80.3745486,47.3235086 81.4582057,47.7710514 82.7291771,47.7710514 L98.4145486,47.7710514 C99.6830057,47.7710514 100.766663,47.3235086 101.663006,46.4284229 C102.556834,45.53208 103.005634,44.44968 103.005634,43.1787086 L103.005634,5.65928 C103.005634,4.39082286 102.556834,3.32099429 101.663006,2.45356571 Z" id="Fill-11" fill="#000000" mask="url(#mask-2)"></path>
            </g>
            <path d="M98.7185257,64.83664 L98.1980686,65.3570971 L93.6924686,69.8626971 L89.8808114,66.1365257 L89.9675543,66.1365257 L88.5809257,64.83664 C88.0038971,64.2596114 87.7134971,63.6234971 87.7134971,62.9295543 C87.7134971,62.2381257 87.9737257,61.6309257 88.4941829,61.1104686 C89.01464,60.5912686 89.62184,60.33104 90.3132686,60.33104 C91.0637829,60.33104 91.6848114,60.5912686 92.1776114,61.1104686 C92.66664,61.6309257 92.9142971,62.2381257 92.9142971,62.9295543 L94.3864114,62.9295543 C94.3864114,62.2381257 94.64664,61.6309257 95.16584,61.1104686 C95.6862971,60.5912686 96.29224,60.33104 96.9849257,60.33104 C97.6788686,60.33104 98.2860686,60.5912686 98.8040114,61.1104686 C99.3244686,61.6309257 99.5846971,62.2381257 99.5846971,62.9295543 C99.5846971,63.6234971 99.2955543,64.2596114 98.7185257,64.83664 M99.5406971,57.4282971 C99.3961257,57.5741257 99.35464,57.76144 99.4124686,57.9914971 C99.4124686,58.1637257 99.4828686,58.32464 99.6286971,58.4692114 C99.7720114,58.6137829 99.9605829,58.6565257 100.191897,58.59744 L100.56024,58.5760686 L99.4614971,59.6760686 C98.7625257,59.1405257 97.9428686,58.8576686 96.9849257,58.8576686 C95.5417257,58.8576686 94.44424,59.4359543 93.6924686,60.5912686 C92.8262971,59.4359543 91.6998971,58.8576686 90.3132686,58.8576686 C89.1579543,58.8576686 88.1912114,59.24864 87.4117829,60.0280686 C86.6310971,60.8074971 86.2413829,61.7754971 86.2413829,62.9295543 C86.2413829,63.7404114 86.4425257,64.4330971 86.8485829,65.0101257 L86.6750971,65.0968686 L89.9876686,68.3692114 L88.97064,69.3849829 L86.2413829,69.5157257 C85.7787543,69.5157257 85.54744,69.7759543 85.54744,70.2964114 C85.54744,70.8721829 85.8076686,71.1034971 86.3293829,70.9890971 L87.4117829,70.94384 L87.1942971,71.1613257 C86.9051543,71.4504686 86.9051543,71.79744 87.1942971,72.2009829 C87.3099543,72.31664 87.4821829,72.3744686 87.7134971,72.3744686 C88.0038971,72.3744686 88.1748686,72.31664 88.2339543,72.2009829 L88.3558971,72.0802971 L88.3206971,72.8949257 C88.3206971,73.4141257 88.5809257,73.6743543 89.1013829,73.6743543 C89.62184,73.6743543 89.8808114,73.4141257 89.8808114,72.8949257 L89.8808114,70.5553829 L91.0348686,69.4025829 L93.6924686,72.0287543 L100.365383,65.3570971 L100.277383,65.3570971 C100.79784,64.6631543 101.058069,63.8560686 101.058069,62.9295543 C101.058069,62.1300114 100.858183,61.4260114 100.482297,60.8049829 L101.498069,59.75904 L101.490526,59.8105829 C101.374869,60.3888686 101.578526,60.6767543 102.097726,60.6767543 L102.185726,60.6767543 C102.588011,60.6767543 102.84824,60.4756114 102.963897,60.0708114 L103.398869,56.8650971 L100.018411,57.1253257 C99.8449257,57.1831543 99.6865257,57.2849829 99.5406971,57.4282971" id="Fill-14" fill="#000000"></path>
        </g>
    </g>
</svg>