<?xml version="1.0" encoding="UTF-8"?>
<svg width="76px" height="57px" viewBox="0 0 76 57" version="1.1" xmlns="http://www.w3.org/2000/svg" xmlns:xlink="http://www.w3.org/1999/xlink">
    <!-- Generator: Sketch 48.2 (47327) - http://www.bohemiancoding.com/sketch -->
    <title>Group 54</title>
    <desc>Created with Sketch.</desc>
    <defs></defs>
    <g id="Page-1-Copy" stroke="none" stroke-width="1" fill="none" fill-rule="evenodd">
        <g id="Group-54" transform="translate(-13.000000, -6.000000)">
            <rect id="Rectangle-4" x="0" y="0" width="103" height="70"></rect>
            <g id="ROCKET" transform="translate(13.000000, 6.000000)" fill="#000000">
                <path d="M46.8885304,28.9243609 C45.2371826,30.2147087 43.4718348,31.5818826 41.593313,33.0242304 C39.7139652,34.4665783 37.9296174,35.8238391 36.2410957,37.095187 C34.5517478,38.3673609 33.081313,39.4767957 31.8289652,40.4259696 C30.5757913,41.3751435 29.7406174,42.0013174 29.3234435,42.3044913 C29.1574,42.2491435 28.9104,42.1401 28.6245739,42.0037957 C28.5411391,41.9335783 28.4552261,41.8881435 28.3635304,41.8798826 C28.3387478,41.8674913 28.3230522,41.8617087 28.2982696,41.8493174 C27.8422696,41.6213174 27.3102696,41.2991435 26.7039217,40.8819696 C25.9827478,40.3499696 25.1855739,39.5808826 24.3124,38.5755348 C23.4392261,37.570187 22.6230522,36.2501 21.8647043,34.6185783 L22.611487,33.6776652 L22.6610522,33.7074043 L24.2603565,31.6025348 L40.1418783,11.6153609 C41.0522261,10.742187 41.915487,9.97392609 42.7316609,9.30892609 C43.5478348,8.64557826 44.5630957,7.94257826 45.7782696,7.20240435 C46.9926174,6.46223043 48.3688783,5.77823043 49.9062261,5.15288261 C51.4435739,4.5267087 53.1320957,4.0137087 54.9734435,3.6147087 C56.8147913,3.21653478 58.7974,3.03727391 60.9237478,3.07444783 C61.1517478,4.09879565 61.2269217,5.14379565 61.1517478,6.20614348 C61.0749217,7.26931739 60.9237478,8.32257826 60.6957478,9.36592609 C60.4677478,10.4109261 60.1835739,11.407187 59.8415739,12.3547087 C59.5004,13.3047087 59.1394,14.1770565 58.7602261,14.9742304 C57.8490522,17.0245783 56.8808783,18.7891 55.8557043,20.2694478 C54.8313565,21.7497957 54.0713565,22.7749696 53.5790087,23.3441435 C53.2370087,23.7241435 52.4489217,24.4263174 51.2155739,25.4514913 C49.9822261,26.4758391 48.5398783,27.634013 46.8885304,28.9243609 Z M36.8961826,47.6567087 L31.6579652,51.3005783 L34.3336609,47.0305348 L31.7141391,42.0203174 L37.6363565,37.6354478 L36.8961826,47.6567087 Z M24.0852261,44.582013 C23.8572261,44.468013 23.5342261,44.2689261 23.1170522,43.9839261 C22.6990522,43.6997522 22.2628783,43.3395783 21.8077043,42.9025783 C21.3517043,42.4672304 20.8965304,41.9732304 20.4405304,41.4222304 C19.9853565,40.8720565 19.6053565,40.2549696 19.3021826,39.5717957 C19.6053565,39.1926217 19.9283565,38.7936217 20.2695304,38.3756217 C20.7214,37.8403174 21.1724435,37.2761 21.624313,36.6978391 C22.1249217,37.6329696 22.6660087,38.4590565 23.2591391,39.1447087 C24.227313,40.2648826 25.1467478,41.1471435 26.0207478,41.7923174 C26.4255304,42.0913609 26.7980957,42.3433174 27.1458783,42.5564478 L24.0852261,44.582013 Z M17.4798348,29.3225348 L13.0957913,31.9420565 L16.8536609,26.7038391 L26.9319217,26.1908391 L22.6602261,31.7974913 L22.3677913,32.1651 L17.4798348,29.3225348 Z M54.4323565,24.1413174 C54.7743565,23.7241435 55.2485304,23.0979696 55.8557043,22.2627957 C56.4628783,21.4284478 57.1088783,20.4404478 57.7920522,19.3021 C58.4752261,18.1629261 59.1394,16.9105783 59.7845739,15.5442304 C60.4297478,14.1770565 60.9708348,12.7537087 61.4078348,11.2733609 C61.8440087,9.79301304 62.1190957,8.30357826 62.2330957,6.80423043 C62.3470957,5.30488261 62.2330957,3.83444783 61.8919217,2.39127391 L61.8349217,1.99227391 L61.3797478,1.93527391 L60.2405739,1.93527391 C57.0518783,1.93527391 54.1762696,2.38218696 51.6145739,3.27353478 C49.0520522,4.1657087 46.8687043,5.16196957 45.0661826,6.26231739 C43.2628348,7.36431739 41.8684,8.37957826 40.8820522,9.30892609 C39.8940522,10.2399261 39.3628783,10.761187 39.2868783,10.8743609 L28.0587043,25.0045783 L16.227487,25.6216652 L8.88274783,35.7569261 L17.4798348,30.6318826 L21.6292696,33.0944478 L20.5545304,34.4475783 L20.7255304,34.7895783 C20.8345739,35.0597087 20.9527043,35.3083609 21.0675304,35.5636217 C20.8502696,35.8238391 20.6247478,36.1088391 20.3843565,36.4401 C20.0795304,36.7821 19.7482696,37.171187 19.3872696,37.6073609 C19.0262696,38.0443609 18.6371826,38.5284478 18.2200087,39.0596217 L17.9928348,39.3437957 L18.1060087,39.6287957 C18.4851826,40.6159696 18.9890957,41.4891435 19.6152696,42.2474913 C20.2414435,43.0074913 20.8577043,43.6427522 21.4657043,44.1549261 C22.0720522,44.6679261 22.6131391,45.0661 23.0881391,45.3511 C23.562313,45.6352739 23.8192261,45.7773609 23.8572261,45.7773609 L24.1414,45.9483609 L28.2718348,43.1421435 C28.8575304,43.3808826 29.1912696,43.5006652 29.2656174,43.5006652 L29.5506174,43.6138391 L29.7786174,43.4436652 C29.8794,43.3668391 30.2147913,43.118187 30.7740522,42.7034913 L33.024313,46.9735348 L27.7290957,55.4574478 L38.0345304,48.2837087 L38.8482261,36.5912739 C39.7222261,35.9204913 40.6259652,35.2265783 41.5652261,34.5045783 C43.5379217,32.9862304 45.4172696,31.5339696 47.2016174,30.1477957 C48.9851391,28.7632739 50.541487,27.5208391 51.8706609,26.4188391 C53.1990087,25.3184913 54.0531826,24.5601435 54.4323565,24.1413174 Z" id="Fill-1"></path>
                <path d="M72.7384435,46.7376043 C71.8082696,47.7669087 70.6401826,48.283213 69.2366609,48.283213 L53.0668348,48.283213 C51.8896609,48.320387 50.8826609,47.9197348 50.048313,47.0796043 C49.2131391,46.2378217 48.7959652,45.2266913 48.7959652,44.0412565 C48.7959652,42.8574739 49.2131391,41.8546043 50.048313,41.0326478 C50.8826609,40.2106913 51.8896609,39.8001261 53.0668348,39.8001261 C53.3311826,39.8001261 53.5971826,39.8191261 53.8631826,39.8563 C54.1283565,39.8951261 54.3943565,39.9703 54.6603565,40.0834739 L55.4005304,40.3684739 L55.4575304,39.5713 C55.5335304,37.9406043 56.1407043,36.5643435 57.2798783,35.4433435 C58.4182261,34.3248217 59.8225739,33.7639087 61.4929217,33.7639087 C62.7460957,33.7639087 63.8935304,34.1249087 64.9377043,34.8452565 C65.9810522,35.5672565 66.7121391,36.5346043 67.1301391,37.7497783 L67.357313,38.2049522 L67.813313,38.0909522 C68.002487,38.0537783 68.2015739,38.0256913 68.4114,38.0058652 C68.6195739,37.9868652 68.8186609,37.9777783 69.0086609,37.9777783 C70.4510087,37.9777783 71.6653565,38.4734304 72.6525304,39.4655609 C73.6397043,40.4585174 74.1328783,41.6803 74.1328783,43.1300826 C74.1328783,44.5046913 73.6677913,45.7066478 72.7384435,46.7376043 M74.7879652,40.6534739 C74.4649652,39.8951261 74.0197043,39.2301261 73.4497043,38.6609522 C72.8805304,38.0909522 72.2163565,37.6456913 71.4571826,37.3226913 C70.6971826,37.0005174 69.8818348,36.8386043 69.0086609,36.8386043 L68.5245739,36.8386043 C68.3915739,36.8386043 68.230487,36.8584304 68.040487,36.8956043 C67.4721391,35.6052565 66.5981391,34.5701696 65.4217913,33.7919957 C64.2446174,33.0154739 62.9352696,32.6255609 61.4929217,32.6255609 C60.5817478,32.6255609 59.718487,32.7874739 58.902313,33.1137783 C58.0861391,33.4392565 57.3649652,33.881213 56.7387913,34.4355174 C56.1126174,34.9914739 55.5905304,35.6424304 55.1725304,36.3908652 C54.7545304,37.1376478 54.4901826,37.9513435 54.3753565,38.8319522 C53.9201826,38.7171261 53.4831826,38.6609522 53.0668348,38.6609522 C52.3068348,38.6609522 51.6046609,38.8030391 50.959487,39.0855609 C50.313487,39.3689087 49.744313,39.7555174 49.2511391,40.2470391 C48.7579652,40.7377348 48.3688783,41.3135174 48.0838783,41.9735609 C47.7997043,42.6344304 47.6576174,43.324213 47.6576174,44.0412565 C47.6576174,44.7963 47.7997043,45.4951696 48.0838783,46.1370391 C48.3688783,46.7789087 48.7579652,47.3439522 49.2511391,47.8363 C49.744313,48.3269957 50.313487,48.7144304 50.959487,48.9969522 C51.6046609,49.2794739 52.3068348,49.4215609 53.0668348,49.4215609 L69.2936609,49.4215609 L69.8628348,49.365387 C71.4191826,49.1365609 72.7095304,48.434387 73.7347043,47.2580391 C74.7598783,46.0808652 75.2720522,44.6955174 75.2720522,43.1019957 C75.2720522,42.2288217 75.1101391,41.4134739 74.7879652,40.6534739" id="Fill-3"></path>
                <path d="M14.6900565,5.26630435 C15.1072304,4.83095652 15.6384043,4.61204348 16.2844043,4.61204348 C16.5875783,4.61204348 16.8535783,4.66821739 17.0815783,4.78221739 L17.8787522,5.12421739 L17.8787522,4.27004348 C17.9159261,3.39686957 18.2488391,2.65752174 18.875013,2.04952174 C19.501187,1.44234783 20.2504478,1.13834783 21.1244478,1.13834783 C21.8076217,1.13834783 22.4337957,1.33743478 23.0029696,1.73643478 C23.5721435,2.1346087 23.9711435,2.65752174 24.1983174,3.30186957 L24.3693174,3.75786957 L24.8814913,3.64386957 C25.0334913,3.60586957 25.2416652,3.58686957 25.5084913,3.58686957 C26.2668391,3.58686957 26.912013,3.85286957 27.444013,4.38404348 C27.975187,4.91604348 28.241187,5.5603913 28.241187,6.31956522 C28.241187,7.07956522 27.9933609,7.72473913 27.501013,8.25591304 C27.007013,8.78791304 26.3998391,9.05308696 25.6786652,9.05308696 L16.2844043,9.05308696 C15.6384043,9.05308696 15.1072304,8.84491304 14.6900565,8.42608696 C14.2720565,8.00891304 14.0638826,7.47856522 14.0638826,6.83256522 C14.0638826,6.2253913 14.2720565,5.70330435 14.6900565,5.26630435 M16.2844043,10.1914348 L25.6786652,10.1914348 L26.2486652,10.1914348 L26.2486652,10.1352609 C27.1598391,9.94526087 27.9082739,9.49917391 28.4972739,8.79617391 C29.0854478,8.09482609 29.3803609,7.26956522 29.3803609,6.31956522 C29.3803609,5.21921739 29.0094478,4.29813043 28.2692739,3.55878261 C27.5291,2.81778261 26.6088391,2.44852174 25.5084913,2.44852174 L25.1094913,2.44852174 C24.7294913,1.68934783 24.1892304,1.09126087 23.4870565,0.65426087 C22.7840565,0.218913043 21.9967957,0 21.1244478,0 C20.0604478,0 19.1311,0.332086957 18.3339261,0.99626087 C17.5367522,1.66126087 17.0435783,2.50469565 16.8535783,3.52986957 C16.7395783,3.52986957 16.6346652,3.5216087 16.5404913,3.50095652 C16.4454913,3.48278261 16.3595783,3.47286957 16.2844043,3.47286957 C15.3352304,3.47286957 14.5380565,3.80495652 13.8928826,4.46913043 C13.2468826,5.13413043 12.9247087,5.9213913 12.9247087,6.83256522 C12.9247087,7.78173913 13.2468826,8.57891304 13.8928826,9.22326087 C14.5380565,9.86926087 15.3352304,10.1914348 16.2844043,10.1914348" id="Fill-5"></path>
                <path d="M14.8607261,51.016487 C14.1015522,52.3440087 13.3522913,53.3592696 12.6121174,54.0630957 C11.8719435,54.7644435 11.1689435,55.2295304 10.5055957,55.4575304 C9.84059565,55.6847043 9.2615087,55.7987043 8.76833478,55.7987043 C8.65433478,55.7987043 8.54116087,55.7887913 8.42633478,55.7706174 C8.31316087,55.7507913 8.21733478,55.7425304 8.14216087,55.7425304 C8.25616087,55.4773565 8.38916087,55.1378348 8.54116087,54.7231391 C8.69233478,54.3076174 8.85424783,53.8920957 9.02524783,53.4774 C9.19542174,53.0627043 9.34659565,52.6562696 9.48042174,52.2605739 C9.61259565,51.8624 9.71668261,51.5526174 9.7935087,51.3262696 L10.6476826,48.6084435 L8.82533478,50.8116174 C7.23098696,52.6934435 5.42763913,53.6351826 3.41611739,53.6351826 C3.03694348,53.6351826 2.68503043,53.6070957 2.36285652,53.5492696 C2.03985652,53.4930957 1.78376957,53.4261826 1.59376957,53.3501826 C1.85976957,52.8570087 2.31494348,52.1548348 2.96094348,51.2436609 C3.6052913,50.333313 4.41320435,49.421313 5.38055217,48.5109652 C6.34872609,47.5997913 7.47716087,46.8026174 8.76833478,46.1194435 C10.0586826,45.4362696 11.4820304,45.0942696 13.0383783,45.0942696 C13.5703783,45.0942696 14.1015522,45.1430087 14.6335522,45.2371826 C15.1639,45.3321826 15.6950739,45.4742696 16.2270739,45.6642696 L16.3410739,45.6642696 L16.3980739,45.6642696 C16.5120739,45.6642696 16.6161609,45.6725304 16.7111609,45.6923565 C16.8053348,45.7113565 16.8912478,45.7212696 16.9672478,45.7212696 C16.3220739,47.9219652 15.6199,49.687313 14.8607261,51.016487 M16.5120739,44.5259217 C15.9049,44.3359217 15.3167261,44.1930087 14.7467261,44.0980087 C14.1775522,44.0038348 13.6083783,43.9559217 13.0383783,43.9559217 C9.65968261,43.9559217 6.50981304,45.5312696 3.58711739,48.6819652 C2.48594348,49.858313 1.66068261,50.921487 1.1105087,51.8698348 C0.559508696,52.8190087 0.265421739,53.3121826 0.228247826,53.3501826 L0.000247826087,53.8631826 L0.512421739,54.1473565 C0.549595652,54.1473565 0.825508696,54.2514435 1.33768261,54.4612696 C1.85068261,54.6694435 2.54294348,54.7743565 3.41611739,54.7743565 C4.0232913,54.7743565 4.70646522,54.6793565 5.46563913,54.4893565 C6.22481304,54.2993565 7.04098696,53.8821826 7.91416087,53.2370087 C7.64898696,53.8821826 7.41107391,54.4893565 7.2029,55.0593565 C6.9939,55.6285304 6.86998696,55.9127043 6.83281304,55.9127043 L6.66181304,56.4257043 L7.17398696,56.6528783 C7.21198696,56.6528783 7.3739,56.6999652 7.65807391,56.7949652 C7.94307391,56.8891391 8.31316087,56.9378783 8.76833478,56.9378783 C9.3375087,56.9378783 10.0215087,56.8040522 10.8178565,56.5397043 C11.6150304,56.2728783 12.4411174,55.7326174 13.2944652,54.9164435 C14.1494652,54.0994435 15.0119,52.9321826 15.8859,51.4146609 C16.7582478,49.896313 17.5554217,47.8847913 18.2774217,45.3792696 L18.4475957,44.8092696 L17.8214217,44.6960957 C17.4034217,44.5820957 16.9672478,44.5259217 16.5120739,44.5259217" id="Fill-7"></path>
                <path d="M51.0734043,20.0987783 C50.7694043,20.7447783 50.3803174,21.3040391 49.9061435,21.778213 C49.4311435,22.253213 48.8710565,22.632387 48.2267087,22.917387 C47.5807087,23.202387 46.8975348,23.3444739 46.1763609,23.3444739 L46.1193609,23.3444739 C44.601013,23.2684739 43.3486652,22.7373 42.3623174,21.7501261 C41.3371435,20.7249522 40.8249696,19.4544304 40.8249696,17.9352565 C40.8249696,17.2149087 40.9670565,16.5317348 41.2512304,15.8849087 C41.5362304,15.2405609 41.9154043,14.6804739 42.3904043,14.2054739 C42.8645783,13.7313 43.4238391,13.3513 44.0698391,13.0671261 C44.715013,12.7829522 45.417187,12.6400391 46.1763609,12.6400391 L46.234187,12.6400391 C46.9545348,12.6400391 47.6377087,12.7829522 48.2837087,13.0671261 C48.9280565,13.3513 49.4881435,13.741213 49.9631435,14.2335609 C50.4373174,14.728387 50.8173174,15.3066478 51.1023174,15.9708217 C51.3864913,16.6358217 51.5285783,17.3280826 51.5285783,18.0492565 C51.5285783,18.7712565 51.3765783,19.4544304 51.0734043,20.0987783 M50.7884043,13.437213 C50.2192304,12.8300391 49.5451435,12.3550391 48.7669696,12.0138652 C47.9887957,11.6718652 47.1445348,11.5016913 46.234187,11.5016913 L46.1763609,11.5016913 C45.266013,11.5016913 44.4209261,11.6627783 43.6427522,11.9857783 C42.8645783,12.3079522 42.1814043,12.7639522 41.5932304,13.3513 C41.0042304,13.9411261 40.5399696,14.6234739 40.1979696,15.4008217 C39.8567957,16.1798217 39.6857957,17.0240826 39.6857957,17.9352565 C39.6857957,18.8456043 39.8468826,19.6915174 40.1698826,20.4688652 C40.4920565,21.2478652 40.9472304,21.9310391 41.5362304,22.519213 C42.1244043,23.108213 42.8075783,23.582387 43.5865783,23.9417348 C44.3631,24.3035609 45.209013,24.4836478 46.1193609,24.4836478 L46.1763609,24.4836478 C47.0495348,24.4836478 47.8747957,24.3126478 48.6537957,23.9706478 C49.4311435,23.6286478 50.1143174,23.164387 50.7033174,22.575387 C51.2914913,21.987213 51.7656652,21.3040391 52.1266652,20.5258652 C52.4868391,19.7485174 52.6677522,18.9224304 52.6677522,18.0492565 C52.6677522,17.1380826 52.4967522,16.2938217 52.1555783,15.5148217 C51.8135783,14.7383 51.3584043,14.045213 50.7884043,13.437213" id="Fill-9"></path>
            </g>
        </g>
    </g>
</svg>