<?xml version="1.0" encoding="UTF-8"?>
<svg width="56px" height="56px" viewBox="0 0 56 56" version="1.1" xmlns="http://www.w3.org/2000/svg" xmlns:xlink="http://www.w3.org/1999/xlink">
    <!-- Generator: Sketch 48.2 (47327) - http://www.bohemiancoding.com/sketch -->
    <title>linkedin</title>
    <desc>Created with Sketch.</desc>
    <defs></defs>
    <g id="Large--1440" stroke="none" stroke-width="1" fill="none" fill-rule="evenodd" transform="translate(-245.000000, -1627.000000)">
        <path d="M294.538462,1675.46154 C294.538462,1676.056 294.056,1676.53846 293.461538,1676.53846 L284.846154,1676.53846 C284.251692,1676.53846 283.769231,1676.056 283.769231,1675.46154 L283.769231,1660.38462 C283.769231,1658.60338 282.319692,1657.15385 280.538462,1657.15385 C278.757231,1657.15385 277.307692,1658.60338 277.307692,1660.38462 L277.307692,1675.46154 C277.307692,1676.056 276.825231,1676.53846 276.230769,1676.53846 L267.615385,1676.53846 C267.020923,1676.53846 266.538462,1676.056 266.538462,1675.46154 L266.538462,1649.61538 C266.538462,1649.02092 267.020923,1648.53846 267.615385,1648.53846 L276.230769,1648.53846 C276.825231,1648.53846 277.307692,1649.02092 277.307692,1649.61538 L277.307692,1650.73323 C279.157846,1649.31815 281.410769,1648.53846 283.769231,1648.53846 C289.707385,1648.53846 294.538462,1653.36954 294.538462,1659.30769 L294.538462,1675.46154 Z M259,1646.38462 C256.032,1646.38462 253.615385,1643.968 253.615385,1641 C253.615385,1638.032 256.032,1635.61538 259,1635.61538 C261.968,1635.61538 264.384615,1638.032 264.384615,1641 C264.384615,1643.968 261.968,1646.38462 259,1646.38462 Z M264.384615,1675.46154 C264.384615,1676.056 263.902154,1676.53846 263.307692,1676.53846 L254.692308,1676.53846 C254.097846,1676.53846 253.615385,1676.056 253.615385,1675.46154 L253.615385,1649.61538 C253.615385,1649.02092 254.097846,1648.53846 254.692308,1648.53846 L263.307692,1648.53846 C263.902154,1648.53846 264.384615,1649.02092 264.384615,1649.61538 L264.384615,1675.46154 Z M296.692308,1627 L249.307692,1627 C246.932,1627 245,1628.932 245,1631.30769 L245,1678.69231 C245,1681.068 246.932,1683 249.307692,1683 L296.692308,1683 C299.068,1683 301,1681.068 301,1678.69231 L301,1631.30769 C301,1628.932 299.068,1627 296.692308,1627 Z" id="linkedin" fill="#000000"></path>
    </g>
</svg>