<?xml version="1.0" encoding="UTF-8"?>
<svg width="168px" height="87px" viewBox="0 0 168 87" version="1.1" xmlns="http://www.w3.org/2000/svg" xmlns:xlink="http://www.w3.org/1999/xlink">
    <!-- Generator: Sketch 48.2 (47327) - http://www.bohemiancoding.com/sketch -->
    <title>PLANET</title>
    <desc>Created with Sketch.</desc>
    <defs>
        <polygon id="path-1" points="0.000165697185 0.0951657143 167.8072 0.0951657143 167.8072 86.74248 0.000165697185 86.74248"></polygon>
    </defs>
    <g id="Page-1-Copy" stroke="none" stroke-width="1" fill="none" fill-rule="evenodd">
        <g id="PLANET" transform="translate(0.000000, -1.000000)">
            <path d="M47.3656229,33.1006971 C48.1161371,33.9379543 49.0401371,34.5300686 50.13888,34.8757829 C50.1941943,34.9348686 50.2809371,34.9625257 50.3978514,34.9625257 C50.9183086,34.9625257 51.2351086,34.7324686 51.3507657,34.26984 C51.58208,33.6940686 51.37968,33.2880114 50.7448229,33.0566971 C49.0677943,32.4796686 48.0583086,31.3821829 47.7113371,29.76424 C47.3656229,28.0897257 47.79808,26.6440114 49.01248,25.4308686 C49.4738514,25.0285829 49.5015086,24.5646971 49.0979657,24.0454971 C48.6353371,23.5841257 48.1739657,23.5841257 47.7113371,24.0454971 C46.9017371,24.85384 46.3259657,25.7790971 45.9789943,26.8187543 C45.6320229,27.8571543 45.5741943,28.9558971 45.8055086,30.1112114 C46.0946514,31.2665257 46.6138514,32.26344 47.3656229,33.1006971" id="Fill-1" fill="#000000"></path>
            <g id="Group-5" transform="translate(0.000000, 1.162606)">
                <mask id="mask-2" fill="white">
                    <use xlink:href="#path-1"></use>
                </mask>
                <g id="Clip-4"></g>
                <path d="M164.297634,42.5513943 C163.227806,45.0367657 161.784606,47.1877371 159.96552,49.00808 C158.145177,50.8271657 155.992949,52.2703657 153.510091,53.3401943 C151.02472,54.4100229 148.397291,54.9417943 145.624034,54.9417943 C142.852034,54.9417943 140.223349,54.4100229 137.740491,53.3401943 C135.25512,52.2703657 133.104149,50.8271657 131.283806,49.00808 C129.46472,47.1877371 128.020263,45.0367657 126.951691,42.5513943 C125.881863,40.0685371 125.348834,37.4398514 125.348834,34.6678514 C125.348834,31.8933371 125.881863,29.2671657 126.951691,26.7817943 C128.020263,24.2989371 129.46472,22.1467086 131.283806,20.3263657 C133.104149,18.50728 135.25512,17.06408 137.740491,15.9942514 C140.223349,14.92568 142.852034,14.3913943 145.624034,14.3913943 C148.397291,14.3913943 151.02472,14.92568 153.510091,15.9942514 C155.992949,17.06408 158.145177,18.50728 159.96552,20.3263657 C161.784606,22.1467086 163.227806,24.2989371 164.297634,26.7817943 C165.366206,29.2671657 165.900491,31.8933371 165.900491,34.6678514 C165.900491,37.4398514 165.366206,40.0685371 164.297634,42.5513943 Z M120.799234,54.1623657 C117.651349,55.60808 114.285977,56.9934514 110.705634,58.3222514 C111.918777,54.7406514 112.654206,51.0873943 112.914434,47.3612229 C113.174663,43.6350514 112.900606,39.8963086 112.092263,36.1399657 C111.454891,33.3101371 110.647806,30.7971086 109.66472,28.60088 C110.241749,28.5443086 111.03752,28.5015657 112.048263,28.4713943 C113.059006,28.44248 114.21432,28.4286514 115.514206,28.4286514 C116.814091,28.4286514 118.20072,28.4713943 119.672834,28.5581371 C121.146206,28.6436229 122.633406,28.7743657 124.135691,28.9491086 C123.673063,30.9127657 123.443006,32.8185943 123.443006,34.6678514 C123.443006,37.5555086 123.94712,40.2709371 124.95912,42.8116229 C125.968606,45.3535657 127.37032,47.6063657 129.161749,49.5700229 C126.735463,51.1879657 123.94712,52.7191657 120.799234,54.1623657 Z M108.279349,59.1884229 C102.790663,61.03768 97.2014057,62.7121943 91.5128343,64.2132229 C85.8230057,65.7167657 80.6083771,66.9588229 75.87272,67.9393943 C74.54392,68.2297943 72.7097486,68.5604229 70.3702057,68.9363086 C68.0306629,69.3121943 65.33032,69.6729943 62.2691771,70.0199657 C59.2067771,70.36568 55.8854057,70.6686514 52.3050629,70.92888 C48.7222057,71.1891086 45.0827771,71.4053371 41.3867771,71.5788229 C39.0170629,68.9790514 37.0244914,66.1353943 35.4078057,63.04408 C33.7898629,59.95528 32.6056343,56.6188229 31.85512,53.0372229 C30.7576343,47.83768 30.6998057,42.6683086 31.6816343,37.5265943 C32.6634629,32.3861371 34.6283771,27.5612229 37.5738629,23.0556229 C40.5206057,18.4934514 44.1436914,14.7245371 48.4481486,11.74888 C52.7513486,8.77448 57.5033486,6.73790857 62.7028914,5.64042286 C64.0304343,5.35128 65.3881486,5.13379429 66.7747771,4.98922286 C68.1614057,4.84590857 69.5467771,4.77299429 70.9334057,4.77299429 C75.6124914,4.77299429 80.1180914,5.56750857 84.4502057,7.15653714 C88.7835771,8.74556571 92.6819771,10.93928 96.1491771,13.7414514 C99.6138629,16.54488 102.574434,19.8939086 105.029634,23.7923086 C107.484834,27.6919657 109.202091,31.9235086 110.185177,36.4869371 C110.99352,40.2985943 111.238663,44.1265943 110.921863,47.9684229 C110.603806,51.8089943 109.722549,55.5489943 108.279349,59.1884229 Z M105.939806,64.0837371 C105.47592,64.9222514 104.986891,65.74568 104.466434,66.5540229 C101.520949,71.0596229 97.8953486,74.7983657 93.5921486,77.77528 C89.2889486,80.74968 84.5382057,82.8139086 79.3386629,83.9692229 C78.0086057,84.2583657 76.6521486,84.4758514 75.2667771,84.6204229 C73.8801486,84.7637371 72.49352,84.8366514 71.1068914,84.8366514 C65.73512,84.8366514 60.6650629,83.8246514 55.9004914,81.8044229 C51.1346629,79.7804229 46.9018629,77.0084229 43.2058629,73.4846514 C46.7874629,73.3124229 50.2810629,73.0798514 53.6904343,72.7932229 C57.0985486,72.5028229 60.2464343,72.1860229 63.1353486,71.8390514 C66.0230057,71.49208 68.6076914,71.1463657 70.8906629,70.7993943 C73.1723771,70.4524229 74.9763771,70.1343657 76.3064343,69.84648 C81.4468914,68.7502514 86.6602629,67.5069371 91.9465486,66.1203086 C97.2315771,64.7349371 102.329291,63.2049943 107.239691,61.5279657 C106.834891,62.3941371 106.401177,63.2477371 105.939806,64.0837371 Z M17.4721486,13.5239657 L24.4040343,2.78042286 L32.0286057,7.71973714 L25.09672,18.46328 L17.4721486,13.5239657 Z M166.073977,26.0451086 C164.917406,23.3585943 163.329634,21.0052229 161.308149,18.9837371 C159.285406,16.9622514 156.932034,15.37448 154.24552,14.2179086 C151.560263,13.0625943 148.686434,12.4843086 145.624034,12.4843086 C143.199006,12.4843086 140.902206,12.8463657 138.736149,13.5679657 C136.570091,14.29208 134.57752,15.3003086 132.757177,16.6001943 C130.938091,17.9013371 129.333977,19.43128 127.948606,21.1937943 C126.561977,22.9563086 125.492149,24.9061371 124.742891,27.0420229 C122.951463,26.8107086 121.190206,26.6523086 119.456606,26.5655657 C117.724263,26.4788229 116.133977,26.43608 114.692034,26.43608 C113.24632,26.43608 112.00552,26.4649943 110.965863,26.5215657 C109.926206,26.5806514 109.232263,26.63848 108.885291,26.6950514 C107.152949,23.1147086 104.971806,19.8649943 102.344377,16.9471657 C99.7144343,14.0305943 96.75512,11.5313943 93.4626629,9.45208 C90.1702057,7.37276571 86.61752,5.75608 82.8046057,4.60076571 C78.9916914,3.44545143 75.0342057,2.86716571 70.9334057,2.86716571 C67.8710057,2.86716571 65.0110057,3.15630857 62.35592,3.73333714 C56.8672343,4.88990857 51.8713486,7.02579429 47.3657486,10.1460229 C42.8588914,13.2649943 39.0472343,17.1935657 35.9282629,21.93048 L34.3681486,24.5289943 L26.7435771,19.5029371 L34.7138629,7.19928 L23.8835771,0.0951657143 L14.7856343,14.0444229 L33.5019771,26.2625943 C31.3635771,30.4790514 29.9920343,34.8979086 29.3860914,39.5191657 C28.7788914,44.14168 28.9662057,48.7905943 29.9492914,53.46968 C30.6998057,56.9356229 31.8262057,60.18408 33.3284914,63.2175657 C34.82952,66.2510514 36.67752,69.0670514 38.8737486,71.6655657 C35.23432,71.7812229 31.6514629,71.7963086 28.1289486,71.7083086 C24.6051771,71.6228229 21.31272,71.4053371 18.2515771,71.0596229 C15.1891771,70.7126514 12.45992,70.2211086 10.0625486,69.5862514 C7.66517714,68.9513943 5.74426286,68.11288 4.30106286,67.0732229 C2.79877714,65.9191657 2.01809143,64.7060229 1.96152,63.4337943 C1.78803429,61.35448 2.29340571,59.4046514 3.47763429,57.5855657 C4.66186286,55.76648 6.20689143,54.0756229 8.11397714,52.5167657 C10.0198057,50.9579086 12.1280343,49.5700229 14.4386629,48.35688 C16.7480343,47.1437371 18.8864343,46.1191657 20.8513486,45.2819086 C22.8137486,44.4446514 24.4756914,43.7947086 25.8334057,43.33208 C27.1898629,42.8707086 27.8976343,42.6381371 27.9554629,42.6381371 C28.5324914,42.4659086 28.7361486,42.0611086 28.5626629,41.4249943 C28.3313486,40.8492229 27.9265486,40.6455657 27.34952,40.8190514 C27.1760343,40.87688 26.33752,41.1521943 24.8364914,41.6412229 C23.3342057,42.1340229 21.5440343,42.8405371 19.46472,43.7657943 C17.3854057,44.6897943 15.1602629,45.8011086 12.7918057,47.1009943 C10.4233486,48.40088 8.25729143,49.8893371 6.29363429,51.5638514 C4.32872,53.2396229 2.74094857,55.0876229 1.52780571,57.1091086 C0.31592,59.1305943 -0.175622857,61.2979086 0.0556914286,63.60728 C0.22792,65.5721943 1.23866286,67.2479657 3.08792,68.6333371 C4.41546286,69.6139086 6.12014857,70.4235086 8.20072,71.0596229 C10.2800343,71.69448 12.6195771,72.2149371 15.2193486,72.61848 C17.8178629,73.0220229 20.6187771,73.3124229 23.6233486,73.4846514 C26.6266629,73.6581371 29.7179771,73.74488 32.8947771,73.74488 C34.1644914,73.74488 35.43672,73.7310514 36.7076914,73.7021371 C37.9774057,73.6719657 39.2772914,73.6292229 40.6060914,73.5726514 C44.4768343,77.6721943 49.0402629,80.8942514 54.2976343,83.2325371 C59.5524914,85.5733371 65.1568343,86.74248 71.1068914,86.74248 C74.1680343,86.74248 77.0280343,86.4533371 79.6856343,85.8763086 C85.1730629,84.7197371 90.1702057,82.5687657 94.6758057,79.42088 C99.1814057,76.2717371 102.993063,72.3293371 106.113291,67.59368 C107.556491,65.4577943 108.769634,63.1459086 109.75272,60.6617943 C113.85352,59.2185943 117.665177,57.70248 121.190206,56.1121943 C124.71272,54.5244229 127.831691,52.8059086 130.548377,50.9579086 C132.510777,52.8059086 134.778663,54.2503657 137.34952,55.2900229 C139.91912,56.32968 142.678549,56.84888 145.624034,56.84888 C148.686434,56.84888 151.560263,56.2718514 154.24552,55.11528 C156.932034,53.9612229 159.285406,52.3721943 161.308149,50.3507086 C163.329634,48.3292229 164.917406,45.9745943 166.073977,43.28808 C167.229291,40.6015657 167.807577,37.7289943 167.807577,34.6678514 C167.807577,31.6054514 167.229291,28.7316229 166.073977,26.0451086 Z" id="Fill-3" fill="#000000" mask="url(#mask-2)"></path>
            </g>
            <path d="M148.744263,47.0065829 C148.744263,47.0656686 148.729177,47.0933257 148.700263,47.0933257 C148.671349,47.0933257 148.65752,47.1234971 148.65752,47.1813257 L148.484034,47.6137829 L142.938777,48.8269257 L142.331577,47.1813257 C142.273749,47.1234971 142.246091,47.0656686 142.246091,47.0065829 L142.246091,46.9210971 L142.50632,46.9210971 L148.484034,46.9210971 L148.744263,46.9210971 L148.744263,47.0065829 Z M147.617863,50.1255543 C147.500949,50.3581257 147.32872,50.5743543 147.097406,50.7767543 C146.866091,50.9791543 146.605863,51.0797257 146.317977,51.0797257 L144.67112,51.0797257 C144.381977,51.0797257 144.094091,50.9364114 143.804949,50.6472686 L147.704606,49.77984 L147.617863,50.1255543 Z M148.484034,45.0140114 L142.50632,45.0140114 C141.753291,45.0140114 141.147349,45.3044114 140.685977,45.8801829 C140.339006,46.5162971 140.281177,47.1813257 140.512491,47.8727543 L141.119691,49.6930971 C141.002777,49.9244114 141.002777,50.1255543 141.119691,50.29904 C141.119691,50.5316114 141.29192,50.7629257 141.638891,50.9929829 C141.928034,51.5712686 142.345406,52.0615543 142.896034,52.4663543 C143.444149,52.8711543 144.035006,53.0722971 144.67112,53.0722971 L146.317977,53.0722971 C146.952834,53.0722971 147.573863,52.8711543 148.181063,52.4663543 C148.787006,52.0615543 149.205634,51.5423543 149.436949,50.9074971 L150.476606,47.8727543 C150.765749,47.1234971 150.70792,46.4584686 150.304377,45.8801829 C149.89832,45.3044114 149.292377,45.0140114 148.484034,45.0140114 Z" id="Fill-6" fill="#000000"></path>
            <path d="M52.1744457,66.5463543 C51.9707886,66.40304 51.7269029,66.3879543 51.43776,66.5036114 C50.62816,66.6205257 49.8487314,66.56144 49.0982171,66.3301257 C48.3477029,66.1000686 47.7115886,65.6663543 47.1923886,65.03024 C46.6719314,64.3953829 46.3098743,63.70144 46.1087314,62.9509257 C45.9063314,62.2004114 45.9490743,61.4209829 46.2394743,60.6101257 C46.41296,60.0343543 46.2093029,59.6295543 45.6322743,59.3969829 C44.99616,59.2247543 44.5926171,59.4284114 44.4191314,60.0041829 C44.0734171,61.1607543 44.0143314,62.2871543 44.2456457,63.3833829 C44.4757029,64.4808686 44.9685029,65.4639543 45.7190171,66.3301257 C47.04656,67.7745829 48.6645029,68.4961829 50.5715886,68.4961829 C50.8594743,68.4961829 51.2931886,68.4396114 51.8714743,68.3226971 C52.15936,68.2661257 52.3768457,68.13664 52.5214171,67.9329829 C52.6647314,67.7305829 52.6798171,67.48544 52.56416,67.1962971 C52.5063314,66.9084114 52.3768457,66.6909257 52.1744457,66.5463543" id="Fill-8" fill="#000000"></path>
            <path d="M94.0689829,31.6704457 C93.4906971,31.49696 93.0569829,31.6704457 92.7690971,32.1896457 C92.5377829,32.8270171 92.7389257,33.2607314 93.3762971,33.4895314 C94.9351543,34.1256457 95.8591543,35.3098743 96.1482971,37.0422171 C96.2639543,37.8518171 96.1772114,38.6325029 95.8880686,39.38176 C95.5989257,40.1335314 95.1375543,40.7683886 94.5026971,41.2875886 C94.2713829,41.4045029 94.1557257,41.6056457 94.1557257,41.8947886 C94.1557257,42.1839314 94.2424686,42.4152457 94.4159543,42.5887314 C94.58944,42.8200457 94.8194971,42.9344457 95.10864,42.9344457 C95.3977829,42.9344457 95.5989257,42.8778743 95.71584,42.76096 C96.6385829,42.0117029 97.3036114,41.11536 97.7084114,40.0757029 C98.1119543,39.0347886 98.2288686,37.93856 98.0541257,36.7819886 C97.7084114,34.3003886 96.3783543,32.5944457 94.0689829,31.6704457" id="Fill-10" fill="#000000"></path>
            <path d="M153.9428,31.4543429 C153.884971,31.8302286 153.798229,32.1608571 153.682571,32.45 C153.566914,32.7957143 153.451257,33.1150286 153.336857,33.4041714 C153.104286,33.8668 152.845314,34.4136571 152.556171,35.0497714 C152.267029,35.6858857 152.0068,36.234 151.776743,36.6966286 L149.263714,41.7214286 C149.148057,41.8949143 149.003486,42.0671429 148.831257,42.2418857 C148.657771,42.4153714 148.484286,42.5599429 148.3108,42.6756 L151.256286,31.0633714 L147.010914,33.8366286 L144.758114,26.3855429 L143.631714,33.4896571 L138.693657,30.8031429 L142.418571,42.5876 C142.013771,42.3575429 141.725886,42.0671429 141.5524,41.7214286 L138.952629,36.6966286 C138.721314,36.234 138.461086,35.6858857 138.1732,35.0497714 C137.884057,34.4136571 137.623829,33.8668 137.392514,33.4041714 C137.276857,33.1150286 137.1612,32.7957143 137.0468,32.45 C136.929886,32.1608571 136.843143,31.8302286 136.786571,31.4543429 C136.728743,31.0784571 136.699829,30.6598286 136.699829,30.1972 C136.699829,27.7709143 137.537086,25.7205143 139.212857,24.0447429 C140.887371,22.3702286 142.939029,21.5317143 145.365314,21.5317143 C147.790343,21.5317143 149.840743,22.3702286 151.516514,24.0447429 C153.191029,25.7205143 154.029543,27.7709143 154.029543,30.1972 C154.029543,30.6598286 153.999371,31.0784571 153.9428,31.4543429 Z M146.318229,42.3273714 L144.325657,42.3273714 L141.986114,34.7895429 L145.105086,36.5218857 L145.365314,35.0497714 L145.884514,36.9556 L148.137314,35.4822286 L146.318229,42.3273714 Z M152.8604,22.7134286 C151.906229,21.7567429 150.779829,21.0037143 149.4812,20.4518286 C148.181314,19.9024571 146.808514,19.6258857 145.365314,19.6258857 C143.9196,19.6258857 142.549314,19.9024571 141.249429,20.4518286 C139.949543,21.0037143 138.823143,21.7567429 137.870229,22.7134286 C136.917314,23.6688571 136.165543,24.7990286 135.616171,26.1026857 C135.0668,27.4076 134.794,28.7854286 134.794,30.2336571 C134.794,31.3361714 134.923486,32.2639429 135.183714,33.0157143 C135.443943,33.77 135.602343,34.1760571 135.660171,34.2338857 C135.890229,34.6977714 136.150457,35.2634857 136.4396,35.9297714 C136.728743,36.5960571 136.988971,37.1617714 137.220286,37.6244 L139.820057,42.6668 C140.107943,43.3054286 140.599486,43.8271429 141.292171,44.2332 C141.986114,44.6392571 142.648629,44.8404 143.284743,44.8404 L147.531371,44.8404 C148.224057,44.8404 148.902914,44.6392571 149.567943,44.2332 C150.230457,43.8271429 150.706914,43.3054286 150.997314,42.6668 L153.510343,37.6244 C153.7404,37.1617714 153.999371,36.5960571 154.289771,35.9297714 C154.577657,35.2634857 154.837886,34.6977714 155.0692,34.2338857 C155.125771,34.1760571 155.285429,33.77 155.545657,33.0157143 C155.805886,32.2639429 155.935371,31.3361714 155.935371,30.2336571 C155.935371,28.7854286 155.661314,27.4076 155.1132,26.1026857 C154.563829,24.7990286 153.813314,23.6688571 152.8604,22.7134286 Z" id="Fill-12" fill="#000000"></path>
            <path d="M81.8516914,59.4847314 C81.61912,59.3690743 81.3878057,59.3539886 81.1577486,59.4419886 C80.9264343,59.5274743 80.7529486,59.7160457 80.6385486,60.0039314 C79.8867771,61.6218743 78.6736343,62.51696 76.99912,62.6904457 C75.2667771,62.8639314 73.8801486,62.2567314 72.8404914,60.87136 C72.4356914,60.3509029 71.97432,60.2943314 71.4538629,60.6978743 C70.9334057,61.1026743 70.8755771,61.5640457 71.2803771,62.0832457 C71.9152343,62.8941029 72.6808343,63.5138743 73.57592,63.9475886 C74.4710057,64.3813029 75.4088343,64.5962743 76.3931771,64.5962743 L77.1726057,64.5962743 C79.6554629,64.3083886 81.3878057,63.0374171 82.3721486,60.7846171 C82.4865486,60.55456 82.5016343,60.3069029 82.4148914,60.0479314 C82.3281486,59.7877029 82.1395771,59.6016457 81.8516914,59.4847314" id="Fill-14" fill="#000000"></path>
            <path d="M72.5802629,18.6729714 C73.9078057,17.5176571 75.4088343,17.2297714 77.0858629,17.8068 C78.6459771,18.3850857 79.6265486,19.5114857 80.0313486,21.186 C80.1470057,21.7052 80.4650629,21.9654286 80.98552,21.9654286 L81.1577486,21.9654286 C81.7938629,21.8497714 82.0528343,21.4751429 81.9384343,20.8402857 C81.4179771,18.4127429 80.0024343,16.7973143 77.6918057,15.9864571 C76.59432,15.5829143 75.4830057,15.4823429 74.3566057,15.6834857 C73.2302057,15.8871429 72.2332914,16.3636 71.36712,17.1141143 C70.84792,17.5767429 70.8177486,18.0381143 71.2803771,18.4994857 C71.7417486,19.0186857 72.1754629,19.0777714 72.5802629,18.6729714" id="Fill-16" fill="#000000"></path>
        </g>
    </g>
</svg>